AnekTelugu-CondensedExtraBold.ufo
<glyph name="greater" format="2">
  <advance width="725"/>
  <unicode hex="003E"/>
  <outline>
    <contour>
      <point x="477" y="645" type="line"/>
      <point x="477" y="629" type="line"/>
      <point x="47" y="564" type="line"/>
      <point x="47" y="309" type="line"/>
      <point x="672" y="438" type="line"/>
      <point x="672" y="837" type="line"/>
      <point x="47" y="966" type="line"/>
      <point x="47" y="711" type="line"/>
    </contour>
  </outline>
</glyph>
<glyph name="Candrabindu_above.te" format="2">
  <unicode hex="0C00"/>
  <outline>
    <contour>
      <point x="-438" y="1312" type="curve" smooth="yes"/>
      <point x="-158" y="1312"/>
      <point x="-52" y="1457"/>
      <point x="-52" y="1650" type="curve" smooth="yes"/>
      <point x="-52" y="1662" type="line"/>
      <point x="-280" y="1662" type="line"/>
      <point x="-283" y="1547"/>
      <point x="-324" y="1501"/>
      <point x="-438" y="1501" type="curve" smooth="yes"/>
      <point x="-552" y="1501"/>
      <point x="-592" y="1547"/>
      <point x="-596" y="1662" type="curve"/>
      <point x="-824" y="1662" type="line"/>
      <point x="-824" y="1650" type="line" smooth="yes"/>
      <point x="-824" y="1457"/>
      <point x="-718" y="1312"/>
    </contour>
    <contour>
      <point x="-438" y="1592" type="curve" smooth="yes"/>
      <point x="-366" y="1592"/>
      <point x="-339" y="1635"/>
      <point x="-339" y="1719" type="curve" smooth="yes"/>
      <point x="-339" y="1803"/>
      <point x="-366" y="1847"/>
      <point x="-438" y="1847" type="curve" smooth="yes"/>
      <point x="-510" y="1847"/>
      <point x="-537" y="1803"/>
      <point x="-537" y="1719" type="curve" smooth="yes"/>
      <point x="-537" y="1635"/>
      <point x="-510" y="1592"/>
    </contour>
  </outline>
</glyph>
<glyph name="Candrabindu.te" format="2">
  <advance width="584"/>
  <unicode hex="0C01"/>
  <outline>
    <contour>
      <point x="472" y="-17" type="curve" smooth="yes"/>
      <point x="510" y="-17" type="line"/>
      <point x="547" y="267" type="line"/>
      <point x="509" y="267" type="line" smooth="yes"/>
      <point x="400" y="267"/>
      <point x="354" y="333"/>
      <point x="354" y="489" type="curve" smooth="yes"/>
      <point x="354" y="692" type="line" smooth="yes"/>
      <point x="354" y="848"/>
      <point x="400" y="914"/>
      <point x="509" y="914" type="curve" smooth="yes"/>
      <point x="547" y="914" type="line"/>
      <point x="510" y="1198" type="line"/>
      <point x="472" y="1198" type="line" smooth="yes"/>
      <point x="198" y="1198"/>
      <point x="60" y="1041"/>
      <point x="60" y="727" type="curve" smooth="yes"/>
      <point x="60" y="454" type="line" smooth="yes"/>
      <point x="60" y="140"/>
      <point x="198" y="-17"/>
    </contour>
  </outline>
</glyph>
<glyph name="Anuswara.te" format="2">
  <advance width="944"/>
  <unicode hex="0C02"/>
  <outline>
    <contour>
      <point x="472" y="-25" type="curve" smooth="yes"/>
      <point x="746" y="-25"/>
      <point x="884" y="132"/>
      <point x="884" y="446" type="curve" smooth="yes"/>
      <point x="884" y="738" type="line" smooth="yes"/>
      <point x="884" y="1052"/>
      <point x="747" y="1209"/>
      <point x="472" y="1209" type="curve" smooth="yes"/>
      <point x="197" y="1209"/>
      <point x="60" y="1052"/>
      <point x="60" y="738" type="curve" smooth="yes"/>
      <point x="60" y="446" type="line" smooth="yes"/>
      <point x="60" y="132"/>
      <point x="198" y="-25"/>
    </contour>
    <contour>
      <point x="472" y="258" type="curve" smooth="yes"/>
      <point x="389" y="258"/>
      <point x="354" y="314"/>
      <point x="354" y="444" type="curve" smooth="yes"/>
      <point x="354" y="740" type="line" smooth="yes"/>
      <point x="354" y="870"/>
      <point x="389" y="926"/>
      <point x="472" y="926" type="curve" smooth="yes"/>
      <point x="555" y="926"/>
      <point x="590" y="870"/>
      <point x="590" y="740" type="curve" smooth="yes"/>
      <point x="590" y="444" type="line" smooth="yes"/>
      <point x="590" y="314"/>
      <point x="555" y="258"/>
    </contour>
  </outline>
</glyph>
<glyph name="Visarga.te" format="2">
  <advance width="666"/>
  <unicode hex="0C03"/>
  <outline>
    <contour>
      <point x="333" y="613" type="curve" smooth="yes"/>
      <point x="513" y="613"/>
      <point x="616" y="712"/>
      <point x="616" y="896" type="curve" smooth="yes"/>
      <point x="616" y="926" type="line" smooth="yes"/>
      <point x="616" y="1110"/>
      <point x="513" y="1209"/>
      <point x="333" y="1209" type="curve" smooth="yes"/>
      <point x="153" y="1209"/>
      <point x="50" y="1110"/>
      <point x="50" y="926" type="curve" smooth="yes"/>
      <point x="50" y="896" type="line" smooth="yes"/>
      <point x="50" y="712"/>
      <point x="153" y="613"/>
    </contour>
    <contour>
      <point x="333" y="-26" type="curve" smooth="yes"/>
      <point x="513" y="-26"/>
      <point x="616" y="73"/>
      <point x="616" y="257" type="curve" smooth="yes"/>
      <point x="616" y="287" type="line" smooth="yes"/>
      <point x="616" y="471"/>
      <point x="513" y="570"/>
      <point x="333" y="570" type="curve" smooth="yes"/>
      <point x="153" y="570"/>
      <point x="50" y="471"/>
      <point x="50" y="287" type="curve" smooth="yes"/>
      <point x="50" y="257" type="line" smooth="yes"/>
      <point x="50" y="73"/>
      <point x="153" y="-26"/>
    </contour>
    <contour>
      <point x="333" y="202" type="curve" smooth="yes"/>
      <point x="298" y="202"/>
      <point x="282" y="220"/>
      <point x="282" y="263" type="curve" smooth="yes"/>
      <point x="282" y="281" type="line" smooth="yes"/>
      <point x="282" y="323"/>
      <point x="298" y="342"/>
      <point x="333" y="342" type="curve" smooth="yes"/>
      <point x="368" y="342"/>
      <point x="385" y="323"/>
      <point x="385" y="281" type="curve" smooth="yes"/>
      <point x="385" y="263" type="line" smooth="yes"/>
      <point x="385" y="220"/>
      <point x="368" y="202"/>
    </contour>
    <contour>
      <point x="333" y="841" type="curve" smooth="yes"/>
      <point x="298" y="841"/>
      <point x="282" y="859"/>
      <point x="282" y="902" type="curve" smooth="yes"/>
      <point x="282" y="920" type="line" smooth="yes"/>
      <point x="282" y="962"/>
      <point x="298" y="981"/>
      <point x="333" y="981" type="curve" smooth="yes"/>
      <point x="368" y="981"/>
      <point x="385" y="962"/>
      <point x="385" y="920" type="curve" smooth="yes"/>
      <point x="385" y="902" type="line" smooth="yes"/>
      <point x="385" y="859"/>
      <point x="368" y="841"/>
    </contour>
  </outline>
</glyph>
<glyph name="vowelA.te" format="2">
  <advance width="1223"/>
  <unicode hex="0C05"/>
  <outline>
    <contour>
      <point x="829" y="1209" type="curve" smooth="yes"/>
      <point x="610" y="1209"/>
      <point x="505" y="1100"/>
      <point x="505" y="913" type="curve" smooth="yes"/>
      <point x="505" y="898" type="line" smooth="yes"/>
      <point x="505" y="797"/>
      <point x="536" y="712"/>
      <point x="638" y="684" type="curve"/>
      <point x="638" y="677" type="line"/>
      <point x="409" y="679" type="line"/>
      <point x="446" y="445" type="line"/>
      <point x="823" y="454" type="line"/>
      <point x="823" y="672" type="line"/>
      <point x="811" y="675" type="line"/>
      <point x="792" y="696"/>
      <point x="789" y="725"/>
      <point x="789" y="776" type="curve" smooth="yes"/>
      <point x="789" y="868" type="line" smooth="yes"/>
      <point x="789" y="931"/>
      <point x="796" y="955"/>
      <point x="829" y="955" type="curve" smooth="yes"/>
      <point x="862" y="955"/>
      <point x="869" y="931"/>
      <point x="869" y="868" type="curve" smooth="yes"/>
      <point x="869" y="565" type="line" smooth="yes"/>
      <point x="869" y="350"/>
      <point x="794" y="259"/>
      <point x="612" y="259" type="curve" smooth="yes"/>
      <point x="430" y="259"/>
      <point x="354" y="350"/>
      <point x="354" y="565" type="curve" smooth="yes"/>
      <point x="354" y="747" type="line" smooth="yes"/>
      <point x="354" y="859"/>
      <point x="382" y="916"/>
      <point x="461" y="916" type="curve" smooth="yes"/>
      <point x="467" y="916" type="line"/>
      <point x="430" y="1189" type="line"/>
      <point x="415" y="1189" type="line" smooth="yes"/>
      <point x="157" y="1189"/>
      <point x="60" y="1005"/>
      <point x="60" y="747" type="curve" smooth="yes"/>
      <point x="60" y="550" type="line" smooth="yes"/>
      <point x="60" y="167"/>
      <point x="242" y="-24"/>
      <point x="612" y="-24" type="curve" smooth="yes"/>
      <point x="981" y="-24"/>
      <point x="1163" y="167"/>
      <point x="1163" y="550" type="curve" smooth="yes"/>
      <point x="1163" y="822" type="line" smooth="yes"/>
      <point x="1163" y="1082"/>
      <point x="1056" y="1209"/>
    </contour>
  </outline>
</glyph>
<glyph name="vowelAa.te" format="2">
  <advance width="1224"/>
  <unicode hex="0C06"/>
  <outline>
    <contour>
      <point x="612" y="-24" type="curve" smooth="yes"/>
      <point x="982" y="-24"/>
      <point x="1164" y="167"/>
      <point x="1164" y="550" type="curve" smooth="yes"/>
      <point x="1164" y="679" type="line"/>
      <point x="1020" y="677" type="line"/>
      <point x="1020" y="684" type="line"/>
      <point x="1118" y="712"/>
      <point x="1147" y="797"/>
      <point x="1147" y="898" type="curve" smooth="yes"/>
      <point x="1147" y="913" type="line" smooth="yes"/>
      <point x="1147" y="1100"/>
      <point x="1044" y="1209"/>
      <point x="829" y="1209" type="curve" smooth="yes"/>
      <point x="614" y="1209"/>
      <point x="511" y="1100"/>
      <point x="511" y="913" type="curve" smooth="yes"/>
      <point x="511" y="898" type="line" smooth="yes"/>
      <point x="511" y="797"/>
      <point x="540" y="712"/>
      <point x="638" y="684" type="curve"/>
      <point x="638" y="677" type="line"/>
      <point x="409" y="679" type="line"/>
      <point x="446" y="445" type="line"/>
      <point x="879" y="453" type="line"/>
      <point x="879" y="451" type="line"/>
      <point x="851" y="318"/>
      <point x="770" y="259"/>
      <point x="616" y="259" type="curve" smooth="yes"/>
      <point x="430" y="259"/>
      <point x="354" y="350"/>
      <point x="354" y="565" type="curve" smooth="yes"/>
      <point x="354" y="747" type="line" smooth="yes"/>
      <point x="354" y="859"/>
      <point x="382" y="916"/>
      <point x="461" y="916" type="curve" smooth="yes"/>
      <point x="467" y="916" type="line"/>
      <point x="430" y="1189" type="line"/>
      <point x="415" y="1189" type="line" smooth="yes"/>
      <point x="157" y="1189"/>
      <point x="60" y="1005"/>
      <point x="60" y="747" type="curve" smooth="yes"/>
      <point x="60" y="550" type="line" smooth="yes"/>
      <point x="60" y="167"/>
      <point x="242" y="-24"/>
    </contour>
    <contour>
      <point x="811" y="679" type="line"/>
      <point x="792" y="703"/>
      <point x="789" y="734"/>
      <point x="789" y="789" type="curve" smooth="yes"/>
      <point x="789" y="881" type="line" smooth="yes"/>
      <point x="789" y="949"/>
      <point x="796" y="973"/>
      <point x="829" y="973" type="curve" smooth="yes"/>
      <point x="862" y="973"/>
      <point x="869" y="949"/>
      <point x="869" y="881" type="curve" smooth="yes"/>
      <point x="869" y="789" type="line" smooth="yes"/>
      <point x="869" y="734"/>
      <point x="866" y="703"/>
      <point x="847" y="679" type="curve"/>
    </contour>
  </outline>
</glyph>
<glyph name="vowelI.te" format="2">
  <advance width="1203"/>
  <unicode hex="0C07"/>
  <outline>
    <contour>
      <point x="528" y="-24" type="curve" smooth="yes"/>
      <point x="849" y="-24"/>
      <point x="1142" y="223"/>
      <point x="1142" y="561" type="curve" smooth="yes"/>
      <point x="1142" y="856" type="line" smooth="yes"/>
      <point x="1142" y="1084"/>
      <point x="1044" y="1209"/>
      <point x="841" y="1209" type="curve" smooth="yes"/>
      <point x="695" y="1209"/>
      <point x="618" y="1139"/>
      <point x="589" y="1027" type="curve"/>
      <point x="581" y="1027" type="line"/>
      <point x="552" y="1139"/>
      <point x="478" y="1209"/>
      <point x="337" y="1209" type="curve" smooth="yes"/>
      <point x="136" y="1209"/>
      <point x="40" y="1086"/>
      <point x="40" y="859" type="curve" smooth="yes"/>
      <point x="40" y="834" type="line" smooth="yes"/>
      <point x="40" y="786"/>
      <point x="46" y="732"/>
      <point x="61" y="684" type="curve"/>
      <point x="338" y="684" type="line"/>
      <point x="331" y="734"/>
      <point x="327" y="773"/>
      <point x="327" y="817" type="curve" smooth="yes"/>
      <point x="327" y="843" type="line" smooth="yes"/>
      <point x="327" y="914"/>
      <point x="349" y="937"/>
      <point x="388" y="937" type="curve" smooth="yes"/>
      <point x="432" y="937"/>
      <point x="448" y="908"/>
      <point x="451" y="846" type="curve" smooth="yes"/>
      <point x="458" y="707" type="line"/>
      <point x="714" y="707" type="line"/>
      <point x="721" y="846" type="line" smooth="yes"/>
      <point x="724" y="911"/>
      <point x="742" y="937"/>
      <point x="786" y="937" type="curve" smooth="yes"/>
      <point x="826" y="937"/>
      <point x="848" y="913"/>
      <point x="848" y="839" type="curve" smooth="yes"/>
      <point x="848" y="565" type="line" smooth="yes"/>
      <point x="848" y="515"/>
      <point x="843" y="469"/>
      <point x="833" y="431" type="curve"/>
      <point x="786" y="337" type="line"/>
      <point x="727" y="278"/>
      <point x="662" y="243"/>
      <point x="539" y="243" type="curve" smooth="yes"/>
      <point x="447" y="243"/>
      <point x="405" y="267"/>
      <point x="405" y="318" type="curve" smooth="yes"/>
      <point x="405" y="320" type="line" smooth="yes"/>
      <point x="405" y="374"/>
      <point x="443" y="399"/>
      <point x="532" y="399" type="curve" smooth="yes"/>
      <point x="648" y="399"/>
      <point x="714" y="351"/>
      <point x="773" y="272" type="curve"/>
      <point x="841" y="140" type="line"/>
      <point x="857" y="74"/>
      <point x="863" y="-7"/>
      <point x="865" y="-129" type="curve"/>
      <point x="1133" y="-129" type="line"/>
      <point x="1120" y="59"/>
      <point x="1087" y="167"/>
      <point x="1025" y="272" type="curve"/>
      <point x="896" y="443" type="line"/>
      <point x="806" y="592"/>
      <point x="694" y="653"/>
      <point x="499" y="653" type="curve" smooth="yes"/>
      <point x="248" y="653"/>
      <point x="116" y="535"/>
      <point x="116" y="318" type="curve" smooth="yes"/>
      <point x="116" y="311" type="line" smooth="yes"/>
      <point x="116" y="94"/>
      <point x="259" y="-24"/>
    </contour>
  </outline>
</glyph>
<glyph name="vowelIi.te" format="2">
  <advance width="1762"/>
  <unicode hex="0C08"/>
  <outline>
    <contour>
      <point x="1376" y="-24" type="curve" smooth="yes"/>
      <point x="1597" y="-24"/>
      <point x="1702" y="99"/>
      <point x="1702" y="326" type="curve" smooth="yes"/>
      <point x="1702" y="361" type="line" smooth="yes"/>
      <point x="1702" y="552"/>
      <point x="1616" y="675"/>
      <point x="1452" y="692" type="curve"/>
      <point x="1439" y="712"/>
      <point x="1413" y="732"/>
      <point x="1395" y="732" type="curve" smooth="yes"/>
      <point x="843" y="732" type="line"/>
      <point x="804" y="727" type="line"/>
      <point x="269" y="727" type="line"/>
      <point x="234" y="732" type="line"/>
      <point x="37" y="732" type="line"/>
      <point x="37" y="497" type="line"/>
      <point x="234" y="497" type="line"/>
      <point x="269" y="500" type="line"/>
      <point x="804" y="500" type="line"/>
      <point x="843" y="497" type="line"/>
      <point x="1135" y="497" type="line"/>
      <point x="1076" y="450"/>
      <point x="1054" y="388"/>
      <point x="1054" y="280" type="curve" smooth="yes"/>
      <point x="1054" y="277" type="line" smooth="yes"/>
      <point x="1054" y="80"/>
      <point x="1156" y="-24"/>
    </contour>
    <contour>
      <point x="558" y="-26" type="curve" smooth="yes"/>
      <point x="830" y="-26"/>
      <point x="968" y="131"/>
      <point x="968" y="443" type="curve" smooth="yes"/>
      <point x="968" y="749" type="line" smooth="yes"/>
      <point x="968" y="1041"/>
      <point x="834" y="1181"/>
      <point x="558" y="1181" type="curve" smooth="yes"/>
      <point x="282" y="1181"/>
      <point x="147" y="1040"/>
      <point x="147" y="745" type="curve" smooth="yes"/>
      <point x="147" y="443" type="line" smooth="yes"/>
      <point x="147" y="131"/>
      <point x="285" y="-26"/>
    </contour>
    <contour>
      <point x="558" y="257" type="curve" smooth="yes"/>
      <point x="471" y="257"/>
      <point x="434" y="312"/>
      <point x="434" y="449" type="curve" smooth="yes"/>
      <point x="434" y="734" type="line" smooth="yes"/>
      <point x="434" y="868"/>
      <point x="471" y="926"/>
      <point x="558" y="926" type="curve" smooth="yes"/>
      <point x="644" y="926"/>
      <point x="681" y="868"/>
      <point x="681" y="734" type="curve" smooth="yes"/>
      <point x="681" y="449" type="line" smooth="yes"/>
      <point x="681" y="312"/>
      <point x="644" y="257"/>
    </contour>
    <contour>
      <point x="1373" y="232" type="curve" smooth="yes"/>
      <point x="1340" y="232"/>
      <point x="1327" y="254"/>
      <point x="1327" y="307" type="curve" smooth="yes"/>
      <point x="1327" y="386" type="line" smooth="yes"/>
      <point x="1327" y="436"/>
      <point x="1336" y="465"/>
      <point x="1360" y="497" type="curve"/>
      <point x="1386" y="497" type="line"/>
      <point x="1411" y="465"/>
      <point x="1419" y="436"/>
      <point x="1419" y="386" type="curve" smooth="yes"/>
      <point x="1419" y="307" type="line" smooth="yes"/>
      <point x="1419" y="254"/>
      <point x="1406" y="232"/>
    </contour>
    <contour>
      <point x="521" y="1064" type="curve" smooth="yes"/>
      <point x="528" y="1064" type="line" smooth="yes"/>
      <point x="731" y="1064"/>
      <point x="819" y="1125"/>
      <point x="859" y="1207" type="curve" smooth="yes"/>
      <point x="902" y="1294" type="line" smooth="yes"/>
      <point x="929" y="1348"/>
      <point x="954" y="1367"/>
      <point x="1006" y="1367" type="curve" smooth="yes"/>
      <point x="1047" y="1367" type="line"/>
      <point x="1023" y="1625" type="line"/>
      <point x="949" y="1625" type="line" smooth="yes"/>
      <point x="825" y="1625"/>
      <point x="762" y="1572"/>
      <point x="710" y="1463" type="curve" smooth="yes"/>
      <point x="613" y="1260" type="line" smooth="yes"/>
      <point x="585" y="1202"/>
      <point x="573" y="1189"/>
      <point x="550" y="1189" type="curve" smooth="yes"/>
      <point x="548" y="1189" type="line" smooth="yes"/>
      <point x="521" y="1189"/>
      <point x="508" y="1215"/>
      <point x="499" y="1264" type="curve" smooth="yes"/>
      <point x="473" y="1398" type="line"/>
      <point x="175" y="1398" type="line"/>
      <point x="213" y="1270" type="line" smooth="yes"/>
      <point x="270" y="1078"/>
      <point x="367" y="1064"/>
    </contour>
    <contour>
      <point x="1470" y="638" type="line"/>
      <point x="1612" y="675"/>
      <point x="1682" y="771"/>
      <point x="1682" y="907" type="curve" smooth="yes"/>
      <point x="1682" y="911" type="line" smooth="yes"/>
      <point x="1682" y="1076"/>
      <point x="1577" y="1189"/>
      <point x="1365" y="1189" type="curve" smooth="yes"/>
      <point x="1284" y="1189"/>
      <point x="1216" y="1174"/>
      <point x="1152" y="1143" type="curve"/>
      <point x="1121" y="881" type="line"/>
      <point x="1161" y="907"/>
      <point x="1216" y="924"/>
      <point x="1273" y="924" type="curve" smooth="yes"/>
      <point x="1356" y="924"/>
      <point x="1395" y="891"/>
      <point x="1395" y="828" type="curve" smooth="yes"/>
      <point x="1395" y="824" type="line" smooth="yes"/>
      <point x="1395" y="780"/>
      <point x="1374" y="745"/>
      <point x="1338" y="730" type="curve"/>
    </contour>
  </outline>
</glyph>
<glyph name="vowelU.te" format="2">
  <advance width="1336"/>
  <unicode hex="0C09"/>
  <outline>
    <contour>
      <point x="440" y="-24" type="curve" smooth="yes"/>
      <point x="594" y="-24"/>
      <point x="672" y="55"/>
      <point x="683" y="208" type="curve"/>
      <point x="690" y="208" type="line"/>
      <point x="701" y="55"/>
      <point x="780" y="-24"/>
      <point x="937" y="-24" type="curve" smooth="yes"/>
      <point x="1122" y="-24"/>
      <point x="1216" y="92"/>
      <point x="1216" y="357" type="curve" smooth="yes"/>
      <point x="1216" y="375" type="line" smooth="yes"/>
      <point x="1216" y="442"/>
      <point x="1207" y="504"/>
      <point x="1183" y="552" type="curve"/>
      <point x="913" y="552" type="line"/>
      <point x="924" y="512"/>
      <point x="931" y="449"/>
      <point x="931" y="394" type="curve" smooth="yes"/>
      <point x="931" y="375" type="line" smooth="yes"/>
      <point x="931" y="291"/>
      <point x="918" y="263"/>
      <point x="880" y="263" type="curve" smooth="yes"/>
      <point x="842" y="263"/>
      <point x="829" y="291"/>
      <point x="823" y="368" type="curve" smooth="yes"/>
      <point x="814" y="484" type="line"/>
      <point x="559" y="484" type="line"/>
      <point x="550" y="368" type="line" smooth="yes"/>
      <point x="544" y="291"/>
      <point x="532" y="263"/>
      <point x="493" y="263" type="curve" smooth="yes"/>
      <point x="454" y="263"/>
      <point x="442" y="291"/>
      <point x="442" y="375" type="curve" smooth="yes"/>
      <point x="442" y="611" type="line" smooth="yes"/>
      <point x="442" y="835"/>
      <point x="521" y="926"/>
      <point x="718" y="926" type="curve" smooth="yes"/>
      <point x="883" y="926"/>
      <point x="983" y="883"/>
      <point x="1084" y="830" type="curve"/>
      <point x="1069" y="1110" type="line"/>
      <point x="994" y="1150"/>
      <point x="863" y="1194"/>
      <point x="721" y="1194" type="curve" smooth="yes"/>
      <point x="328" y="1194"/>
      <point x="147" y="1012"/>
      <point x="147" y="611" type="curve" smooth="yes"/>
      <point x="147" y="372" type="line" smooth="yes"/>
      <point x="147" y="98"/>
      <point x="247" y="-24"/>
    </contour>
    <contour>
      <point x="37" y="532" type="line"/>
      <point x="1299" y="532" type="line"/>
      <point x="1299" y="767" type="line"/>
      <point x="37" y="767" type="line"/>
    </contour>
    <contour>
      <point x="612" y="1115" type="curve"/>
      <point x="741" y="1115" type="line"/>
      <point x="781" y="1218"/>
      <point x="805" y="1301"/>
      <point x="805" y="1358" type="curve" smooth="yes"/>
      <point x="805" y="1417"/>
      <point x="790" y="1457"/>
      <point x="779" y="1474" type="curve"/>
      <point x="573" y="1474" type="line"/>
      <point x="562" y="1457"/>
      <point x="545" y="1417"/>
      <point x="545" y="1358" type="curve" smooth="yes"/>
      <point x="545" y="1301"/>
      <point x="571" y="1218"/>
    </contour>
  </outline>
</glyph>
<glyph name="vowelUu.te" format="2">
  <advance width="2001"/>
  <unicode hex="0C0A"/>
  <outline>
    <contour>
      <point x="1616" y="-24" type="curve" smooth="yes"/>
      <point x="1836" y="-24"/>
      <point x="1941" y="100"/>
      <point x="1941" y="326" type="curve" smooth="yes"/>
      <point x="1941" y="386" type="line" smooth="yes"/>
      <point x="1941" y="580"/>
      <point x="1855" y="707"/>
      <point x="1691" y="723" type="curve"/>
      <point x="1678" y="740"/>
      <point x="1650" y="767"/>
      <point x="1632" y="767" type="curve" smooth="yes"/>
      <point x="37" y="767" type="line"/>
      <point x="37" y="532" type="line"/>
      <point x="1389" y="532" type="line"/>
      <point x="1319" y="486"/>
      <point x="1294" y="420"/>
      <point x="1294" y="305" type="curve" smooth="yes"/>
      <point x="1294" y="274" type="line" smooth="yes"/>
      <point x="1294" y="80"/>
      <point x="1395" y="-24"/>
    </contour>
    <contour>
      <point x="440" y="-24" type="curve" smooth="yes"/>
      <point x="594" y="-24"/>
      <point x="672" y="55"/>
      <point x="683" y="208" type="curve"/>
      <point x="690" y="208" type="line"/>
      <point x="701" y="55"/>
      <point x="780" y="-24"/>
      <point x="937" y="-24" type="curve" smooth="yes"/>
      <point x="1122" y="-24"/>
      <point x="1216" y="92"/>
      <point x="1216" y="357" type="curve" smooth="yes"/>
      <point x="1216" y="375" type="line" smooth="yes"/>
      <point x="1216" y="442"/>
      <point x="1207" y="504"/>
      <point x="1183" y="552" type="curve"/>
      <point x="913" y="552" type="line"/>
      <point x="924" y="512"/>
      <point x="931" y="449"/>
      <point x="931" y="394" type="curve" smooth="yes"/>
      <point x="931" y="375" type="line" smooth="yes"/>
      <point x="931" y="291"/>
      <point x="918" y="263"/>
      <point x="880" y="263" type="curve" smooth="yes"/>
      <point x="842" y="263"/>
      <point x="829" y="291"/>
      <point x="823" y="368" type="curve" smooth="yes"/>
      <point x="814" y="484" type="line"/>
      <point x="559" y="484" type="line"/>
      <point x="550" y="368" type="line" smooth="yes"/>
      <point x="544" y="291"/>
      <point x="532" y="263"/>
      <point x="493" y="263" type="curve" smooth="yes"/>
      <point x="454" y="263"/>
      <point x="442" y="291"/>
      <point x="442" y="375" type="curve" smooth="yes"/>
      <point x="442" y="611" type="line" smooth="yes"/>
      <point x="442" y="835"/>
      <point x="521" y="926"/>
      <point x="718" y="926" type="curve" smooth="yes"/>
      <point x="883" y="926"/>
      <point x="983" y="883"/>
      <point x="1084" y="830" type="curve"/>
      <point x="1069" y="1110" type="line"/>
      <point x="994" y="1150"/>
      <point x="863" y="1194"/>
      <point x="721" y="1194" type="curve" smooth="yes"/>
      <point x="328" y="1194"/>
      <point x="147" y="1012"/>
      <point x="147" y="611" type="curve" smooth="yes"/>
      <point x="147" y="372" type="line" smooth="yes"/>
      <point x="147" y="98"/>
      <point x="247" y="-24"/>
    </contour>
    <contour>
      <point x="442" y="1115" type="curve"/>
      <point x="571" y="1115" type="line"/>
      <point x="611" y="1218"/>
      <point x="635" y="1301"/>
      <point x="635" y="1358" type="curve" smooth="yes"/>
      <point x="635" y="1417"/>
      <point x="620" y="1457"/>
      <point x="609" y="1474" type="curve"/>
      <point x="403" y="1474" type="line"/>
      <point x="392" y="1457"/>
      <point x="375" y="1417"/>
      <point x="375" y="1358" type="curve" smooth="yes"/>
      <point x="375" y="1301"/>
      <point x="401" y="1218"/>
    </contour>
    <contour>
      <point x="778" y="1115" type="curve"/>
      <point x="907" y="1115" type="line"/>
      <point x="947" y="1218"/>
      <point x="971" y="1301"/>
      <point x="971" y="1358" type="curve" smooth="yes"/>
      <point x="971" y="1417"/>
      <point x="956" y="1457"/>
      <point x="945" y="1474" type="curve"/>
      <point x="739" y="1474" type="line"/>
      <point x="728" y="1457"/>
      <point x="711" y="1417"/>
      <point x="711" y="1358" type="curve" smooth="yes"/>
      <point x="711" y="1301"/>
      <point x="737" y="1218"/>
    </contour>
    <contour>
      <point x="1612" y="232" type="curve" smooth="yes"/>
      <point x="1579" y="232"/>
      <point x="1566" y="254"/>
      <point x="1566" y="307" type="curve" smooth="yes"/>
      <point x="1566" y="412" type="line" smooth="yes"/>
      <point x="1566" y="462"/>
      <point x="1575" y="491"/>
      <point x="1599" y="523" type="curve"/>
      <point x="1625" y="523" type="line"/>
      <point x="1650" y="491"/>
      <point x="1658" y="462"/>
      <point x="1658" y="412" type="curve" smooth="yes"/>
      <point x="1658" y="307" type="line" smooth="yes"/>
      <point x="1658" y="254"/>
      <point x="1645" y="232"/>
    </contour>
    <contour>
      <point x="1710" y="664" type="line"/>
      <point x="1852" y="697"/>
      <point x="1921" y="791"/>
      <point x="1921" y="920" type="curve"/>
      <point x="1921" y="924" type="line"/>
      <point x="1921" y="1082"/>
      <point x="1816" y="1189"/>
      <point x="1604" y="1189" type="curve" smooth="yes"/>
      <point x="1524" y="1189"/>
      <point x="1455" y="1174"/>
      <point x="1391" y="1143" type="curve"/>
      <point x="1360" y="881" type="line"/>
      <point x="1400" y="907"/>
      <point x="1455" y="924"/>
      <point x="1512" y="924" type="curve" smooth="yes"/>
      <point x="1595" y="924"/>
      <point x="1634" y="894"/>
      <point x="1634" y="841" type="curve"/>
      <point x="1634" y="837" type="line"/>
      <point x="1634" y="799"/>
      <point x="1614" y="769"/>
      <point x="1577" y="756" type="curve"/>
    </contour>
  </outline>
</glyph>
<glyph name="vowelVocalicR.te" format="2">
  <advance width="2157"/>
  <unicode hex="0C0B"/>
  <anchor x="596" y="0" name="bottom"/>
  <outline>
    <contour>
      <point x="335" y="-24" type="curve" smooth="yes"/>
      <point x="493" y="-24"/>
      <point x="578" y="55"/>
      <point x="589" y="208" type="curve"/>
      <point x="596" y="208" type="line"/>
      <point x="607" y="55"/>
      <point x="686" y="-24"/>
      <point x="835" y="-24" type="curve" smooth="yes"/>
      <point x="983" y="-24"/>
      <point x="1056" y="63"/>
      <point x="1073" y="219" type="curve"/>
      <point x="1110" y="250"/>
      <point x="1133" y="315"/>
      <point x="1133" y="372" type="curve" smooth="yes"/>
      <point x="1133" y="626" type="line"/>
      <point x="839" y="626" type="line"/>
      <point x="839" y="375" type="line" smooth="yes"/>
      <point x="839" y="291"/>
      <point x="822" y="263"/>
      <point x="786" y="263" type="curve" smooth="yes"/>
      <point x="747" y="263"/>
      <point x="735" y="291"/>
      <point x="729" y="368" type="curve" smooth="yes"/>
      <point x="720" y="484" type="line"/>
      <point x="465" y="484" type="line"/>
      <point x="456" y="368" type="line" smooth="yes"/>
      <point x="450" y="291"/>
      <point x="438" y="263"/>
      <point x="397" y="263" type="curve" smooth="yes"/>
      <point x="359" y="263"/>
      <point x="344" y="291"/>
      <point x="344" y="340" type="curve" smooth="yes"/>
      <point x="344" y="342" type="line" smooth="yes"/>
      <point x="344" y="417"/>
      <point x="360" y="452"/>
      <point x="475" y="550" type="curve" smooth="yes"/>
      <point x="601" y="657"/>
      <point x="653" y="748"/>
      <point x="653" y="889" type="curve" smooth="yes"/>
      <point x="653" y="894" type="line" smooth="yes"/>
      <point x="653" y="1102"/>
      <point x="554" y="1209"/>
      <point x="350" y="1209" type="curve" smooth="yes"/>
      <point x="151" y="1209"/>
      <point x="53" y="1106"/>
      <point x="53" y="905" type="curve" smooth="yes"/>
      <point x="53" y="889" type="line" smooth="yes"/>
      <point x="53" y="822"/>
      <point x="64" y="764"/>
      <point x="81" y="716" type="curve"/>
      <point x="328" y="716" type="line"/>
      <point x="313" y="769"/>
      <point x="309" y="810"/>
      <point x="309" y="887" type="curve" smooth="yes"/>
      <point x="309" y="900" type="line" smooth="yes"/>
      <point x="309" y="949"/>
      <point x="320" y="970"/>
      <point x="350" y="970" type="curve" smooth="yes"/>
      <point x="379" y="970"/>
      <point x="390" y="949"/>
      <point x="390" y="900" type="curve" smooth="yes"/>
      <point x="390" y="887" type="line" smooth="yes"/>
      <point x="390" y="799"/>
      <point x="370" y="776"/>
      <point x="269" y="690" type="curve" smooth="yes"/>
      <point x="121" y="564"/>
      <point x="50" y="481"/>
      <point x="50" y="313" type="curve" smooth="yes"/>
      <point x="50" y="305" type="line" smooth="yes"/>
      <point x="50" y="96"/>
      <point x="145" y="-24"/>
    </contour>
    <component base="matraUVar1.te" xOffset="1096"/>
    <component base="Terminals.te" xOffset="708"/>
  </outline>
</glyph>
<glyph name="vowelVocalicL.te" format="2">
  <advance width="1589"/>
  <unicode hex="0C0C"/>
  <outline>
    <contour>
      <point x="1003" y="-24" type="curve" smooth="yes"/>
      <point x="1352" y="-24"/>
      <point x="1529" y="155"/>
      <point x="1529" y="506" type="curve" smooth="yes"/>
      <point x="1529" y="734" type="line" smooth="yes"/>
      <point x="1529" y="1019"/>
      <point x="1402" y="1189"/>
      <point x="1168" y="1189" type="curve" smooth="yes"/>
      <point x="1159" y="1189" type="line"/>
      <point x="1104" y="916" type="line"/>
      <point x="1109" y="916" type="line" smooth="yes"/>
      <point x="1189" y="916"/>
      <point x="1235" y="861"/>
      <point x="1235" y="732" type="curve" smooth="yes"/>
      <point x="1235" y="512" type="line" smooth="yes"/>
      <point x="1235" y="331"/>
      <point x="1161" y="250"/>
      <point x="1001" y="250" type="curve" smooth="yes"/>
      <point x="868" y="250"/>
      <point x="800" y="293"/>
      <point x="800" y="374" type="curve"/>
      <point x="800" y="377" type="line"/>
      <point x="800" y="430"/>
      <point x="815" y="458"/>
      <point x="954" y="546" type="curve" smooth="yes"/>
      <point x="1090" y="633"/>
      <point x="1143" y="727"/>
      <point x="1143" y="852" type="curve"/>
      <point x="1143" y="856" type="line"/>
      <point x="1143" y="1080"/>
      <point x="1045" y="1209"/>
      <point x="841" y="1209" type="curve" smooth="yes"/>
      <point x="694" y="1209"/>
      <point x="618" y="1137"/>
      <point x="589" y="1027" type="curve"/>
      <point x="581" y="1027" type="line"/>
      <point x="552" y="1137"/>
      <point x="480" y="1209"/>
      <point x="337" y="1209" type="curve" smooth="yes"/>
      <point x="136" y="1209"/>
      <point x="40" y="1082"/>
      <point x="40" y="859" type="curve" smooth="yes"/>
      <point x="40" y="843" type="line" smooth="yes"/>
      <point x="40" y="797"/>
      <point x="46" y="749"/>
      <point x="61" y="703" type="curve"/>
      <point x="338" y="703" type="line"/>
      <point x="331" y="749"/>
      <point x="327" y="784"/>
      <point x="327" y="826" type="curve" smooth="yes"/>
      <point x="327" y="843" type="line" smooth="yes"/>
      <point x="327" y="914"/>
      <point x="349" y="937"/>
      <point x="388" y="937" type="curve" smooth="yes"/>
      <point x="427" y="937"/>
      <point x="447" y="915"/>
      <point x="451" y="846" type="curve" smooth="yes"/>
      <point x="458" y="725" type="line"/>
      <point x="714" y="725" type="line"/>
      <point x="721" y="846" type="line" smooth="yes"/>
      <point x="725" y="915"/>
      <point x="745" y="937"/>
      <point x="786" y="937" type="curve" smooth="yes"/>
      <point x="826" y="937"/>
      <point x="848" y="916"/>
      <point x="848" y="852" type="curve"/>
      <point x="848" y="846" type="line"/>
      <point x="848" y="795"/>
      <point x="817" y="751"/>
      <point x="729" y="697" type="curve" smooth="yes"/>
      <point x="548" y="587"/>
      <point x="506" y="485"/>
      <point x="506" y="364" type="curve" smooth="yes"/>
      <point x="506" y="350" type="line" smooth="yes"/>
      <point x="506" y="105"/>
      <point x="681" y="-24"/>
    </contour>
  </outline>
</glyph>
<glyph name="vowelE.te" format="2">
  <advance width="1199"/>
  <unicode hex="0C0E"/>
  <outline>
    <contour>
      <point x="335" y="-24" type="curve" smooth="yes"/>
      <point x="488" y="-24"/>
      <point x="554" y="55"/>
      <point x="570" y="190" type="curve"/>
      <point x="577" y="190" type="line"/>
      <point x="591" y="55"/>
      <point x="671" y="-24"/>
      <point x="837" y="-24" type="curve" smooth="yes"/>
      <point x="1036" y="-24"/>
      <point x="1139" y="99"/>
      <point x="1139" y="381" type="curve" smooth="yes"/>
      <point x="1139" y="817" type="line" smooth="yes"/>
      <point x="1139" y="1233"/>
      <point x="973" y="1415"/>
      <point x="598" y="1415" type="curve" smooth="yes"/>
      <point x="539" y="1415" type="line"/>
      <point x="484" y="1150" type="line"/>
      <point x="581" y="1150" type="line" smooth="yes"/>
      <point x="769" y="1150"/>
      <point x="845" y="1052"/>
      <point x="845" y="817" type="curve" smooth="yes"/>
      <point x="845" y="386" type="line" smooth="yes"/>
      <point x="845" y="291"/>
      <point x="821" y="259"/>
      <point x="775" y="259" type="curve" smooth="yes"/>
      <point x="727" y="259"/>
      <point x="705" y="291"/>
      <point x="705" y="379" type="curve" smooth="yes"/>
      <point x="705" y="386" type="line" smooth="yes"/>
      <point x="705" y="629"/>
      <point x="593" y="753"/>
      <point x="377" y="753" type="curve" smooth="yes"/>
      <point x="161" y="753"/>
      <point x="50" y="629"/>
      <point x="50" y="385" type="curve" smooth="yes"/>
      <point x="50" y="342" type="line" smooth="yes"/>
      <point x="50" y="112"/>
      <point x="138" y="-24"/>
    </contour>
    <contour>
      <point x="379" y="252" type="curve" smooth="yes"/>
      <point x="340" y="252"/>
      <point x="326" y="282"/>
      <point x="326" y="351" type="curve" smooth="yes"/>
      <point x="326" y="392" type="line" smooth="yes"/>
      <point x="326" y="462"/>
      <point x="340" y="491"/>
      <point x="379" y="491" type="curve" smooth="yes"/>
      <point x="418" y="491"/>
      <point x="432" y="462"/>
      <point x="432" y="392" type="curve" smooth="yes"/>
      <point x="432" y="351" type="line" smooth="yes"/>
      <point x="432" y="282"/>
      <point x="418" y="252"/>
    </contour>
  </outline>
</glyph>
<glyph name="vowelEe.te" format="2">
  <advance width="1199"/>
  <unicode hex="0C0F"/>
  <outline>
    <contour>
      <point x="646" y="1759" type="line"/>
      <point x="673" y="1524" type="line"/>
      <point x="604" y="1524" type="line" smooth="yes"/>
      <point x="434" y="1524"/>
      <point x="357" y="1444"/>
      <point x="357" y="1255" type="curve" smooth="yes"/>
      <point x="357" y="1150" type="line"/>
      <point x="86" y="1150" type="line"/>
      <point x="86" y="1259" type="line" smooth="yes"/>
      <point x="86" y="1604"/>
      <point x="272" y="1759"/>
      <point x="576" y="1759" type="curve" smooth="yes"/>
    </contour>
    <component base="vowelE.te"/>
  </outline>
</glyph>
<glyph name="vowelAi.te" format="2">
  <advance width="1218"/>
  <unicode hex="0C10"/>
  <guideline x="1339" y="1256" angle="90"/>
  <outline>
    <contour>
      <point x="342" y="-24" type="curve" smooth="yes"/>
      <point x="498" y="-24"/>
      <point x="566" y="55"/>
      <point x="583" y="190" type="curve"/>
      <point x="590" y="190" type="line"/>
      <point x="607" y="55"/>
      <point x="686" y="-24"/>
      <point x="853" y="-24" type="curve" smooth="yes"/>
      <point x="1055" y="-24"/>
      <point x="1158" y="96"/>
      <point x="1158" y="383" type="curve" smooth="yes"/>
      <point x="1158" y="854" type="line" smooth="yes"/>
      <point x="1158" y="1082"/>
      <point x="1060" y="1209"/>
      <point x="857" y="1209" type="curve" smooth="yes"/>
      <point x="712" y="1209"/>
      <point x="634" y="1139"/>
      <point x="605" y="1027" type="curve"/>
      <point x="597" y="1027" type="line"/>
      <point x="568" y="1139"/>
      <point x="493" y="1209"/>
      <point x="351" y="1209" type="curve" smooth="yes"/>
      <point x="150" y="1209"/>
      <point x="55" y="1084"/>
      <point x="55" y="857" type="curve" smooth="yes"/>
      <point x="55" y="848" type="line" smooth="yes"/>
      <point x="55" y="802"/>
      <point x="60" y="749"/>
      <point x="75" y="703" type="curve"/>
      <point x="353" y="703" type="line"/>
      <point x="345" y="751"/>
      <point x="342" y="789"/>
      <point x="342" y="832" type="curve" smooth="yes"/>
      <point x="342" y="841" type="line" smooth="yes"/>
      <point x="342" y="914"/>
      <point x="364" y="937"/>
      <point x="402" y="937" type="curve" smooth="yes"/>
      <point x="440" y="937"/>
      <point x="462" y="917"/>
      <point x="467" y="845" type="curve" smooth="yes"/>
      <point x="474" y="749" type="line"/>
      <point x="730" y="749" type="line"/>
      <point x="737" y="845" type="line" smooth="yes"/>
      <point x="742" y="914"/>
      <point x="759" y="937"/>
      <point x="802" y="937" type="curve" smooth="yes"/>
      <point x="842" y="937"/>
      <point x="864" y="913"/>
      <point x="864" y="837" type="curve" smooth="yes"/>
      <point x="864" y="390" type="line" smooth="yes"/>
      <point x="864" y="293"/>
      <point x="840" y="259"/>
      <point x="791" y="259" type="curve" smooth="yes"/>
      <point x="741" y="259"/>
      <point x="717" y="293"/>
      <point x="717" y="385" type="curve" smooth="yes"/>
      <point x="717" y="396" type="line" smooth="yes"/>
      <point x="717" y="611"/>
      <point x="607" y="721"/>
      <point x="388" y="721" type="curve" smooth="yes"/>
      <point x="165" y="721"/>
      <point x="55" y="600"/>
      <point x="55" y="359" type="curve" smooth="yes"/>
      <point x="55" y="339" type="line" smooth="yes"/>
      <point x="55" y="98"/>
      <point x="150" y="-24"/>
    </contour>
    <contour>
      <point x="388" y="252" type="curve" smooth="yes"/>
      <point x="345" y="252"/>
      <point x="331" y="282"/>
      <point x="331" y="346" type="curve" smooth="yes"/>
      <point x="331" y="366" type="line" smooth="yes"/>
      <point x="331" y="431"/>
      <point x="345" y="460"/>
      <point x="388" y="460" type="curve" smooth="yes"/>
      <point x="430" y="460"/>
      <point x="445" y="431"/>
      <point x="445" y="366" type="curve" smooth="yes"/>
      <point x="445" y="346" type="line" smooth="yes"/>
      <point x="445" y="282"/>
      <point x="430" y="252"/>
    </contour>
  </outline>
</glyph>
<glyph name="vowelOo.te" format="2">
  <advance width="1174"/>
  <unicode hex="0C13"/>
  <outline>
    <contour>
      <point x="640" y="1246" type="curve"/>
      <point x="620" y="1496" type="line"/>
      <point x="552" y="1531"/>
      <point x="482" y="1553"/>
      <point x="383" y="1553" type="curve" smooth="yes"/>
      <point x="201" y="1553"/>
      <point x="101" y="1479"/>
      <point x="101" y="1334" type="curve" smooth="yes"/>
      <point x="101" y="1225"/>
      <point x="173" y="1157"/>
      <point x="316" y="1128" type="curve"/>
      <point x="394" y="1200" type="line"/>
      <point x="353" y="1200"/>
      <point x="339" y="1222"/>
      <point x="339" y="1253" type="curve" smooth="yes"/>
      <point x="339" y="1290"/>
      <point x="362" y="1312"/>
      <point x="423" y="1312" type="curve" smooth="yes"/>
      <point x="508" y="1312"/>
      <point x="585" y="1284"/>
    </contour>
    <component base="vowelO.te"/>
  </outline>
</glyph>
<glyph name="vowelAu.te" format="2">
  <advance width="1307"/>
  <unicode hex="0C14"/>
  <outline>
    <contour>
      <point x="335" y="-24" type="curve" smooth="yes"/>
      <point x="493" y="-24"/>
      <point x="578" y="55"/>
      <point x="589" y="208" type="curve"/>
      <point x="596" y="208" type="line"/>
      <point x="607" y="55"/>
      <point x="688" y="-24"/>
      <point x="848" y="-24" type="curve" smooth="yes"/>
      <point x="1030" y="-24"/>
      <point x="1124" y="92"/>
      <point x="1124" y="357" type="curve" smooth="yes"/>
      <point x="1124" y="372" type="line" smooth="yes"/>
      <point x="1124" y="451"/>
      <point x="1111" y="526"/>
      <point x="1080" y="587" type="curve"/>
      <point x="808" y="587" type="line"/>
      <point x="828" y="537"/>
      <point x="839" y="458"/>
      <point x="839" y="390" type="curve" smooth="yes"/>
      <point x="839" y="375" type="line" smooth="yes"/>
      <point x="839" y="291"/>
      <point x="822" y="263"/>
      <point x="786" y="263" type="curve" smooth="yes"/>
      <point x="747" y="263"/>
      <point x="735" y="291"/>
      <point x="729" y="368" type="curve" smooth="yes"/>
      <point x="720" y="484" type="line"/>
      <point x="465" y="484" type="line"/>
      <point x="456" y="368" type="line" smooth="yes"/>
      <point x="450" y="291"/>
      <point x="438" y="263"/>
      <point x="397" y="263" type="curve" smooth="yes"/>
      <point x="359" y="263"/>
      <point x="344" y="291"/>
      <point x="344" y="340" type="curve"/>
      <point x="344" y="342" type="line"/>
      <point x="344" y="427"/>
      <point x="374" y="464"/>
      <point x="475" y="550" type="curve" smooth="yes"/>
      <point x="601" y="657"/>
      <point x="653" y="748"/>
      <point x="653" y="889" type="curve" smooth="yes"/>
      <point x="653" y="894" type="line" smooth="yes"/>
      <point x="653" y="1102"/>
      <point x="554" y="1209"/>
      <point x="350" y="1209" type="curve" smooth="yes"/>
      <point x="151" y="1209"/>
      <point x="53" y="1106"/>
      <point x="53" y="905" type="curve" smooth="yes"/>
      <point x="53" y="889" type="line" smooth="yes"/>
      <point x="53" y="822"/>
      <point x="64" y="764"/>
      <point x="81" y="716" type="curve"/>
      <point x="328" y="716" type="line"/>
      <point x="313" y="769"/>
      <point x="309" y="810"/>
      <point x="309" y="887" type="curve" smooth="yes"/>
      <point x="309" y="900" type="line" smooth="yes"/>
      <point x="309" y="949"/>
      <point x="320" y="970"/>
      <point x="350" y="970" type="curve" smooth="yes"/>
      <point x="379" y="970"/>
      <point x="390" y="949"/>
      <point x="390" y="900" type="curve" smooth="yes"/>
      <point x="390" y="887" type="line" smooth="yes"/>
      <point x="390" y="799"/>
      <point x="370" y="776"/>
      <point x="269" y="690" type="curve" smooth="yes"/>
      <point x="121" y="564"/>
      <point x="50" y="481"/>
      <point x="50" y="313" type="curve" smooth="yes"/>
      <point x="50" y="305" type="line" smooth="yes"/>
      <point x="50" y="96"/>
      <point x="145" y="-24"/>
    </contour>
    <contour>
      <point x="397" y="1086" type="line"/>
      <point x="541" y="1086"/>
      <point x="638" y="1133"/>
      <point x="638" y="1248" type="curve" smooth="yes"/>
      <point x="638" y="1371"/>
      <point x="545" y="1420"/>
      <point x="397" y="1420" type="curve" smooth="yes"/>
      <point x="234" y="1420" type="line"/>
      <point x="234" y="1312" type="line"/>
      <point x="350" y="1312" type="line" smooth="yes"/>
      <point x="377" y="1312"/>
      <point x="392" y="1294"/>
      <point x="392" y="1260" type="curve" smooth="yes"/>
      <point x="392" y="1227"/>
      <point x="379" y="1209"/>
      <point x="350" y="1209" type="curve"/>
    </contour>
    <contour>
      <point x="994" y="646" type="curve" smooth="yes"/>
      <point x="1189" y="646"/>
      <point x="1282" y="753"/>
      <point x="1282" y="970" type="curve" smooth="yes"/>
      <point x="1282" y="1082" type="line" smooth="yes"/>
      <point x="1282" y="1387"/>
      <point x="1130" y="1546"/>
      <point x="835" y="1546" type="curve" smooth="yes"/>
      <point x="147" y="1546" type="line"/>
      <point x="92" y="1312" type="line"/>
      <point x="550" y="1312" type="line"/>
      <point x="561" y="1317" type="line"/>
      <point x="696" y="1312" type="line"/>
      <point x="826" y="1312" type="line" smooth="yes"/>
      <point x="964" y="1312"/>
      <point x="1036" y="1255"/>
      <point x="1036" y="1139" type="curve" smooth="yes"/>
      <point x="1036" y="1105" type="line"/>
      <point x="1010" y="1105" type="line"/>
      <point x="1034" y="999" type="line"/>
      <point x="1034" y="935" type="line" smooth="yes"/>
      <point x="1034" y="887"/>
      <point x="1021" y="868"/>
      <point x="994" y="868" type="curve" smooth="yes"/>
      <point x="966" y="868"/>
      <point x="953" y="887"/>
      <point x="953" y="935" type="curve" smooth="yes"/>
      <point x="953" y="966" type="line" smooth="yes"/>
      <point x="953" y="1006"/>
      <point x="962" y="1029"/>
      <point x="992" y="1029" type="curve" smooth="yes"/>
      <point x="1016" y="1029"/>
      <point x="1034" y="1010"/>
      <point x="1036" y="984" type="curve"/>
      <point x="1029" y="1105" type="line"/>
      <point x="1016" y="1189"/>
      <point x="970" y="1238"/>
      <point x="889" y="1238" type="curve" smooth="yes"/>
      <point x="769" y="1238"/>
      <point x="712" y="1156"/>
      <point x="712" y="988" type="curve" smooth="yes"/>
      <point x="712" y="942" type="line" smooth="yes"/>
      <point x="712" y="742"/>
      <point x="800" y="646"/>
    </contour>
  </outline>
</glyph>
<glyph name="Ca.te" format="2">
  <advance width="1230"/>
  <unicode hex="0C1A"/>
  <anchor x="632" y="-39" name="bottom"/>
  <outline>
    <contour>
      <point x="384" y="-24" type="curve" smooth="yes"/>
      <point x="539" y="-24"/>
      <point x="616" y="55"/>
      <point x="627" y="208" type="curve"/>
      <point x="634" y="208" type="line"/>
      <point x="645" y="55"/>
      <point x="723" y="-24"/>
      <point x="877" y="-24" type="curve" smooth="yes"/>
      <point x="1070" y="-24"/>
      <point x="1170" y="98"/>
      <point x="1170" y="372" type="curve" smooth="yes"/>
      <point x="1170" y="620" type="line" smooth="yes"/>
      <point x="1170" y="1010"/>
      <point x="1004" y="1181"/>
      <point x="631" y="1181" type="curve"/>
      <point x="568" y="1069" type="line"/>
      <point x="603" y="935" type="line"/>
      <point x="631" y="935" type="line" smooth="yes"/>
      <point x="805" y="935"/>
      <point x="875" y="843"/>
      <point x="875" y="620" type="curve" smooth="yes"/>
      <point x="875" y="375" type="line" smooth="yes"/>
      <point x="875" y="291"/>
      <point x="862" y="263"/>
      <point x="824" y="263" type="curve" smooth="yes"/>
      <point x="785" y="263"/>
      <point x="773" y="291"/>
      <point x="767" y="368" type="curve" smooth="yes"/>
      <point x="757" y="502" type="line"/>
      <point x="504" y="502" type="line"/>
      <point x="494" y="368" type="line" smooth="yes"/>
      <point x="488" y="291"/>
      <point x="477" y="263"/>
      <point x="435" y="263" type="curve" smooth="yes"/>
      <point x="397" y="263"/>
      <point x="382" y="291"/>
      <point x="382" y="375" type="curve" smooth="yes"/>
      <point x="382" y="416" type="line" smooth="yes"/>
      <point x="382" y="515"/>
      <point x="404" y="556"/>
      <point x="447" y="580" type="curve"/>
      <point x="500" y="585" type="line"/>
      <point x="500" y="815" type="line"/>
      <point x="40" y="839" type="line"/>
      <point x="40" y="570" type="line"/>
      <point x="231" y="581" type="line"/>
      <point x="233" y="576" type="line"/>
      <point x="137" y="543"/>
      <point x="91" y="464"/>
      <point x="91" y="348" type="curve" smooth="yes"/>
      <point x="91" y="316" type="line" smooth="yes"/>
      <point x="91" y="81"/>
      <point x="191" y="-24"/>
    </contour>
    <contour>
      <point x="603" y="935" type="curve"/>
      <point x="636" y="1086" type="line"/>
      <point x="816" y="1086"/>
      <point x="891" y="1128"/>
      <point x="943" y="1225" type="curve" smooth="yes"/>
      <point x="980" y="1294" type="line" smooth="yes"/>
      <point x="1008" y="1346"/>
      <point x="1042" y="1367"/>
      <point x="1092" y="1367" type="curve" smooth="yes"/>
      <point x="1159" y="1367" type="line"/>
      <point x="1140" y="1625" type="line"/>
      <point x="1046" y="1625" type="line" smooth="yes"/>
      <point x="920" y="1625"/>
      <point x="851" y="1579"/>
      <point x="787" y="1463" type="curve" smooth="yes"/>
      <point x="675" y="1259" type="line" smooth="yes"/>
      <point x="646" y="1206"/>
      <point x="631" y="1189"/>
      <point x="603" y="1189" type="curve"/>
      <point x="601" y="1189" type="line"/>
      <point x="568" y="1189"/>
      <point x="555" y="1209"/>
      <point x="544" y="1264" type="curve" smooth="yes"/>
      <point x="518" y="1398" type="line"/>
      <point x="220" y="1398" type="line"/>
      <point x="255" y="1270" type="line" smooth="yes"/>
      <point x="318" y="1038"/>
      <point x="384" y="935"/>
    </contour>
  </outline>
</glyph>
<glyph name="Ja.te" format="2">
  <advance width="1174"/>
  <unicode hex="0C1C"/>
  <anchor x="591" y="-39" name="bottom"/>
  <outline>
    <contour>
      <point x="335" y="-24" type="curve" smooth="yes"/>
      <point x="493" y="-24"/>
      <point x="578" y="55"/>
      <point x="589" y="208" type="curve"/>
      <point x="596" y="208" type="line"/>
      <point x="607" y="55"/>
      <point x="688" y="-24"/>
      <point x="848" y="-24" type="curve" smooth="yes"/>
      <point x="1030" y="-24"/>
      <point x="1124" y="92"/>
      <point x="1124" y="357" type="curve" smooth="yes"/>
      <point x="1124" y="372" type="line" smooth="yes"/>
      <point x="1124" y="451"/>
      <point x="1111" y="526"/>
      <point x="1080" y="587" type="curve"/>
      <point x="808" y="587" type="line"/>
      <point x="828" y="537"/>
      <point x="839" y="458"/>
      <point x="839" y="390" type="curve" smooth="yes"/>
      <point x="839" y="375" type="line" smooth="yes"/>
      <point x="839" y="291"/>
      <point x="822" y="263"/>
      <point x="786" y="263" type="curve" smooth="yes"/>
      <point x="747" y="263"/>
      <point x="735" y="291"/>
      <point x="729" y="368" type="curve" smooth="yes"/>
      <point x="720" y="484" type="line"/>
      <point x="465" y="484" type="line"/>
      <point x="456" y="368" type="line" smooth="yes"/>
      <point x="450" y="291"/>
      <point x="438" y="263"/>
      <point x="397" y="263" type="curve" smooth="yes"/>
      <point x="359" y="263"/>
      <point x="344" y="291"/>
      <point x="344" y="340" type="curve"/>
      <point x="344" y="342" type="line"/>
      <point x="344" y="427"/>
      <point x="374" y="464"/>
      <point x="475" y="550" type="curve" smooth="yes"/>
      <point x="601" y="657"/>
      <point x="653" y="748"/>
      <point x="653" y="889" type="curve" smooth="yes"/>
      <point x="653" y="894" type="line" smooth="yes"/>
      <point x="653" y="1102"/>
      <point x="554" y="1209"/>
      <point x="350" y="1209" type="curve" smooth="yes"/>
      <point x="151" y="1209"/>
      <point x="53" y="1106"/>
      <point x="53" y="905" type="curve" smooth="yes"/>
      <point x="53" y="889" type="line" smooth="yes"/>
      <point x="53" y="822"/>
      <point x="64" y="764"/>
      <point x="81" y="716" type="curve"/>
      <point x="328" y="716" type="line"/>
      <point x="313" y="769"/>
      <point x="309" y="810"/>
      <point x="309" y="887" type="curve" smooth="yes"/>
      <point x="309" y="900" type="line" smooth="yes"/>
      <point x="309" y="949"/>
      <point x="320" y="970"/>
      <point x="350" y="970" type="curve" smooth="yes"/>
      <point x="379" y="970"/>
      <point x="390" y="949"/>
      <point x="390" y="900" type="curve" smooth="yes"/>
      <point x="390" y="887" type="line" smooth="yes"/>
      <point x="390" y="799"/>
      <point x="370" y="776"/>
      <point x="269" y="690" type="curve" smooth="yes"/>
      <point x="121" y="564"/>
      <point x="50" y="481"/>
      <point x="50" y="313" type="curve" smooth="yes"/>
      <point x="50" y="305" type="line" smooth="yes"/>
      <point x="50" y="96"/>
      <point x="145" y="-24"/>
    </contour>
    <contour>
      <point x="795" y="657" type="curve" smooth="yes"/>
      <point x="995" y="657"/>
      <point x="1082" y="786"/>
      <point x="1082" y="981" type="curve" smooth="yes"/>
      <point x="1082" y="990" type="line" smooth="yes"/>
      <point x="1082" y="1062"/>
      <point x="1069" y="1133"/>
      <point x="1040" y="1189" type="curve"/>
      <point x="771" y="1189" type="line"/>
      <point x="789" y="1144"/>
      <point x="800" y="1071"/>
      <point x="800" y="1008" type="curve" smooth="yes"/>
      <point x="800" y="1005" type="line" smooth="yes"/>
      <point x="800" y="926"/>
      <point x="775" y="896"/>
      <point x="725" y="896" type="curve" smooth="yes"/>
      <point x="683" y="896"/>
      <point x="657" y="916"/>
      <point x="648" y="968" type="curve"/>
      <point x="521" y="889" type="line"/>
      <point x="545" y="734"/>
      <point x="642" y="657"/>
    </contour>
  </outline>
</glyph>
<glyph name="Jha.te" format="2">
  <advance width="1908"/>
  <unicode hex="0C1D"/>
  <anchor x="954" y="-222" name="bottom"/>
  <outline>
    <contour>
      <point x="472" y="-24" type="curve" smooth="yes"/>
      <point x="674" y="-24"/>
      <point x="785" y="61"/>
      <point x="825" y="219" type="curve" smooth="yes"/>
      <point x="842" y="287"/>
      <point x="884" y="372"/>
      <point x="884" y="460" type="curve" smooth="yes"/>
      <point x="884" y="747" type="line" smooth="yes"/>
      <point x="884" y="1041"/>
      <point x="750" y="1181"/>
      <point x="472" y="1181" type="curve" smooth="yes"/>
      <point x="194" y="1181"/>
      <point x="60" y="1041"/>
      <point x="60" y="747" type="curve" smooth="yes"/>
      <point x="60" y="447" type="line" smooth="yes"/>
      <point x="60" y="132"/>
      <point x="198" y="-24"/>
    </contour>
    <contour>
      <point x="472" y="259" type="curve" smooth="yes"/>
      <point x="389" y="259"/>
      <point x="354" y="315"/>
      <point x="354" y="445" type="curve" smooth="yes"/>
      <point x="354" y="740" type="line" smooth="yes"/>
      <point x="354" y="870"/>
      <point x="389" y="926"/>
      <point x="472" y="926" type="curve" smooth="yes"/>
      <point x="555" y="926"/>
      <point x="590" y="870"/>
      <point x="590" y="740" type="curve" smooth="yes"/>
      <point x="590" y="445" type="line" smooth="yes"/>
      <point x="590" y="315"/>
      <point x="555" y="259"/>
    </contour>
    <contour>
      <point x="1053" y="-24" type="curve" smooth="yes"/>
      <point x="1214" y="-24"/>
      <point x="1291" y="70"/>
      <point x="1304" y="223" type="curve"/>
      <point x="1337" y="259"/>
      <point x="1366" y="304"/>
      <point x="1366" y="370" type="curve" smooth="yes"/>
      <point x="1366" y="642" type="line"/>
      <point x="1072" y="642" type="line"/>
      <point x="1072" y="403" type="line" smooth="yes"/>
      <point x="1072" y="302"/>
      <point x="1044" y="259"/>
      <point x="978" y="259" type="curve" smooth="yes"/>
      <point x="912" y="259"/>
      <point x="884" y="302"/>
      <point x="884" y="403" type="curve" smooth="yes"/>
      <point x="884" y="478" type="line"/>
      <point x="811" y="478" type="line"/>
      <point x="811" y="223" type="line" smooth="yes"/>
      <point x="811" y="68"/>
      <point x="899" y="-24"/>
    </contour>
    <contour>
      <point x="435" y="1064" type="curve" smooth="yes"/>
      <point x="443" y="1064" type="line" smooth="yes"/>
      <point x="629" y="1064"/>
      <point x="730" y="1115"/>
      <point x="774" y="1207" type="curve" smooth="yes"/>
      <point x="816" y="1294" type="line" smooth="yes"/>
      <point x="842" y="1347"/>
      <point x="868" y="1367"/>
      <point x="921" y="1367" type="curve" smooth="yes"/>
      <point x="961" y="1367" type="line"/>
      <point x="938" y="1625" type="line"/>
      <point x="864" y="1625" type="line" smooth="yes"/>
      <point x="743" y="1625"/>
      <point x="679" y="1575"/>
      <point x="625" y="1463" type="curve" smooth="yes"/>
      <point x="527" y="1260" type="line" smooth="yes"/>
      <point x="501" y="1207"/>
      <point x="489" y="1189"/>
      <point x="465" y="1189" type="curve" smooth="yes"/>
      <point x="463" y="1189" type="line" smooth="yes"/>
      <point x="435" y="1189"/>
      <point x="422" y="1215"/>
      <point x="413" y="1264" type="curve" smooth="yes"/>
      <point x="387" y="1398" type="line"/>
      <point x="89" y="1398" type="line"/>
      <point x="128" y="1270" type="line" smooth="yes"/>
      <point x="184" y="1085"/>
      <point x="270" y="1064"/>
    </contour>
    <component base="kombu_1" xOffset="1295" yOffset="37"/>
    <component base="matraU.te" xOffset="1357"/>
    <component base="Terminals.te" xOffset="941"/>
  </outline>
</glyph>
<glyph name="Nya.te" format="2">
  <advance width="1623"/>
  <unicode hex="0C1E"/>
  <anchor x="596" y="-39" name="bottom"/>
  <outline>
    <contour>
      <point x="1286" y="830" type="curve"/>
      <point x="1435" y="830" type="line"/>
      <point x="1476" y="933"/>
      <point x="1500" y="1016"/>
      <point x="1500" y="1073" type="curve" smooth="yes"/>
      <point x="1500" y="1132"/>
      <point x="1485" y="1172"/>
      <point x="1474" y="1189" type="curve"/>
      <point x="1248" y="1189" type="line"/>
      <point x="1236" y="1172"/>
      <point x="1220" y="1132"/>
      <point x="1220" y="1073" type="curve" smooth="yes"/>
      <point x="1220" y="1016"/>
      <point x="1246" y="933"/>
    </contour>
    <contour>
      <point x="1054" y="609" type="line"/>
      <point x="1573" y="609" type="line"/>
      <point x="1573" y="843" type="line"/>
      <point x="1054" y="843" type="line"/>
    </contour>
    <component base="vowelI.te"/>
  </outline>
</glyph>
<glyph name="Ttha.te" format="2">
  <advance width="963"/>
  <unicode hex="0C20"/>
  <guideline x="885" y="1828" angle="90"/>
  <anchor x="481" y="-39" name="bottom"/>
  <outline>
    <contour>
      <point x="481" y="-26" type="curve" smooth="yes"/>
      <point x="760" y="-26"/>
      <point x="903" y="134"/>
      <point x="903" y="454" type="curve" smooth="yes"/>
      <point x="903" y="738" type="line" smooth="yes"/>
      <point x="903" y="1034"/>
      <point x="761" y="1181"/>
      <point x="481" y="1181" type="curve" smooth="yes"/>
      <point x="202" y="1181"/>
      <point x="60" y="1034"/>
      <point x="60" y="738" type="curve" smooth="yes"/>
      <point x="60" y="454" type="line" smooth="yes"/>
      <point x="60" y="134"/>
      <point x="202" y="-26"/>
    </contour>
    <contour>
      <point x="481" y="254" type="curve" smooth="yes"/>
      <point x="378" y="254"/>
      <point x="336" y="316"/>
      <point x="336" y="467" type="curve" smooth="yes"/>
      <point x="336" y="714" type="line" smooth="yes"/>
      <point x="336" y="865"/>
      <point x="378" y="927"/>
      <point x="481" y="927" type="curve" smooth="yes"/>
      <point x="584" y="927"/>
      <point x="627" y="865"/>
      <point x="627" y="714" type="curve" smooth="yes"/>
      <point x="627" y="467" type="line" smooth="yes"/>
      <point x="627" y="316"/>
      <point x="584" y="254"/>
    </contour>
    <contour>
      <point x="444" y="1064" type="curve" smooth="yes"/>
      <point x="452" y="1064" type="line" smooth="yes"/>
      <point x="639" y="1064"/>
      <point x="739" y="1115"/>
      <point x="783" y="1207" type="curve" smooth="yes"/>
      <point x="825" y="1294" type="line" smooth="yes"/>
      <point x="851" y="1347"/>
      <point x="877" y="1367"/>
      <point x="930" y="1367" type="curve" smooth="yes"/>
      <point x="972" y="1367" type="line"/>
      <point x="948" y="1625" type="line"/>
      <point x="873" y="1625" type="line" smooth="yes"/>
      <point x="752" y="1625"/>
      <point x="688" y="1575"/>
      <point x="634" y="1463" type="curve" smooth="yes"/>
      <point x="536" y="1260" type="line" smooth="yes"/>
      <point x="508" y="1202"/>
      <point x="496" y="1189"/>
      <point x="474" y="1189" type="curve" smooth="yes"/>
      <point x="472" y="1189" type="line" smooth="yes"/>
      <point x="442" y="1189"/>
      <point x="431" y="1217"/>
      <point x="422" y="1264" type="curve" smooth="yes"/>
      <point x="397" y="1398" type="line"/>
      <point x="99" y="1398" type="line"/>
      <point x="137" y="1270" type="line" smooth="yes"/>
      <point x="194" y="1077"/>
      <point x="292" y="1064"/>
    </contour>
    <component base="chukka" xOffset="481" yOffset="-134"/>
  </outline>
</glyph>
<glyph name="Nna.te" format="2">
  <advance width="1287"/>
  <unicode hex="0C23"/>
  <anchor x="635" y="-39" name="bottom"/>
  <outline>
    <contour>
      <point x="896" y="-26" type="curve" smooth="yes"/>
      <point x="1117" y="-26"/>
      <point x="1227" y="96"/>
      <point x="1227" y="342" type="curve" smooth="yes"/>
      <point x="1227" y="841" type="line" smooth="yes"/>
      <point x="1227" y="1086"/>
      <point x="1129" y="1209"/>
      <point x="914" y="1209" type="curve" smooth="yes"/>
      <point x="752" y="1209"/>
      <point x="682" y="1139"/>
      <point x="649" y="1023" type="curve"/>
      <point x="642" y="1023" type="line"/>
      <point x="609" y="1139"/>
      <point x="537" y="1209"/>
      <point x="375" y="1209" type="curve" smooth="yes"/>
      <point x="155" y="1209"/>
      <point x="55" y="1093"/>
      <point x="55" y="859" type="curve" smooth="yes"/>
      <point x="55" y="848" type="line" smooth="yes"/>
      <point x="55" y="672"/>
      <point x="121" y="596"/>
      <point x="248" y="578" type="curve"/>
      <point x="248" y="570" type="line"/>
      <point x="121" y="552"/>
      <point x="55" y="480"/>
      <point x="55" y="294" type="curve" smooth="yes"/>
      <point x="55" y="283" type="line" smooth="yes"/>
      <point x="55" y="77"/>
      <point x="149" y="-24"/>
      <point x="364" y="-24" type="curve" smooth="yes"/>
      <point x="412" y="-24"/>
      <point x="467" y="-18"/>
      <point x="509" y="-6" type="curve"/>
      <point x="528" y="274" type="line"/>
      <point x="496" y="263"/>
      <point x="471" y="259"/>
      <point x="441" y="259" type="curve" smooth="yes"/>
      <point x="381" y="259"/>
      <point x="349" y="287"/>
      <point x="349" y="350" type="curve" smooth="yes"/>
      <point x="349" y="353" type="line" smooth="yes"/>
      <point x="349" y="420"/>
      <point x="371" y="450"/>
      <point x="429" y="453" type="curve" smooth="yes"/>
      <point x="491" y="456" type="line"/>
      <point x="491" y="694" type="line"/>
      <point x="429" y="697" type="line" smooth="yes"/>
      <point x="371" y="700"/>
      <point x="349" y="743"/>
      <point x="349" y="808" type="curve" smooth="yes"/>
      <point x="349" y="824" type="line" smooth="yes"/>
      <point x="349" y="902"/>
      <point x="375" y="937"/>
      <point x="430" y="937" type="curve" smooth="yes"/>
      <point x="485" y="937"/>
      <point x="506" y="906"/>
      <point x="512" y="841" type="curve" smooth="yes"/>
      <point x="519" y="760" type="line"/>
      <point x="773" y="760" type="line"/>
      <point x="780" y="841" type="line" smooth="yes"/>
      <point x="786" y="907"/>
      <point x="807" y="937"/>
      <point x="862" y="937" type="curve" smooth="yes"/>
      <point x="918" y="937"/>
      <point x="943" y="902"/>
      <point x="943" y="821" type="curve" smooth="yes"/>
      <point x="943" y="541" type="line"/>
      <point x="914" y="541" type="line"/>
      <point x="943" y="403" type="line"/>
      <point x="943" y="309" type="line" smooth="yes"/>
      <point x="943" y="254"/>
      <point x="932" y="232"/>
      <point x="898" y="232" type="curve" smooth="yes"/>
      <point x="863" y="232"/>
      <point x="850" y="254"/>
      <point x="850" y="309" type="curve" smooth="yes"/>
      <point x="850" y="362" type="line" smooth="yes"/>
      <point x="850" y="412"/>
      <point x="861" y="436"/>
      <point x="896" y="436" type="curve" smooth="yes"/>
      <point x="926" y="436"/>
      <point x="943" y="416"/>
      <point x="947" y="383" type="curve"/>
      <point x="936" y="539" type="line"/>
      <point x="923" y="618"/>
      <point x="869" y="666"/>
      <point x="776" y="666" type="curve" smooth="yes"/>
      <point x="638" y="666"/>
      <point x="574" y="576"/>
      <point x="574" y="394" type="curve" smooth="yes"/>
      <point x="574" y="300" type="line" smooth="yes"/>
      <point x="574" y="79"/>
      <point x="675" y="-26"/>
    </contour>
  </outline>
</glyph>
<glyph name="Da.te" format="2">
  <advance width="1199"/>
  <unicode hex="0C26"/>
  <anchor x="599" y="-39" name="bottom"/>
  <outline>
    <contour>
      <point x="352" y="-24" type="curve" smooth="yes"/>
      <point x="508" y="-24"/>
      <point x="585" y="55"/>
      <point x="596" y="208" type="curve"/>
      <point x="603" y="208" type="line"/>
      <point x="614" y="55"/>
      <point x="691" y="-24"/>
      <point x="847" y="-24" type="curve" smooth="yes"/>
      <point x="1040" y="-24"/>
      <point x="1139" y="98"/>
      <point x="1139" y="372" type="curve" smooth="yes"/>
      <point x="1139" y="620" type="line" smooth="yes"/>
      <point x="1139" y="1005"/>
      <point x="968" y="1181"/>
      <point x="599" y="1181" type="curve" smooth="yes"/>
      <point x="229" y="1181"/>
      <point x="60" y="1005"/>
      <point x="60" y="620" type="curve" smooth="yes"/>
      <point x="60" y="372" type="line" smooth="yes"/>
      <point x="60" y="98"/>
      <point x="159" y="-24"/>
    </contour>
    <contour>
      <point x="406" y="263" type="curve" smooth="yes"/>
      <point x="367" y="263"/>
      <point x="354" y="291"/>
      <point x="354" y="375" type="curve" smooth="yes"/>
      <point x="354" y="613" type="line" smooth="yes"/>
      <point x="354" y="834"/>
      <point x="424" y="926"/>
      <point x="599" y="926" type="curve" smooth="yes"/>
      <point x="775" y="926"/>
      <point x="845" y="834"/>
      <point x="845" y="613" type="curve" smooth="yes"/>
      <point x="845" y="375" type="line" smooth="yes"/>
      <point x="845" y="291"/>
      <point x="832" y="263"/>
      <point x="793" y="263" type="curve" smooth="yes"/>
      <point x="755" y="263"/>
      <point x="741" y="291"/>
      <point x="736" y="368" type="curve" smooth="yes"/>
      <point x="727" y="502" type="line"/>
      <point x="472" y="502" type="line"/>
      <point x="463" y="368" type="line" smooth="yes"/>
      <point x="458" y="289"/>
      <point x="443" y="263"/>
    </contour>
    <contour>
      <point x="562" y="1064" type="curve" smooth="yes"/>
      <point x="570" y="1064" type="line" smooth="yes"/>
      <point x="786" y="1064"/>
      <point x="873" y="1124"/>
      <point x="919" y="1207" type="curve" smooth="yes"/>
      <point x="967" y="1294" type="line" smooth="yes"/>
      <point x="996" y="1347"/>
      <point x="1023" y="1367"/>
      <point x="1079" y="1367" type="curve" smooth="yes"/>
      <point x="1145" y="1367" type="line"/>
      <point x="1127" y="1625" type="line"/>
      <point x="1033" y="1625" type="line" smooth="yes"/>
      <point x="907" y="1625"/>
      <point x="838" y="1579"/>
      <point x="774" y="1463" type="curve" smooth="yes"/>
      <point x="662" y="1259" type="line" smooth="yes"/>
      <point x="632" y="1204"/>
      <point x="616" y="1189"/>
      <point x="590" y="1189" type="curve"/>
      <point x="588" y="1189" type="line"/>
      <point x="555" y="1189"/>
      <point x="542" y="1209"/>
      <point x="531" y="1264" type="curve" smooth="yes"/>
      <point x="505" y="1398" type="line"/>
      <point x="207" y="1398" type="line"/>
      <point x="246" y="1270" type="line" smooth="yes"/>
      <point x="304" y="1079"/>
      <point x="403" y="1064"/>
    </contour>
  </outline>
</glyph>
<glyph name="Na.te" format="2">
  <advance width="1199"/>
  <unicode hex="0C28"/>
  <anchor x="550" y="-39" name="bottom"/>
  <outline>
    <contour>
      <point x="802" y="-24" type="curve" smooth="yes"/>
      <point x="1025" y="-24"/>
      <point x="1139" y="99"/>
      <point x="1139" y="381" type="curve" smooth="yes"/>
      <point x="1139" y="602" type="line" smooth="yes"/>
      <point x="1139" y="1005"/>
      <point x="977" y="1181"/>
      <point x="609" y="1181" type="curve" smooth="yes"/>
      <point x="482" y="1181" type="line"/>
      <point x="432" y="1104" type="line"/>
      <point x="462" y="935" type="line"/>
      <point x="581" y="935" type="line" smooth="yes"/>
      <point x="769" y="935"/>
      <point x="845" y="837"/>
      <point x="845" y="602" type="curve" smooth="yes"/>
      <point x="845" y="372" type="line" smooth="yes"/>
      <point x="845" y="293"/>
      <point x="830" y="259"/>
      <point x="793" y="259" type="curve" smooth="yes"/>
      <point x="756" y="259"/>
      <point x="743" y="285"/>
      <point x="729" y="359" type="curve" smooth="yes"/>
      <point x="705" y="488" type="line" smooth="yes"/>
      <point x="672" y="663"/>
      <point x="565" y="753"/>
      <point x="379" y="753" type="curve" smooth="yes"/>
      <point x="162" y="753"/>
      <point x="50" y="641"/>
      <point x="50" y="392" type="curve" smooth="yes"/>
      <point x="50" y="287" type="line" smooth="yes"/>
      <point x="50" y="171"/>
      <point x="55" y="81"/>
      <point x="90" y="0" type="curve"/>
      <point x="368" y="0" type="line"/>
      <point x="340" y="96"/>
      <point x="333" y="177"/>
      <point x="333" y="287" type="curve" smooth="yes"/>
      <point x="333" y="388" type="line" smooth="yes"/>
      <point x="333" y="460"/>
      <point x="348" y="489"/>
      <point x="383" y="489" type="curve" smooth="yes"/>
      <point x="420" y="489"/>
      <point x="432" y="459"/>
      <point x="445" y="388" type="curve" smooth="yes"/>
      <point x="469" y="259" type="line" smooth="yes"/>
      <point x="503" y="76"/>
      <point x="600" y="-24"/>
    </contour>
    <contour>
      <point x="1018" y="1367" type="line"/>
      <point x="999" y="1625" type="line"/>
      <point x="905" y="1625" type="line" smooth="yes"/>
      <point x="779" y="1625"/>
      <point x="710" y="1579"/>
      <point x="646" y="1463" type="curve" smooth="yes"/>
      <point x="534" y="1259" type="line" smooth="yes"/>
      <point x="505" y="1206"/>
      <point x="489" y="1189"/>
      <point x="462" y="1189" type="curve"/>
      <point x="460" y="1189" type="line"/>
      <point x="427" y="1189"/>
      <point x="414" y="1209"/>
      <point x="403" y="1264" type="curve" smooth="yes"/>
      <point x="377" y="1398" type="line"/>
      <point x="79" y="1398" type="line"/>
      <point x="114" y="1270" type="line" smooth="yes"/>
      <point x="177" y="1038"/>
      <point x="244" y="935"/>
      <point x="462" y="935" type="curve"/>
      <point x="495" y="1086" type="line"/>
      <point x="675" y="1086"/>
      <point x="749" y="1127"/>
      <point x="802" y="1225" type="curve" smooth="yes"/>
      <point x="839" y="1294" type="line" smooth="yes"/>
      <point x="866" y="1345"/>
      <point x="895" y="1367"/>
      <point x="951" y="1367" type="curve" smooth="yes"/>
    </contour>
  </outline>
</glyph>
<glyph name="Pa.te" format="2">
  <advance width="1199"/>
  <unicode hex="0C2A"/>
  <anchor x="590" y="-39" name="bottom"/>
  <outline>
    <contour>
      <point x="335" y="-24" type="curve" smooth="yes"/>
      <point x="488" y="-24"/>
      <point x="554" y="55"/>
      <point x="570" y="190" type="curve"/>
      <point x="577" y="190" type="line"/>
      <point x="591" y="55"/>
      <point x="671" y="-24"/>
      <point x="837" y="-24" type="curve" smooth="yes"/>
      <point x="1036" y="-24"/>
      <point x="1139" y="99"/>
      <point x="1139" y="381" type="curve" smooth="yes"/>
      <point x="1139" y="626" type="line"/>
      <point x="845" y="626" type="line"/>
      <point x="845" y="386" type="line" smooth="yes"/>
      <point x="845" y="291"/>
      <point x="821" y="259"/>
      <point x="775" y="259" type="curve" smooth="yes"/>
      <point x="727" y="259"/>
      <point x="705" y="291"/>
      <point x="705" y="379" type="curve" smooth="yes"/>
      <point x="705" y="386" type="line" smooth="yes"/>
      <point x="705" y="629"/>
      <point x="593" y="753"/>
      <point x="377" y="753" type="curve" smooth="yes"/>
      <point x="161" y="753"/>
      <point x="50" y="629"/>
      <point x="50" y="385" type="curve" smooth="yes"/>
      <point x="50" y="342" type="line" smooth="yes"/>
      <point x="50" y="112"/>
      <point x="138" y="-24"/>
    </contour>
    <contour>
      <point x="379" y="252" type="curve" smooth="yes"/>
      <point x="340" y="252"/>
      <point x="326" y="282"/>
      <point x="326" y="351" type="curve" smooth="yes"/>
      <point x="326" y="392" type="line" smooth="yes"/>
      <point x="326" y="462"/>
      <point x="340" y="491"/>
      <point x="379" y="491" type="curve" smooth="yes"/>
      <point x="418" y="491"/>
      <point x="432" y="462"/>
      <point x="432" y="392" type="curve" smooth="yes"/>
      <point x="432" y="351" type="line" smooth="yes"/>
      <point x="432" y="282"/>
      <point x="418" y="252"/>
    </contour>
    <contour>
      <point x="392" y="937" type="curve"/>
      <point x="396" y="937" type="line"/>
      <point x="571" y="937"/>
      <point x="639" y="1034"/>
      <point x="721" y="1190" type="curve" smooth="yes"/>
      <point x="776" y="1294" type="line" smooth="yes"/>
      <point x="807" y="1353"/>
      <point x="841" y="1367"/>
      <point x="889" y="1367" type="curve" smooth="yes"/>
      <point x="1006" y="1367" type="line"/>
      <point x="988" y="1625" type="line"/>
      <point x="843" y="1625" type="line" smooth="yes"/>
      <point x="714" y="1625"/>
      <point x="646" y="1579"/>
      <point x="583" y="1463" type="curve" smooth="yes"/>
      <point x="471" y="1257" type="line" smooth="yes"/>
      <point x="447" y="1213"/>
      <point x="433" y="1189"/>
      <point x="407" y="1189" type="curve"/>
      <point x="405" y="1189" type="line"/>
      <point x="377" y="1189"/>
      <point x="366" y="1209"/>
      <point x="355" y="1264" type="curve" smooth="yes"/>
      <point x="329" y="1398" type="line"/>
      <point x="31" y="1398" type="line"/>
      <point x="74" y="1242" type="line" smooth="yes"/>
      <point x="129" y="1042"/>
      <point x="213" y="937"/>
    </contour>
    <contour>
      <point x="845" y="539" type="line"/>
      <point x="1139" y="539" type="line"/>
      <point x="1139" y="765" type="line"/>
      <point x="1139" y="1051"/>
      <point x="1025" y="1189"/>
      <point x="784" y="1189" type="curve"/>
      <point x="771" y="1189" type="line"/>
      <point x="727" y="924" type="line"/>
      <point x="730" y="924" type="line"/>
      <point x="811" y="924"/>
      <point x="845" y="874"/>
      <point x="845" y="754" type="curve"/>
    </contour>
  </outline>
</glyph>
<glyph name="Ma.te" format="2">
  <advance width="1681"/>
  <unicode hex="0C2E"/>
  <anchor x="835" y="-39" name="bottom"/>
  <outline>
    <contour>
      <point x="335" y="-24" type="curve" smooth="yes"/>
      <point x="488" y="-24"/>
      <point x="554" y="55"/>
      <point x="570" y="190" type="curve"/>
      <point x="577" y="190" type="line"/>
      <point x="591" y="55"/>
      <point x="676" y="-24"/>
      <point x="821" y="-24" type="curve" smooth="yes"/>
      <point x="984" y="-24"/>
      <point x="1065" y="64"/>
      <point x="1076" y="223" type="curve"/>
      <point x="1100" y="258"/>
      <point x="1139" y="318"/>
      <point x="1139" y="399" type="curve" smooth="yes"/>
      <point x="1139" y="602" type="line" smooth="yes"/>
      <point x="1139" y="1005"/>
      <point x="977" y="1181"/>
      <point x="609" y="1181" type="curve" smooth="yes"/>
      <point x="482" y="1181" type="line"/>
      <point x="416" y="1098" type="line"/>
      <point x="462" y="935" type="line"/>
      <point x="581" y="935" type="line" smooth="yes"/>
      <point x="769" y="935"/>
      <point x="845" y="837"/>
      <point x="845" y="602" type="curve" smooth="yes"/>
      <point x="845" y="386" type="line" smooth="yes"/>
      <point x="845" y="291"/>
      <point x="821" y="259"/>
      <point x="775" y="259" type="curve" smooth="yes"/>
      <point x="727" y="259"/>
      <point x="705" y="291"/>
      <point x="705" y="379" type="curve" smooth="yes"/>
      <point x="705" y="386" type="line" smooth="yes"/>
      <point x="705" y="629"/>
      <point x="593" y="753"/>
      <point x="377" y="753" type="curve" smooth="yes"/>
      <point x="161" y="753"/>
      <point x="50" y="629"/>
      <point x="50" y="385" type="curve" smooth="yes"/>
      <point x="50" y="342" type="line" smooth="yes"/>
      <point x="50" y="112"/>
      <point x="138" y="-24"/>
    </contour>
    <contour>
      <point x="379" y="252" type="curve" smooth="yes"/>
      <point x="340" y="252"/>
      <point x="326" y="282"/>
      <point x="326" y="351" type="curve" smooth="yes"/>
      <point x="326" y="392" type="line" smooth="yes"/>
      <point x="326" y="462"/>
      <point x="340" y="491"/>
      <point x="379" y="491" type="curve" smooth="yes"/>
      <point x="418" y="491"/>
      <point x="432" y="462"/>
      <point x="432" y="392" type="curve" smooth="yes"/>
      <point x="432" y="351" type="line" smooth="yes"/>
      <point x="432" y="282"/>
      <point x="418" y="252"/>
    </contour>
    <contour>
      <point x="462" y="935" type="curve"/>
      <point x="495" y="1086" type="line"/>
      <point x="675" y="1086"/>
      <point x="749" y="1127"/>
      <point x="802" y="1225" type="curve" smooth="yes"/>
      <point x="839" y="1294" type="line" smooth="yes"/>
      <point x="866" y="1345"/>
      <point x="895" y="1367"/>
      <point x="951" y="1367" type="curve" smooth="yes"/>
      <point x="1018" y="1367" type="line"/>
      <point x="999" y="1625" type="line"/>
      <point x="905" y="1625" type="line" smooth="yes"/>
      <point x="779" y="1625"/>
      <point x="710" y="1579"/>
      <point x="646" y="1463" type="curve" smooth="yes"/>
      <point x="534" y="1259" type="line" smooth="yes"/>
      <point x="505" y="1206"/>
      <point x="489" y="1189"/>
      <point x="462" y="1189" type="curve"/>
      <point x="460" y="1189" type="line"/>
      <point x="427" y="1189"/>
      <point x="414" y="1209"/>
      <point x="403" y="1264" type="curve" smooth="yes"/>
      <point x="377" y="1398" type="line"/>
      <point x="79" y="1398" type="line"/>
      <point x="114" y="1270" type="line" smooth="yes"/>
      <point x="177" y="1038"/>
      <point x="244" y="935"/>
    </contour>
    <component base="matraU.te" xOffset="1130"/>
  </outline>
</glyph>
<glyph name="Ya.te" format="2">
  <advance width="1908"/>
  <unicode hex="0C2F"/>
  <anchor x="954" y="-39" name="bottom"/>
  <outline>
    <contour>
      <point x="472" y="-24" type="curve" smooth="yes"/>
      <point x="674" y="-24"/>
      <point x="785" y="61"/>
      <point x="825" y="219" type="curve" smooth="yes"/>
      <point x="842" y="287"/>
      <point x="884" y="372"/>
      <point x="884" y="460" type="curve" smooth="yes"/>
      <point x="884" y="738" type="line" smooth="yes"/>
      <point x="884" y="1052"/>
      <point x="746" y="1209"/>
      <point x="472" y="1209" type="curve" smooth="yes"/>
      <point x="198" y="1209"/>
      <point x="60" y="1052"/>
      <point x="60" y="738" type="curve" smooth="yes"/>
      <point x="60" y="447" type="line" smooth="yes"/>
      <point x="60" y="132"/>
      <point x="198" y="-24"/>
    </contour>
    <contour>
      <point x="472" y="259" type="curve" smooth="yes"/>
      <point x="389" y="259"/>
      <point x="354" y="315"/>
      <point x="354" y="445" type="curve" smooth="yes"/>
      <point x="354" y="740" type="line" smooth="yes"/>
      <point x="354" y="870"/>
      <point x="389" y="926"/>
      <point x="472" y="926" type="curve" smooth="yes"/>
      <point x="555" y="926"/>
      <point x="590" y="870"/>
      <point x="590" y="740" type="curve" smooth="yes"/>
      <point x="590" y="445" type="line" smooth="yes"/>
      <point x="590" y="315"/>
      <point x="555" y="259"/>
    </contour>
    <contour>
      <point x="1053" y="-24" type="curve" smooth="yes"/>
      <point x="1214" y="-24"/>
      <point x="1291" y="70"/>
      <point x="1304" y="223" type="curve"/>
      <point x="1337" y="259"/>
      <point x="1366" y="304"/>
      <point x="1366" y="370" type="curve" smooth="yes"/>
      <point x="1366" y="817" type="line" smooth="yes"/>
      <point x="1366" y="1030"/>
      <point x="1304" y="1110"/>
      <point x="1138" y="1144" type="curve"/>
      <point x="1020" y="946" type="line"/>
      <point x="1061" y="935"/>
      <point x="1072" y="902"/>
      <point x="1072" y="824" type="curve" smooth="yes"/>
      <point x="1072" y="403" type="line" smooth="yes"/>
      <point x="1072" y="302"/>
      <point x="1044" y="259"/>
      <point x="978" y="259" type="curve" smooth="yes"/>
      <point x="912" y="259"/>
      <point x="884" y="302"/>
      <point x="884" y="403" type="curve" smooth="yes"/>
      <point x="884" y="478" type="line"/>
      <point x="811" y="478" type="line"/>
      <point x="811" y="223" type="line" smooth="yes"/>
      <point x="811" y="68"/>
      <point x="899" y="-24"/>
    </contour>
    <contour>
      <point x="1092" y="937" type="curve"/>
      <point x="1182" y="1029" type="line"/>
      <point x="1306" y="1029"/>
      <point x="1344" y="1094"/>
      <point x="1401" y="1207" type="curve" smooth="yes"/>
      <point x="1445" y="1294" type="line" smooth="yes"/>
      <point x="1475" y="1353"/>
      <point x="1506" y="1367"/>
      <point x="1558" y="1367" type="curve" smooth="yes"/>
      <point x="1613" y="1367" type="line"/>
      <point x="1594" y="1625" type="line"/>
      <point x="1493" y="1625" type="line" smooth="yes"/>
      <point x="1385" y="1625"/>
      <point x="1322" y="1581"/>
      <point x="1265" y="1463" type="curve" smooth="yes"/>
      <point x="1166" y="1257" type="line" smooth="yes"/>
      <point x="1139" y="1201"/>
      <point x="1125" y="1189"/>
      <point x="1105" y="1189" type="curve"/>
      <point x="1103" y="1189" type="line"/>
      <point x="1081" y="1189"/>
      <point x="1069" y="1203"/>
      <point x="1057" y="1264" type="curve" smooth="yes"/>
      <point x="1031" y="1398" type="line"/>
      <point x="754" y="1398" type="line"/>
      <point x="813" y="1194" type="line" smooth="yes"/>
      <point x="862" y="1026"/>
      <point x="940" y="937"/>
    </contour>
    <component base="matraU.te" xOffset="1357"/>
  </outline>
</glyph>
<glyph name="Ra.te" format="2">
  <advance width="962"/>
  <unicode hex="0C30"/>
  <anchor x="480" y="-39" name="bottom"/>
  <outline>
    <contour>
      <point x="481" y="-26" type="curve" smooth="yes"/>
      <point x="760" y="-26"/>
      <point x="902" y="134"/>
      <point x="902" y="454" type="curve" smooth="yes"/>
      <point x="902" y="738" type="line" smooth="yes"/>
      <point x="902" y="1038"/>
      <point x="764" y="1181"/>
      <point x="481" y="1181" type="curve" smooth="yes"/>
      <point x="198" y="1181"/>
      <point x="60" y="1038"/>
      <point x="60" y="738" type="curve" smooth="yes"/>
      <point x="60" y="454" type="line" smooth="yes"/>
      <point x="60" y="134"/>
      <point x="202" y="-26"/>
    </contour>
    <contour>
      <point x="481" y="258" type="curve" smooth="yes"/>
      <point x="391" y="258"/>
      <point x="354" y="315"/>
      <point x="354" y="453" type="curve" smooth="yes"/>
      <point x="354" y="730" type="line" smooth="yes"/>
      <point x="354" y="868"/>
      <point x="391" y="926"/>
      <point x="481" y="926" type="curve" smooth="yes"/>
      <point x="571" y="926"/>
      <point x="608" y="868"/>
      <point x="608" y="730" type="curve" smooth="yes"/>
      <point x="608" y="453" type="line" smooth="yes"/>
      <point x="608" y="315"/>
      <point x="571" y="258"/>
    </contour>
    <contour>
      <point x="444" y="1064" type="curve" smooth="yes"/>
      <point x="452" y="1064" type="line" smooth="yes"/>
      <point x="639" y="1064"/>
      <point x="739" y="1115"/>
      <point x="783" y="1207" type="curve" smooth="yes"/>
      <point x="825" y="1294" type="line" smooth="yes"/>
      <point x="851" y="1347"/>
      <point x="877" y="1367"/>
      <point x="930" y="1367" type="curve" smooth="yes"/>
      <point x="971" y="1367" type="line"/>
      <point x="947" y="1625" type="line"/>
      <point x="873" y="1625" type="line" smooth="yes"/>
      <point x="752" y="1625"/>
      <point x="688" y="1575"/>
      <point x="634" y="1463" type="curve" smooth="yes"/>
      <point x="536" y="1260" type="line" smooth="yes"/>
      <point x="508" y="1202"/>
      <point x="496" y="1189"/>
      <point x="474" y="1189" type="curve" smooth="yes"/>
      <point x="472" y="1189" type="line" smooth="yes"/>
      <point x="442" y="1189"/>
      <point x="431" y="1217"/>
      <point x="422" y="1264" type="curve" smooth="yes"/>
      <point x="397" y="1398" type="line"/>
      <point x="99" y="1398" type="line"/>
      <point x="137" y="1270" type="line" smooth="yes"/>
      <point x="194" y="1077"/>
      <point x="292" y="1064"/>
    </contour>
  </outline>
</glyph>
<glyph name="Rra.te" format="2">
  <advance width="1437"/>
  <unicode hex="0C31"/>
  <anchor x="713" y="-39" name="bottom"/>
  <outline>
    <contour>
      <point x="413" y="-24" type="curve" smooth="yes"/>
      <point x="597" y="-24"/>
      <point x="700" y="68"/>
      <point x="711" y="237" type="curve"/>
      <point x="718" y="237" type="line"/>
      <point x="729" y="68"/>
      <point x="834" y="-24"/>
      <point x="1020" y="-24" type="curve" smooth="yes"/>
      <point x="1252" y="-24"/>
      <point x="1377" y="114"/>
      <point x="1377" y="416" type="curve" smooth="yes"/>
      <point x="1377" y="852" type="line" smooth="yes"/>
      <point x="1377" y="1091"/>
      <point x="1271" y="1209"/>
      <point x="1050" y="1209" type="curve" smooth="yes"/>
      <point x="842" y="1209"/>
      <point x="737" y="1119"/>
      <point x="737" y="937" type="curve" smooth="yes"/>
      <point x="737" y="929" type="line" smooth="yes"/>
      <point x="737" y="835"/>
      <point x="774" y="771"/>
      <point x="849" y="751" type="curve"/>
      <point x="849" y="743" type="line"/>
      <point x="667" y="743" type="line"/>
      <point x="685" y="510" type="line"/>
      <point x="1044" y="519" type="line"/>
      <point x="1044" y="736" type="line"/>
      <point x="1031" y="740" type="line"/>
      <point x="1013" y="758"/>
      <point x="1009" y="784"/>
      <point x="1009" y="828" type="curve" smooth="yes"/>
      <point x="1009" y="892" type="line" smooth="yes"/>
      <point x="1009" y="940"/>
      <point x="1020" y="960"/>
      <point x="1048" y="960" type="curve" smooth="yes"/>
      <point x="1076" y="960"/>
      <point x="1087" y="940"/>
      <point x="1087" y="892" type="curve" smooth="yes"/>
      <point x="1087" y="418" type="line" smooth="yes"/>
      <point x="1087" y="305"/>
      <point x="1048" y="261"/>
      <point x="967" y="261" type="curve" smooth="yes"/>
      <point x="890" y="261"/>
      <point x="855" y="302"/>
      <point x="847" y="399" type="curve" smooth="yes"/>
      <point x="841" y="469" type="line"/>
      <point x="588" y="469" type="line"/>
      <point x="582" y="399" type="line" smooth="yes"/>
      <point x="574" y="300"/>
      <point x="540" y="261"/>
      <point x="468" y="261" type="curve" smooth="yes"/>
      <point x="389" y="261"/>
      <point x="351" y="304"/>
      <point x="351" y="416" type="curve" smooth="yes"/>
      <point x="351" y="637" type="line" smooth="yes"/>
      <point x="351" y="644"/>
      <point x="351" y="648"/>
      <point x="351" y="657" type="curve"/>
      <point x="378" y="657" type="line"/>
      <point x="343" y="788" type="line"/>
      <point x="343" y="889" type="line" smooth="yes"/>
      <point x="343" y="938"/>
      <point x="356" y="960"/>
      <point x="386" y="960" type="curve" smooth="yes"/>
      <point x="415" y="960"/>
      <point x="428" y="938"/>
      <point x="428" y="889" type="curve" smooth="yes"/>
      <point x="428" y="830" type="line" smooth="yes"/>
      <point x="428" y="784"/>
      <point x="419" y="762"/>
      <point x="387" y="762" type="curve" smooth="yes"/>
      <point x="360" y="762"/>
      <point x="343" y="780"/>
      <point x="340" y="810" type="curve"/>
      <point x="358" y="659" type="line"/>
      <point x="371" y="585"/>
      <point x="421" y="541"/>
      <point x="505" y="541" type="curve" smooth="yes"/>
      <point x="628" y="541"/>
      <point x="689" y="629"/>
      <point x="689" y="808" type="curve" smooth="yes"/>
      <point x="689" y="876" type="line" smooth="yes"/>
      <point x="689" y="1100"/>
      <point x="586" y="1209"/>
      <point x="376" y="1209" type="curve" smooth="yes"/>
      <point x="165" y="1209"/>
      <point x="60" y="1087"/>
      <point x="60" y="843" type="curve" smooth="yes"/>
      <point x="60" y="412" type="line" smooth="yes"/>
      <point x="60" y="114"/>
      <point x="185" y="-24"/>
    </contour>
  </outline>
</glyph>
<glyph name="La.te" format="2">
  <advance width="1200"/>
  <unicode hex="0C32"/>
  <anchor x="590" y="-39" name="bottom"/>
  <outline>
    <contour>
      <point x="599" y="-24" type="curve" smooth="yes"/>
      <point x="960" y="-24"/>
      <point x="1139" y="167"/>
      <point x="1140" y="543" type="curve" smooth="yes"/>
      <point x="1140" y="765" type="line" smooth="yes"/>
      <point x="1140" y="1051"/>
      <point x="1026" y="1189"/>
      <point x="781" y="1189" type="curve" smooth="yes"/>
      <point x="768" y="1189" type="line"/>
      <point x="743" y="924" type="line"/>
      <point x="746" y="924" type="line"/>
      <point x="818" y="924"/>
      <point x="846" y="874"/>
      <point x="846" y="754" type="curve" smooth="yes"/>
      <point x="846" y="558" type="line" smooth="yes"/>
      <point x="846" y="348"/>
      <point x="774" y="259"/>
      <point x="599" y="259" type="curve" smooth="yes"/>
      <point x="424" y="259"/>
      <point x="351" y="348"/>
      <point x="351" y="558" type="curve" smooth="yes"/>
      <point x="351" y="626" type="line" smooth="yes"/>
      <point x="351" y="633"/>
      <point x="351" y="637"/>
      <point x="351" y="646" type="curve"/>
      <point x="380" y="646" type="line"/>
      <point x="343" y="784" type="line"/>
      <point x="343" y="885" type="line" smooth="yes"/>
      <point x="343" y="938"/>
      <point x="356" y="960"/>
      <point x="389" y="960" type="curve" smooth="yes"/>
      <point x="422" y="960"/>
      <point x="435" y="938"/>
      <point x="435" y="885" type="curve" smooth="yes"/>
      <point x="435" y="822" type="line" smooth="yes"/>
      <point x="435" y="775"/>
      <point x="424" y="751"/>
      <point x="391" y="751" type="curve" smooth="yes"/>
      <point x="362" y="751"/>
      <point x="343" y="771"/>
      <point x="340" y="802" type="curve"/>
      <point x="358" y="648" type="line"/>
      <point x="371" y="574"/>
      <point x="421" y="530"/>
      <point x="509" y="530" type="curve" smooth="yes"/>
      <point x="638" y="530"/>
      <point x="697" y="618"/>
      <point x="697" y="799" type="curve" smooth="yes"/>
      <point x="697" y="874" type="line" smooth="yes"/>
      <point x="697" y="1100"/>
      <point x="597" y="1209"/>
      <point x="384" y="1209" type="curve" smooth="yes"/>
      <point x="167" y="1209"/>
      <point x="60" y="1087"/>
      <point x="60" y="841" type="curve" smooth="yes"/>
      <point x="60" y="541" type="line" smooth="yes"/>
      <point x="60" y="166"/>
      <point x="238" y="-24"/>
    </contour>
  </outline>
</glyph>
<glyph name="Sha.te" format="2">
  <advance width="1155"/>
  <unicode hex="0C36"/>
  <anchor x="570" y="-39" name="bottom"/>
  <outline>
    <contour>
      <point x="758" y="-26" type="curve" smooth="yes"/>
      <point x="986" y="-26"/>
      <point x="1095" y="104"/>
      <point x="1095" y="329" type="curve" smooth="yes"/>
      <point x="1095" y="432" type="line" smooth="yes"/>
      <point x="1095" y="611"/>
      <point x="1012" y="732"/>
      <point x="876" y="799" type="curve"/>
      <point x="815" y="822" type="line"/>
      <point x="749" y="845"/>
      <point x="672" y="856"/>
      <point x="589" y="856" type="curve" smooth="yes"/>
      <point x="574" y="856" type="line" smooth="yes"/>
      <point x="221" y="856"/>
      <point x="50" y="707"/>
      <point x="50" y="394" type="curve" smooth="yes"/>
      <point x="50" y="377" type="line" smooth="yes"/>
      <point x="50" y="322"/>
      <point x="55" y="259"/>
      <point x="70" y="204" type="curve"/>
      <point x="344" y="204" type="line"/>
      <point x="337" y="270"/>
      <point x="333" y="320"/>
      <point x="333" y="377" type="curve" smooth="yes"/>
      <point x="333" y="394" type="line" smooth="yes"/>
      <point x="333" y="541"/>
      <point x="401" y="626"/>
      <point x="589" y="626" type="curve" smooth="yes"/>
      <point x="613" y="626" type="line" smooth="yes"/>
      <point x="659" y="626"/>
      <point x="696" y="616"/>
      <point x="723" y="602" type="curve"/>
      <point x="745" y="589" type="line"/>
      <point x="793" y="552"/>
      <point x="811" y="493"/>
      <point x="811" y="421" type="curve" smooth="yes"/>
      <point x="811" y="335" type="line" smooth="yes"/>
      <point x="811" y="274"/>
      <point x="797" y="250"/>
      <point x="758" y="250" type="curve" smooth="yes"/>
      <point x="719" y="250"/>
      <point x="705" y="274"/>
      <point x="705" y="335" type="curve" smooth="yes"/>
      <point x="705" y="372" type="line" smooth="yes"/>
      <point x="705" y="477"/>
      <point x="718" y="521"/>
      <point x="789" y="596" type="curve"/>
      <point x="931" y="729" type="line"/>
      <point x="1023" y="800"/>
      <point x="1064" y="876"/>
      <point x="1064" y="959" type="curve" smooth="yes"/>
      <point x="1064" y="1091"/>
      <point x="988" y="1168"/>
      <point x="837" y="1168" type="curve" smooth="yes"/>
      <point x="684" y="1168" type="line"/>
      <point x="620" y="970" type="line"/>
      <point x="725" y="970" type="line" smooth="yes"/>
      <point x="765" y="970"/>
      <point x="782" y="949"/>
      <point x="782" y="916" type="curve" smooth="yes"/>
      <point x="782" y="887"/>
      <point x="769" y="867"/>
      <point x="727" y="830" type="curve"/>
      <point x="559" y="637" type="line"/>
      <point x="453" y="558"/>
      <point x="423" y="486"/>
      <point x="423" y="359" type="curve" smooth="yes"/>
      <point x="423" y="329" type="line" smooth="yes"/>
      <point x="423" y="104"/>
      <point x="532" y="-26"/>
    </contour>
    <contour>
      <point x="620" y="970" type="curve"/>
      <point x="683" y="1082" type="line"/>
      <point x="843" y="1082"/>
      <point x="908" y="1121"/>
      <point x="964" y="1224" type="curve" smooth="yes"/>
      <point x="999" y="1288" type="line" smooth="yes"/>
      <point x="1032" y="1349"/>
      <point x="1066" y="1367"/>
      <point x="1128" y="1367" type="curve" smooth="yes"/>
      <point x="1165" y="1367" type="line"/>
      <point x="1146" y="1625" type="line"/>
      <point x="1075" y="1625" type="line" smooth="yes"/>
      <point x="942" y="1625"/>
      <point x="877" y="1576"/>
      <point x="815" y="1463" type="curve" smooth="yes"/>
      <point x="703" y="1259" type="line" smooth="yes"/>
      <point x="674" y="1206"/>
      <point x="659" y="1189"/>
      <point x="631" y="1189" type="curve"/>
      <point x="629" y="1189" type="line"/>
      <point x="596" y="1189"/>
      <point x="583" y="1209"/>
      <point x="572" y="1264" type="curve" smooth="yes"/>
      <point x="546" y="1398" type="line"/>
      <point x="248" y="1398" type="line"/>
      <point x="283" y="1270" type="line" smooth="yes"/>
      <point x="336" y="1078"/>
      <point x="418" y="970"/>
    </contour>
  </outline>
</glyph>
<glyph name="Avagraha.te" format="2">
  <advance width="903"/>
  <unicode hex="0C3D"/>
  <outline>
    <contour>
      <point x="421" y="0" type="curve"/>
      <point x="863" y="0" type="line"/>
      <point x="863" y="276" type="line"/>
      <point x="423" y="276" type="line" smooth="yes"/>
      <point x="361" y="276"/>
      <point x="340" y="298"/>
      <point x="340" y="333" type="curve" smooth="yes"/>
      <point x="340" y="337" type="line" smooth="yes"/>
      <point x="340" y="379"/>
      <point x="370" y="397"/>
      <point x="493" y="469" type="curve" smooth="yes"/>
      <point x="731" y="608"/>
      <point x="771" y="697"/>
      <point x="771" y="839" type="curve" smooth="yes"/>
      <point x="771" y="856" type="line" smooth="yes"/>
      <point x="771" y="1061"/>
      <point x="641" y="1170"/>
      <point x="412" y="1170" type="curve" smooth="yes"/>
      <point x="183" y="1170"/>
      <point x="70" y="1061"/>
      <point x="70" y="864" type="curve" smooth="yes"/>
      <point x="70" y="843" type="line" smooth="yes"/>
      <point x="70" y="810"/>
      <point x="72" y="780"/>
      <point x="79" y="742" type="curve"/>
      <point x="350" y="742" type="line"/>
      <point x="344" y="771"/>
      <point x="344" y="797"/>
      <point x="344" y="824" type="curve" smooth="yes"/>
      <point x="344" y="840" type="line" smooth="yes"/>
      <point x="344" y="901"/>
      <point x="361" y="933"/>
      <point x="410" y="933" type="curve" smooth="yes"/>
      <point x="460" y="933"/>
      <point x="477" y="901"/>
      <point x="477" y="840" type="curve" smooth="yes"/>
      <point x="477" y="826" type="line" smooth="yes"/>
      <point x="477" y="757"/>
      <point x="448" y="721"/>
      <point x="328" y="653" type="curve" smooth="yes"/>
      <point x="109" y="528"/>
      <point x="50" y="443"/>
      <point x="50" y="311" type="curve" smooth="yes"/>
      <point x="50" y="304" type="line" smooth="yes"/>
      <point x="50" y="112"/>
      <point x="175" y="0"/>
    </contour>
  </outline>
</glyph>
<glyph name="matraAa.te" format="2">
  <advance width="864"/>
  <unicode hex="0C3E"/>
  <outline>
    <contour>
      <point x="482" y="138" type="curve" smooth="yes"/>
      <point x="699" y="138"/>
      <point x="804" y="259"/>
      <point x="804" y="506" type="curve" smooth="yes"/>
      <point x="804" y="657" type="line" smooth="yes"/>
      <point x="804" y="1006"/>
      <point x="624" y="1189"/>
      <point x="278" y="1189" type="curve" smooth="yes"/>
      <point x="-300" y="1189" type="line"/>
      <point x="-300" y="944" type="line"/>
      <point x="267" y="944" type="line" smooth="yes"/>
      <point x="442" y="944"/>
      <point x="528" y="870"/>
      <point x="528" y="723" type="curve" smooth="yes"/>
      <point x="528" y="718" type="line"/>
      <point x="499" y="718" type="line"/>
      <point x="528" y="567" type="line"/>
      <point x="528" y="469" type="line" smooth="yes"/>
      <point x="528" y="416"/>
      <point x="515" y="394"/>
      <point x="482" y="394" type="curve" smooth="yes"/>
      <point x="449" y="394"/>
      <point x="436" y="416"/>
      <point x="436" y="469" type="curve" smooth="yes"/>
      <point x="436" y="528" type="line" smooth="yes"/>
      <point x="436" y="576"/>
      <point x="447" y="600"/>
      <point x="480" y="600" type="curve" smooth="yes"/>
      <point x="510" y="600"/>
      <point x="528" y="580"/>
      <point x="532" y="548" type="curve"/>
      <point x="521" y="718" type="line"/>
      <point x="508" y="791"/>
      <point x="455" y="835"/>
      <point x="363" y="835" type="curve" smooth="yes"/>
      <point x="232" y="835"/>
      <point x="164" y="743"/>
      <point x="164" y="552" type="curve" smooth="yes"/>
      <point x="164" y="473" type="line" smooth="yes"/>
      <point x="164" y="247"/>
      <point x="265" y="138"/>
    </contour>
  </outline>
</glyph>
<glyph name="matraI.te" format="2">
  <unicode hex="0C3F"/>
  <outline>
    <contour>
      <point x="-405" y="953" type="curve" smooth="yes"/>
      <point x="-169" y="953"/>
      <point x="-44" y="1088"/>
      <point x="-44" y="1334" type="curve" smooth="yes"/>
      <point x="-44" y="1426" type="line" smooth="yes"/>
      <point x="-44" y="1624"/>
      <point x="-157" y="1729"/>
      <point x="-372" y="1729" type="curve" smooth="yes"/>
      <point x="-579" y="1729"/>
      <point x="-683" y="1637"/>
      <point x="-683" y="1459" type="curve"/>
      <point x="-683" y="1458" type="line"/>
      <point x="-683" y="1314"/>
      <point x="-609" y="1236"/>
      <point x="-471" y="1236" type="curve" smooth="yes"/>
      <point x="-367" y="1236"/>
      <point x="-317" y="1275"/>
      <point x="-300" y="1343" type="curve"/>
      <point x="-292" y="1456" type="line"/>
      <point x="-305" y="1415"/>
      <point x="-330" y="1400"/>
      <point x="-367" y="1400" type="curve" smooth="yes"/>
      <point x="-409" y="1400"/>
      <point x="-429" y="1421"/>
      <point x="-429" y="1459" type="curve"/>
      <point x="-429" y="1461" type="line"/>
      <point x="-429" y="1500"/>
      <point x="-409" y="1523"/>
      <point x="-365" y="1523" type="curve" smooth="yes"/>
      <point x="-319" y="1523"/>
      <point x="-300" y="1501"/>
      <point x="-300" y="1456" type="curve" smooth="yes"/>
      <point x="-300" y="1376" type="line"/>
      <point x="-302" y="1341" type="line"/>
      <point x="-293" y="1341" type="line"/>
      <point x="-293" y="1333" type="line" smooth="yes"/>
      <point x="-293" y="1226"/>
      <point x="-345" y="1174"/>
      <point x="-451" y="1174" type="curve" smooth="yes"/>
      <point x="-520" y="1174"/>
      <point x="-586" y="1183"/>
      <point x="-661" y="1218" type="curve"/>
      <point x="-633" y="997" type="line"/>
      <point x="-563" y="967"/>
      <point x="-481" y="953"/>
    </contour>
  </outline>
</glyph>
<glyph name="matraU.te" format="2">
  <advance width="551"/>
  <unicode hex="0C41"/>
  <outline>
    <contour>
      <point x="195" y="-24" type="curve" smooth="yes"/>
      <point x="392" y="-24"/>
      <point x="491" y="105"/>
      <point x="491" y="370" type="curve" smooth="yes"/>
      <point x="491" y="587" type="line"/>
      <point x="197" y="580" type="line"/>
      <point x="197" y="403" type="line" smooth="yes"/>
      <point x="197" y="302"/>
      <point x="169" y="259"/>
      <point x="103" y="259" type="curve" smooth="yes"/>
      <point x="37" y="259"/>
      <point x="9" y="302"/>
      <point x="9" y="403" type="curve" smooth="yes"/>
      <point x="9" y="478" type="line"/>
      <point x="-64" y="478" type="line"/>
      <point x="-64" y="223" type="line" smooth="yes"/>
      <point x="-64" y="64"/>
      <point x="29" y="-24"/>
    </contour>
    <component base="Terminals.te" xOffset="66"/>
  </outline>
</glyph>
<glyph name="matraUu.te" format="2">
  <advance width="1264"/>
  <unicode hex="0C42"/>
  <outline>
    <contour>
      <point x="165" y="-24" type="curve" smooth="yes"/>
      <point x="362" y="-24"/>
      <point x="461" y="105"/>
      <point x="461" y="370" type="curve" smooth="yes"/>
      <point x="461" y="580" type="line"/>
      <point x="167" y="580" type="line"/>
      <point x="167" y="403" type="line" smooth="yes"/>
      <point x="167" y="302"/>
      <point x="139" y="259"/>
      <point x="73" y="259" type="curve" smooth="yes"/>
      <point x="7" y="259"/>
      <point x="-21" y="302"/>
      <point x="-21" y="403" type="curve" smooth="yes"/>
      <point x="-21" y="478" type="line"/>
      <point x="-94" y="478" type="line"/>
      <point x="-94" y="223" type="line" smooth="yes"/>
      <point x="-94" y="64"/>
      <point x="-1" y="-24"/>
    </contour>
    <contour>
      <point x="167" y="539" type="line"/>
      <point x="461" y="539" type="line"/>
      <point x="461" y="679" type="line" smooth="yes"/>
      <point x="461" y="918"/>
      <point x="350" y="1034"/>
      <point x="91" y="1078" type="curve"/>
      <point x="74" y="1189" type="line"/>
      <point x="48" y="924" type="line"/>
      <point x="52" y="924" type="line"/>
      <point x="134" y="924"/>
      <point x="167" y="874"/>
      <point x="167" y="754" type="curve" smooth="yes"/>
    </contour>
    <contour>
      <point x="882" y="138" type="curve" smooth="yes"/>
      <point x="1099" y="138"/>
      <point x="1204" y="259"/>
      <point x="1204" y="506" type="curve" smooth="yes"/>
      <point x="1204" y="657" type="line" smooth="yes"/>
      <point x="1204" y="1006"/>
      <point x="1024" y="1189"/>
      <point x="678" y="1189" type="curve" smooth="yes"/>
      <point x="74" y="1189" type="line"/>
      <point x="104" y="968" type="line"/>
      <point x="481" y="944" type="line"/>
      <point x="667" y="944" type="line" smooth="yes"/>
      <point x="841" y="944"/>
      <point x="928" y="870"/>
      <point x="928" y="723" type="curve" smooth="yes"/>
      <point x="928" y="718" type="line"/>
      <point x="899" y="718" type="line"/>
      <point x="928" y="567" type="line"/>
      <point x="928" y="469" type="line" smooth="yes"/>
      <point x="928" y="416"/>
      <point x="915" y="394"/>
      <point x="882" y="394" type="curve" smooth="yes"/>
      <point x="849" y="394"/>
      <point x="836" y="416"/>
      <point x="836" y="469" type="curve" smooth="yes"/>
      <point x="836" y="528" type="line" smooth="yes"/>
      <point x="836" y="576"/>
      <point x="847" y="600"/>
      <point x="880" y="600" type="curve" smooth="yes"/>
      <point x="910" y="600"/>
      <point x="928" y="580"/>
      <point x="932" y="548" type="curve"/>
      <point x="921" y="718" type="line"/>
      <point x="908" y="791"/>
      <point x="854" y="835"/>
      <point x="762" y="835" type="curve" smooth="yes"/>
      <point x="632" y="835"/>
      <point x="564" y="743"/>
      <point x="564" y="552" type="curve" smooth="yes"/>
      <point x="564" y="473" type="line" smooth="yes"/>
      <point x="564" y="247"/>
      <point x="665" y="138"/>
    </contour>
  </outline>
</glyph>
<glyph name="matraVocalicR.te" format="2">
  <advance width="345"/>
  <unicode hex="0C43"/>
  <outline>
    <contour>
      <point x="-56" y="-706" type="curve" smooth="yes"/>
      <point x="199" y="-706"/>
      <point x="315" y="-570"/>
      <point x="315" y="-302" type="curve" smooth="yes"/>
      <point x="315" y="263" type="line" smooth="yes"/>
      <point x="315" y="487"/>
      <point x="217" y="594"/>
      <point x="40" y="594" type="curve"/>
      <point x="15" y="408" type="line"/>
      <point x="85" y="408"/>
      <point x="120" y="364"/>
      <point x="120" y="263" type="curve" smooth="yes"/>
      <point x="120" y="-294" type="line" smooth="yes"/>
      <point x="120" y="-450"/>
      <point x="69" y="-531"/>
      <point x="-58" y="-531" type="curve" smooth="yes"/>
      <point x="-163" y="-531"/>
      <point x="-223" y="-483"/>
      <point x="-223" y="-411" type="curve"/>
      <point x="-223" y="-410" type="line"/>
      <point x="-209" y="-410" type="line"/>
      <point x="-223" y="-341" type="line"/>
      <point x="-223" y="-293" type="line" smooth="yes"/>
      <point x="-223" y="-262"/>
      <point x="-213" y="-245"/>
      <point x="-189" y="-245" type="curve" smooth="yes"/>
      <point x="-166" y="-245"/>
      <point x="-156" y="-262"/>
      <point x="-156" y="-293" type="curve" smooth="yes"/>
      <point x="-156" y="-311" type="line" smooth="yes"/>
      <point x="-156" y="-340"/>
      <point x="-166" y="-355"/>
      <point x="-188" y="-355" type="curve" smooth="yes"/>
      <point x="-206" y="-355"/>
      <point x="-220" y="-345"/>
      <point x="-227" y="-319" type="curve"/>
      <point x="-226" y="-392" type="line"/>
      <point x="-212" y="-441"/>
      <point x="-174" y="-471"/>
      <point x="-105" y="-471" type="curve" smooth="yes"/>
      <point x="-18" y="-471"/>
      <point x="28" y="-416"/>
      <point x="28" y="-314" type="curve" smooth="yes"/>
      <point x="28" y="-301" type="line" smooth="yes"/>
      <point x="28" y="-161"/>
      <point x="-44" y="-90"/>
      <point x="-186" y="-90" type="curve" smooth="yes"/>
      <point x="-336" y="-90"/>
      <point x="-413" y="-174"/>
      <point x="-413" y="-335" type="curve" smooth="yes"/>
      <point x="-413" y="-373" type="line" smooth="yes"/>
      <point x="-413" y="-591"/>
      <point x="-289" y="-706"/>
    </contour>
  </outline>
</glyph>
<glyph name="matraVocalicRr.te" format="2">
  <advance width="831"/>
  <unicode hex="0C44"/>
  <outline>
    <contour>
      <point x="-56" y="-706" type="curve" smooth="yes"/>
      <point x="199" y="-706"/>
      <point x="315" y="-570"/>
      <point x="315" y="-302" type="curve" smooth="yes"/>
      <point x="315" y="263" type="line" smooth="yes"/>
      <point x="315" y="451"/>
      <point x="220" y="541"/>
      <point x="47" y="544" type="curve"/>
      <point x="40" y="594" type="line"/>
      <point x="15" y="408" type="line"/>
      <point x="85" y="408"/>
      <point x="120" y="364"/>
      <point x="120" y="263" type="curve" smooth="yes"/>
      <point x="120" y="-294" type="line" smooth="yes"/>
      <point x="120" y="-450"/>
      <point x="69" y="-531"/>
      <point x="-58" y="-531" type="curve" smooth="yes"/>
      <point x="-163" y="-531"/>
      <point x="-223" y="-483"/>
      <point x="-223" y="-411" type="curve"/>
      <point x="-223" y="-410" type="line"/>
      <point x="-209" y="-410" type="line"/>
      <point x="-223" y="-341" type="line"/>
      <point x="-223" y="-293" type="line" smooth="yes"/>
      <point x="-223" y="-262"/>
      <point x="-213" y="-245"/>
      <point x="-189" y="-245" type="curve" smooth="yes"/>
      <point x="-166" y="-245"/>
      <point x="-156" y="-262"/>
      <point x="-156" y="-293" type="curve" smooth="yes"/>
      <point x="-156" y="-311" type="line" smooth="yes"/>
      <point x="-156" y="-340"/>
      <point x="-166" y="-355"/>
      <point x="-188" y="-355" type="curve" smooth="yes"/>
      <point x="-206" y="-355"/>
      <point x="-220" y="-345"/>
      <point x="-227" y="-319" type="curve"/>
      <point x="-226" y="-392" type="line"/>
      <point x="-212" y="-441"/>
      <point x="-174" y="-471"/>
      <point x="-105" y="-471" type="curve" smooth="yes"/>
      <point x="-18" y="-471"/>
      <point x="28" y="-416"/>
      <point x="28" y="-314" type="curve" smooth="yes"/>
      <point x="28" y="-301" type="line" smooth="yes"/>
      <point x="28" y="-161"/>
      <point x="-44" y="-90"/>
      <point x="-186" y="-90" type="curve" smooth="yes"/>
      <point x="-336" y="-90"/>
      <point x="-413" y="-174"/>
      <point x="-413" y="-335" type="curve" smooth="yes"/>
      <point x="-413" y="-373" type="line" smooth="yes"/>
      <point x="-413" y="-591"/>
      <point x="-289" y="-706"/>
    </contour>
    <contour>
      <point x="597" y="-43" type="curve" smooth="yes"/>
      <point x="733" y="-43"/>
      <point x="803" y="32"/>
      <point x="803" y="177" type="curve" smooth="yes"/>
      <point x="803" y="304" type="line" smooth="yes"/>
      <point x="803" y="492"/>
      <point x="703" y="594"/>
      <point x="509" y="594" type="curve" smooth="yes"/>
      <point x="40" y="594" type="line"/>
      <point x="39" y="441" type="line"/>
      <point x="370" y="429" type="line"/>
      <point x="503" y="429" type="line" smooth="yes"/>
      <point x="590" y="429"/>
      <point x="628" y="389"/>
      <point x="628" y="303" type="curve" smooth="yes"/>
      <point x="628" y="300" type="line"/>
      <point x="616" y="300" type="line"/>
      <point x="628" y="216" type="line"/>
      <point x="628" y="163" type="line" smooth="yes"/>
      <point x="628" y="132"/>
      <point x="619" y="114"/>
      <point x="595" y="114" type="curve" smooth="yes"/>
      <point x="571" y="114"/>
      <point x="562" y="132"/>
      <point x="562" y="163" type="curve" smooth="yes"/>
      <point x="562" y="181" type="line" smooth="yes"/>
      <point x="562" y="217"/>
      <point x="572" y="233"/>
      <point x="596" y="233" type="curve" smooth="yes"/>
      <point x="619" y="233"/>
      <point x="628" y="217"/>
      <point x="632" y="191" type="curve"/>
      <point x="628" y="288" type="line"/>
      <point x="614" y="344"/>
      <point x="577" y="374"/>
      <point x="518" y="374" type="curve" smooth="yes"/>
      <point x="430" y="374"/>
      <point x="387" y="309"/>
      <point x="387" y="197" type="curve" smooth="yes"/>
      <point x="387" y="161" type="line" smooth="yes"/>
      <point x="387" y="27"/>
      <point x="459" y="-43"/>
    </contour>
  </outline>
</glyph>
<glyph name="matraE.te" format="2">
  <unicode hex="0C46"/>
  <outline>
    <contour>
      <point x="-324" y="1555" type="curve" smooth="yes"/>
      <point x="-707" y="1555" type="line"/>
      <point x="-740" y="1312" type="line"/>
      <point x="-343" y="1312" type="line" smooth="yes"/>
      <point x="-292" y="1312"/>
      <point x="-268" y="1293"/>
      <point x="-268" y="1251" type="curve" smooth="yes"/>
      <point x="-268" y="1208"/>
      <point x="-292" y="1189"/>
      <point x="-343" y="1189" type="curve" smooth="yes"/>
      <point x="-527" y="1189" type="line"/>
      <point x="-527" y="951" type="line"/>
      <point x="-319" y="951" type="line" smooth="yes"/>
      <point x="-110" y="951"/>
      <point x="1" y="1056"/>
      <point x="1" y="1253" type="curve" smooth="yes"/>
      <point x="1" y="1454"/>
      <point x="-109" y="1555"/>
    </contour>
  </outline>
</glyph>
<glyph name="matraO.te" format="2">
  <advance width="767"/>
  <unicode hex="0C4A"/>
  <outline>
    <contour>
      <point x="390" y="392" type="curve" smooth="yes"/>
      <point x="607" y="392"/>
      <point x="712" y="513"/>
      <point x="712" y="760" type="curve" smooth="yes"/>
      <point x="712" y="1069" type="line" smooth="yes"/>
      <point x="712" y="1347"/>
      <point x="586" y="1490"/>
      <point x="345" y="1490" type="curve" smooth="yes"/>
      <point x="208" y="1490"/>
      <point x="111" y="1438"/>
      <point x="83" y="1342" type="curve"/>
      <point x="78" y="1342" type="line"/>
      <point x="55" y="1490"/>
      <point x="-73" y="1567"/>
      <point x="-298" y="1567" type="curve" smooth="yes"/>
      <point x="-342" y="1567" type="line" smooth="yes"/>
      <point x="-597" y="1567"/>
      <point x="-728" y="1479"/>
      <point x="-728" y="1304" type="curve" smooth="yes"/>
      <point x="-728" y="1157"/>
      <point x="-612" y="1085"/>
      <point x="-432" y="1085" type="curve" smooth="yes"/>
      <point x="-381" y="1085" type="line"/>
      <point x="-366" y="1189" type="line"/>
      <point x="-375" y="1189" type="line" smooth="yes"/>
      <point x="-425" y="1189"/>
      <point x="-451" y="1208"/>
      <point x="-451" y="1245" type="curve" smooth="yes"/>
      <point x="-451" y="1296"/>
      <point x="-411" y="1321"/>
      <point x="-312" y="1321" type="curve" smooth="yes"/>
      <point x="-270" y="1321" type="line" smooth="yes"/>
      <point x="-143" y="1321"/>
      <point x="-71" y="1274"/>
      <point x="-64" y="1176" type="curve" smooth="yes"/>
      <point x="-60" y="1121" type="line"/>
      <point x="192" y="1121" type="line"/>
      <point x="195" y="1146" type="line" smooth="yes"/>
      <point x="203" y="1209"/>
      <point x="240" y="1240"/>
      <point x="308" y="1240" type="curve" smooth="yes"/>
      <point x="397" y="1240"/>
      <point x="436" y="1187"/>
      <point x="436" y="1065" type="curve" smooth="yes"/>
      <point x="436" y="962" type="line"/>
      <point x="407" y="962" type="line"/>
      <point x="436" y="811" type="line"/>
      <point x="436" y="723" type="line" smooth="yes"/>
      <point x="436" y="670"/>
      <point x="423" y="648"/>
      <point x="390" y="648" type="curve" smooth="yes"/>
      <point x="357" y="648"/>
      <point x="344" y="670"/>
      <point x="344" y="723" type="curve" smooth="yes"/>
      <point x="344" y="772" type="line" smooth="yes"/>
      <point x="344" y="820"/>
      <point x="355" y="844"/>
      <point x="388" y="844" type="curve" smooth="yes"/>
      <point x="418" y="844"/>
      <point x="436" y="824"/>
      <point x="440" y="792" type="curve"/>
      <point x="429" y="962" type="line"/>
      <point x="416" y="1035"/>
      <point x="363" y="1079"/>
      <point x="271" y="1079" type="curve" smooth="yes"/>
      <point x="140" y="1079"/>
      <point x="72" y="987"/>
      <point x="72" y="796" type="curve" smooth="yes"/>
      <point x="72" y="727" type="line" smooth="yes"/>
      <point x="72" y="501"/>
      <point x="173" y="392"/>
    </contour>
  </outline>
</glyph>
<glyph name="matraAu.te" format="2">
  <advance width="873"/>
  <unicode hex="0C4C"/>
  <outline>
    <contour>
      <point x="496" y="516" type="curve" smooth="yes"/>
      <point x="713" y="516"/>
      <point x="818" y="637"/>
      <point x="818" y="884" type="curve" smooth="yes"/>
      <point x="818" y="1025" type="line" smooth="yes"/>
      <point x="818" y="1374"/>
      <point x="638" y="1555"/>
      <point x="292" y="1555" type="curve" smooth="yes"/>
      <point x="-595" y="1555" type="line"/>
      <point x="-628" y="1312" type="line"/>
      <point x="-70" y="1312" type="line"/>
      <point x="-22" y="1319" type="line"/>
      <point x="155" y="1312" type="line"/>
      <point x="281" y="1312" type="line" smooth="yes"/>
      <point x="456" y="1312"/>
      <point x="542" y="1238"/>
      <point x="542" y="1091" type="curve" smooth="yes"/>
      <point x="542" y="1086" type="line"/>
      <point x="513" y="1086" type="line"/>
      <point x="542" y="935" type="line"/>
      <point x="542" y="847" type="line" smooth="yes"/>
      <point x="542" y="794"/>
      <point x="529" y="772"/>
      <point x="496" y="772" type="curve" smooth="yes"/>
      <point x="463" y="772"/>
      <point x="450" y="794"/>
      <point x="450" y="847" type="curve" smooth="yes"/>
      <point x="450" y="896" type="line" smooth="yes"/>
      <point x="450" y="944"/>
      <point x="461" y="968"/>
      <point x="494" y="968" type="curve" smooth="yes"/>
      <point x="524" y="968"/>
      <point x="542" y="948"/>
      <point x="546" y="916" type="curve"/>
      <point x="535" y="1086" type="line"/>
      <point x="522" y="1159"/>
      <point x="469" y="1203"/>
      <point x="377" y="1203" type="curve" smooth="yes"/>
      <point x="246" y="1203"/>
      <point x="178" y="1111"/>
      <point x="178" y="920" type="curve" smooth="yes"/>
      <point x="178" y="851" type="line" smooth="yes"/>
      <point x="178" y="625"/>
      <point x="279" y="516"/>
    </contour>
    <contour>
      <point x="-409" y="1049" type="line"/>
      <point x="-235" y="1049" type="line" smooth="yes"/>
      <point x="-38" y="1049"/>
      <point x="65" y="1112"/>
      <point x="65" y="1233" type="curve" smooth="yes"/>
      <point x="65" y="1353"/>
      <point x="-44" y="1415"/>
      <point x="-260" y="1415" type="curve" smooth="yes"/>
      <point x="-358" y="1415" type="line"/>
      <point x="-413" y="1312" type="line"/>
      <point x="-272" y="1312" type="line" smooth="yes"/>
      <point x="-220" y="1312"/>
      <point x="-197" y="1293"/>
      <point x="-197" y="1251" type="curve" smooth="yes"/>
      <point x="-197" y="1208"/>
      <point x="-220" y="1189"/>
      <point x="-272" y="1189" type="curve" smooth="yes"/>
      <point x="-409" y="1189" type="line"/>
    </contour>
  </outline>
</glyph>
<glyph name="Halant.te" format="2">
  <unicode hex="0C4D"/>
  <outline>
    <contour>
      <point x="-407" y="953" type="curve" smooth="yes"/>
      <point x="-270" y="953" type="line"/>
      <point x="-270" y="1189" type="line"/>
      <point x="-391" y="1189" type="line" smooth="yes"/>
      <point x="-445" y="1189"/>
      <point x="-465" y="1203"/>
      <point x="-465" y="1232" type="curve" smooth="yes"/>
      <point x="-465" y="1262"/>
      <point x="-445" y="1275"/>
      <point x="-391" y="1275" type="curve" smooth="yes"/>
      <point x="-96" y="1275" type="line"/>
      <point x="-96" y="1511" type="line"/>
      <point x="-408" y="1511" type="line" smooth="yes"/>
      <point x="-463" y="1511"/>
      <point x="-484" y="1525"/>
      <point x="-484" y="1556" type="curve" smooth="yes"/>
      <point x="-484" y="1587"/>
      <point x="-463" y="1601"/>
      <point x="-408" y="1601" type="curve" smooth="yes"/>
      <point x="71" y="1601" type="line"/>
      <point x="34" y="1841" type="line"/>
      <point x="-423" y="1841" type="line" smooth="yes"/>
      <point x="-652" y="1841"/>
      <point x="-773" y="1755"/>
      <point x="-773" y="1592" type="curve" smooth="yes"/>
      <point x="-773" y="1477"/>
      <point x="-709" y="1409"/>
      <point x="-585" y="1392" type="curve"/>
      <point x="-585" y="1385" type="line"/>
      <point x="-698" y="1356"/>
      <point x="-754" y="1292"/>
      <point x="-754" y="1191" type="curve" smooth="yes"/>
      <point x="-754" y="1030"/>
      <point x="-641" y="953"/>
    </contour>
  </outline>
</glyph>
<glyph name="Lengthmark.te" format="2">
  <unicode hex="0C55"/>
  <outline>
    <contour>
      <point x="618" y="1830" type="curve"/>
      <point x="587" y="2073" type="line"/>
      <point x="533" y="2097"/>
      <point x="479" y="2110"/>
      <point x="408" y="2110" type="curve" smooth="yes"/>
      <point x="246" y="2110"/>
      <point x="153" y="2036"/>
      <point x="153" y="1900" type="curve" smooth="yes"/>
      <point x="153" y="1780"/>
      <point x="235" y="1712"/>
      <point x="380" y="1699" type="curve"/>
      <point x="466" y="1761" type="line"/>
      <point x="422" y="1769"/>
      <point x="400" y="1785"/>
      <point x="400" y="1817" type="curve" smooth="yes"/>
      <point x="400" y="1850"/>
      <point x="423" y="1869"/>
      <point x="484" y="1869" type="curve" smooth="yes"/>
      <point x="537" y="1869"/>
      <point x="584" y="1852"/>
    </contour>
  </outline>
</glyph>
<glyph name="matraAiLengthmark.te" format="2">
  <unicode hex="0C56"/>
  <anchor x="-117" y="-14" name="_bottom"/>
  <outline>
    <contour>
      <point x="-381" y="-636" type="curve" smooth="yes"/>
      <point x="352" y="-636" type="line"/>
      <point x="384" y="-436" type="line"/>
      <point x="-222" y="-436" type="line"/>
      <point x="-222" y="-432" type="line"/>
      <point x="-174" y="-411"/>
      <point x="-154" y="-363"/>
      <point x="-154" y="-311" type="curve" smooth="yes"/>
      <point x="-154" y="-307" type="line" smooth="yes"/>
      <point x="-154" y="-179"/>
      <point x="-242" y="-112"/>
      <point x="-402" y="-112" type="curve" smooth="yes"/>
      <point x="-566" y="-112"/>
      <point x="-649" y="-195"/>
      <point x="-649" y="-365" type="curve" smooth="yes"/>
      <point x="-649" y="-386" type="line" smooth="yes"/>
      <point x="-649" y="-548"/>
      <point x="-558" y="-636"/>
    </contour>
    <contour>
      <point x="-401" y="-436" type="curve" smooth="yes"/>
      <point x="-431" y="-436"/>
      <point x="-443" y="-417"/>
      <point x="-443" y="-368" type="curve" smooth="yes"/>
      <point x="-443" y="-357" type="line" smooth="yes"/>
      <point x="-443" y="-308"/>
      <point x="-431" y="-289"/>
      <point x="-401" y="-289" type="curve" smooth="yes"/>
      <point x="-371" y="-289"/>
      <point x="-358" y="-308"/>
      <point x="-358" y="-357" type="curve" smooth="yes"/>
      <point x="-358" y="-368" type="line" smooth="yes"/>
      <point x="-358" y="-417"/>
      <point x="-371" y="-436"/>
    </contour>
  </outline>
</glyph>
<glyph name="Tsa.te" format="2">
  <advance width="1230"/>
  <unicode hex="0C58"/>
  <anchor x="632" y="-39" name="bottom"/>
  <outline>
    <contour>
      <point x="105" y="1472" type="line"/>
      <point x="525" y="1472" type="line" smooth="yes"/>
      <point x="701" y="1472"/>
      <point x="812" y="1579"/>
      <point x="812" y="1744" type="curve" smooth="yes"/>
      <point x="812" y="1831" type="line" smooth="yes"/>
      <point x="812" y="1972"/>
      <point x="718" y="2066"/>
      <point x="530" y="2066" type="curve" smooth="yes"/>
      <point x="342" y="2066"/>
      <point x="250" y="1984"/>
      <point x="250" y="1860" type="curve" smooth="yes"/>
      <point x="250" y="1853" type="line" smooth="yes"/>
      <point x="250" y="1785"/>
      <point x="291" y="1719"/>
      <point x="368" y="1708" type="curve"/>
      <point x="368" y="1700" type="line"/>
      <point x="50" y="1700" type="line"/>
    </contour>
    <contour>
      <point x="530" y="1700" type="curve" smooth="yes"/>
      <point x="488" y="1700"/>
      <point x="477" y="1730"/>
      <point x="477" y="1783" type="curve" smooth="yes"/>
      <point x="477" y="1794" type="line" smooth="yes"/>
      <point x="477" y="1851"/>
      <point x="488" y="1877"/>
      <point x="530" y="1877" type="curve" smooth="yes"/>
      <point x="572" y="1877"/>
      <point x="583" y="1851"/>
      <point x="583" y="1794" type="curve" smooth="yes"/>
      <point x="583" y="1783" type="line" smooth="yes"/>
      <point x="583" y="1730"/>
      <point x="572" y="1700"/>
    </contour>
    <component base="Ca.te"/>
  </outline>
</glyph>
<glyph name="Dza.te" format="2">
  <advance width="1174"/>
  <unicode hex="0C59"/>
  <anchor x="591" y="-39" name="bottom"/>
  <outline>
    <contour>
      <point x="142" y="1277" type="line"/>
      <point x="791" y="1277" type="line" smooth="yes"/>
      <point x="968" y="1277"/>
      <point x="1078" y="1384"/>
      <point x="1078" y="1549" type="curve" smooth="yes"/>
      <point x="1078" y="1636" type="line" smooth="yes"/>
      <point x="1078" y="1777"/>
      <point x="984" y="1871"/>
      <point x="797" y="1871" type="curve" smooth="yes"/>
      <point x="609" y="1871"/>
      <point x="517" y="1788"/>
      <point x="517" y="1665" type="curve" smooth="yes"/>
      <point x="517" y="1658" type="line" smooth="yes"/>
      <point x="517" y="1590"/>
      <point x="558" y="1524"/>
      <point x="635" y="1512" type="curve"/>
      <point x="635" y="1505" type="line"/>
      <point x="86" y="1505" type="line"/>
    </contour>
    <contour>
      <point x="797" y="1505" type="curve" smooth="yes"/>
      <point x="754" y="1505"/>
      <point x="743" y="1535"/>
      <point x="743" y="1588" type="curve" smooth="yes"/>
      <point x="743" y="1599" type="line" smooth="yes"/>
      <point x="743" y="1656"/>
      <point x="754" y="1682"/>
      <point x="797" y="1682" type="curve" smooth="yes"/>
      <point x="839" y="1682"/>
      <point x="850" y="1656"/>
      <point x="850" y="1599" type="curve" smooth="yes"/>
      <point x="850" y="1588" type="line" smooth="yes"/>
      <point x="850" y="1535"/>
      <point x="839" y="1505"/>
    </contour>
    <component base="Ja.te"/>
  </outline>
</glyph>
<glyph name="Rrr.te" format="2">
  <advance width="1199"/>
  <unicode hex="0C5A"/>
  <outline>
    <contour>
      <point x="259" y="566" type="line"/>
      <point x="972" y="566" type="line"/>
      <point x="972" y="782" type="line"/>
      <point x="261" y="782" type="line"/>
    </contour>
    <contour>
      <point x="352" y="-24" type="curve" smooth="yes"/>
      <point x="508" y="-24"/>
      <point x="585" y="55"/>
      <point x="596" y="208" type="curve"/>
      <point x="603" y="208" type="line"/>
      <point x="614" y="55"/>
      <point x="691" y="-24"/>
      <point x="847" y="-24" type="curve" smooth="yes"/>
      <point x="1040" y="-24"/>
      <point x="1139" y="98"/>
      <point x="1139" y="372" type="curve" smooth="yes"/>
      <point x="1139" y="620" type="line" smooth="yes"/>
      <point x="1139" y="1021"/>
      <point x="963" y="1209"/>
      <point x="599" y="1209" type="curve" smooth="yes"/>
      <point x="235" y="1209"/>
      <point x="60" y="1021"/>
      <point x="60" y="620" type="curve" smooth="yes"/>
      <point x="60" y="372" type="line" smooth="yes"/>
      <point x="60" y="98"/>
      <point x="159" y="-24"/>
    </contour>
    <contour>
      <point x="406" y="263" type="curve" smooth="yes"/>
      <point x="367" y="263"/>
      <point x="354" y="291"/>
      <point x="354" y="375" type="curve" smooth="yes"/>
      <point x="354" y="613" type="line" smooth="yes"/>
      <point x="354" y="834"/>
      <point x="424" y="926"/>
      <point x="599" y="926" type="curve" smooth="yes"/>
      <point x="775" y="926"/>
      <point x="845" y="834"/>
      <point x="845" y="613" type="curve" smooth="yes"/>
      <point x="845" y="375" type="line" smooth="yes"/>
      <point x="845" y="291"/>
      <point x="832" y="263"/>
      <point x="793" y="263" type="curve" smooth="yes"/>
      <point x="755" y="263"/>
      <point x="742" y="291"/>
      <point x="736" y="368" type="curve" smooth="yes"/>
      <point x="727" y="484" type="line"/>
      <point x="472" y="484" type="line"/>
      <point x="463" y="368" type="line" smooth="yes"/>
      <point x="457" y="291"/>
      <point x="444" y="263"/>
    </contour>
  </outline>
</glyph>
<glyph name="vowelVocalicRr.te" format="2">
  <advance width="2901"/>
  <unicode hex="0C60"/>
  <anchor x="596" y="0" name="_bottom"/>
  <outline>
    <contour>
      <point x="335" y="-24" type="curve" smooth="yes"/>
      <point x="493" y="-24"/>
      <point x="578" y="55"/>
      <point x="589" y="208" type="curve"/>
      <point x="596" y="208" type="line"/>
      <point x="607" y="55"/>
      <point x="686" y="-24"/>
      <point x="835" y="-24" type="curve" smooth="yes"/>
      <point x="983" y="-24"/>
      <point x="1056" y="63"/>
      <point x="1073" y="219" type="curve"/>
      <point x="1110" y="250"/>
      <point x="1133" y="315"/>
      <point x="1133" y="372" type="curve" smooth="yes"/>
      <point x="1133" y="626" type="line"/>
      <point x="839" y="626" type="line"/>
      <point x="839" y="375" type="line" smooth="yes"/>
      <point x="839" y="291"/>
      <point x="822" y="263"/>
      <point x="786" y="263" type="curve" smooth="yes"/>
      <point x="747" y="263"/>
      <point x="735" y="291"/>
      <point x="729" y="368" type="curve" smooth="yes"/>
      <point x="720" y="484" type="line"/>
      <point x="465" y="484" type="line"/>
      <point x="456" y="368" type="line" smooth="yes"/>
      <point x="450" y="291"/>
      <point x="438" y="263"/>
      <point x="397" y="263" type="curve" smooth="yes"/>
      <point x="359" y="263"/>
      <point x="344" y="291"/>
      <point x="344" y="340" type="curve" smooth="yes"/>
      <point x="344" y="342" type="line" smooth="yes"/>
      <point x="344" y="417"/>
      <point x="360" y="452"/>
      <point x="475" y="550" type="curve" smooth="yes"/>
      <point x="601" y="657"/>
      <point x="653" y="748"/>
      <point x="653" y="889" type="curve" smooth="yes"/>
      <point x="653" y="894" type="line" smooth="yes"/>
      <point x="653" y="1102"/>
      <point x="554" y="1209"/>
      <point x="350" y="1209" type="curve" smooth="yes"/>
      <point x="151" y="1209"/>
      <point x="53" y="1106"/>
      <point x="53" y="905" type="curve" smooth="yes"/>
      <point x="53" y="889" type="line" smooth="yes"/>
      <point x="53" y="822"/>
      <point x="64" y="764"/>
      <point x="81" y="716" type="curve"/>
      <point x="328" y="716" type="line"/>
      <point x="313" y="769"/>
      <point x="309" y="810"/>
      <point x="309" y="887" type="curve" smooth="yes"/>
      <point x="309" y="900" type="line" smooth="yes"/>
      <point x="309" y="949"/>
      <point x="320" y="970"/>
      <point x="350" y="970" type="curve" smooth="yes"/>
      <point x="379" y="970"/>
      <point x="390" y="949"/>
      <point x="390" y="900" type="curve" smooth="yes"/>
      <point x="390" y="887" type="line" smooth="yes"/>
      <point x="390" y="799"/>
      <point x="370" y="776"/>
      <point x="269" y="690" type="curve" smooth="yes"/>
      <point x="121" y="564"/>
      <point x="50" y="481"/>
      <point x="50" y="313" type="curve" smooth="yes"/>
      <point x="50" y="305" type="line" smooth="yes"/>
      <point x="50" y="96"/>
      <point x="145" y="-24"/>
    </contour>
    <contour>
      <point x="1133" y="399" type="curve"/>
      <point x="1133" y="478" type="line"/>
      <point x="1058" y="478" type="line"/>
      <point x="1058" y="223" type="line"/>
      <point x="1058" y="68"/>
      <point x="1159" y="-24"/>
      <point x="1306" y="-24" type="curve" smooth="yes"/>
      <point x="1446" y="-24"/>
      <point x="1525" y="59"/>
      <point x="1555" y="213" type="curve"/>
      <point x="1579" y="248"/>
      <point x="1616" y="305"/>
      <point x="1616" y="366" type="curve" smooth="yes"/>
      <point x="1616" y="642" type="line"/>
      <point x="1321" y="642" type="line"/>
      <point x="1321" y="399" type="line" smooth="yes"/>
      <point x="1321" y="302"/>
      <point x="1294" y="259"/>
      <point x="1227" y="259" type="curve" smooth="yes"/>
      <point x="1161" y="259"/>
      <point x="1133" y="302"/>
    </contour>
    <contour>
      <point x="1801" y="-24" type="curve" smooth="yes"/>
      <point x="2035" y="-24"/>
      <point x="2098" y="171"/>
      <point x="2098" y="370" type="curve" smooth="yes"/>
      <point x="2098" y="587" type="line"/>
      <point x="1803" y="580" type="line"/>
      <point x="1803" y="399" type="line" smooth="yes"/>
      <point x="1803" y="302"/>
      <point x="1776" y="259"/>
      <point x="1709" y="259" type="curve" smooth="yes"/>
      <point x="1643" y="259"/>
      <point x="1616" y="302"/>
      <point x="1616" y="399" type="curve"/>
      <point x="1616" y="478" type="line"/>
      <point x="1542" y="478" type="line"/>
      <point x="1542" y="223" type="line"/>
      <point x="1542" y="63"/>
      <point x="1654" y="-24"/>
    </contour>
    <contour>
      <point x="1803" y="539" type="line"/>
      <point x="2098" y="539" type="line"/>
      <point x="2098" y="679" type="line" smooth="yes"/>
      <point x="2098" y="918"/>
      <point x="2007" y="1029"/>
      <point x="1731" y="1078" type="curve"/>
      <point x="1711" y="1189" type="line"/>
      <point x="1685" y="924" type="line"/>
      <point x="1689" y="924" type="line" smooth="yes"/>
      <point x="1770" y="924"/>
      <point x="1803" y="874"/>
      <point x="1803" y="754" type="curve" smooth="yes"/>
    </contour>
    <contour>
      <point x="2519" y="138" type="curve" smooth="yes"/>
      <point x="2736" y="138"/>
      <point x="2841" y="259"/>
      <point x="2841" y="506" type="curve" smooth="yes"/>
      <point x="2841" y="657" type="line" smooth="yes"/>
      <point x="2841" y="1006"/>
      <point x="2661" y="1189"/>
      <point x="2315" y="1189" type="curve" smooth="yes"/>
      <point x="1711" y="1189" type="line"/>
      <point x="1737" y="968" type="line"/>
      <point x="2118" y="944" type="line"/>
      <point x="2304" y="944" type="line" smooth="yes"/>
      <point x="2479" y="944"/>
      <point x="2565" y="870"/>
      <point x="2565" y="723" type="curve" smooth="yes"/>
      <point x="2565" y="718" type="line"/>
      <point x="2536" y="718" type="line"/>
      <point x="2565" y="567" type="line"/>
      <point x="2565" y="469" type="line" smooth="yes"/>
      <point x="2565" y="416"/>
      <point x="2552" y="394"/>
      <point x="2519" y="394" type="curve" smooth="yes"/>
      <point x="2486" y="394"/>
      <point x="2473" y="416"/>
      <point x="2473" y="469" type="curve" smooth="yes"/>
      <point x="2473" y="528" type="line" smooth="yes"/>
      <point x="2473" y="576"/>
      <point x="2484" y="600"/>
      <point x="2517" y="600" type="curve" smooth="yes"/>
      <point x="2547" y="600"/>
      <point x="2565" y="580"/>
      <point x="2569" y="548" type="curve"/>
      <point x="2558" y="718" type="line"/>
      <point x="2545" y="791"/>
      <point x="2492" y="835"/>
      <point x="2400" y="835" type="curve" smooth="yes"/>
      <point x="2269" y="835"/>
      <point x="2201" y="743"/>
      <point x="2201" y="552" type="curve" smooth="yes"/>
      <point x="2201" y="473" type="line" smooth="yes"/>
      <point x="2201" y="247"/>
      <point x="2302" y="138"/>
    </contour>
    <component base="Terminals.te" xOffset="1190"/>
    <component base="Terminals.te" xOffset="708"/>
  </outline>
</glyph>
<glyph name="vowelVocalicLl.te" format="2">
  <advance width="2342"/>
  <unicode hex="0C61"/>
  <outline>
    <contour>
      <point x="1003" y="-24" type="curve" smooth="yes"/>
      <point x="1352" y="-24"/>
      <point x="1529" y="155"/>
      <point x="1529" y="506" type="curve" smooth="yes"/>
      <point x="1529" y="679" type="line" smooth="yes"/>
      <point x="1529" y="903"/>
      <point x="1452" y="1016"/>
      <point x="1215" y="1064" type="curve"/>
      <point x="1159" y="1189" type="line"/>
      <point x="1104" y="916" type="line"/>
      <point x="1109" y="916" type="line" smooth="yes"/>
      <point x="1189" y="916"/>
      <point x="1235" y="861"/>
      <point x="1235" y="732" type="curve" smooth="yes"/>
      <point x="1235" y="512" type="line" smooth="yes"/>
      <point x="1235" y="331"/>
      <point x="1161" y="250"/>
      <point x="1001" y="250" type="curve" smooth="yes"/>
      <point x="868" y="250"/>
      <point x="800" y="293"/>
      <point x="800" y="374" type="curve"/>
      <point x="800" y="377" type="line"/>
      <point x="800" y="430"/>
      <point x="815" y="458"/>
      <point x="954" y="546" type="curve" smooth="yes"/>
      <point x="1090" y="633"/>
      <point x="1143" y="727"/>
      <point x="1143" y="852" type="curve"/>
      <point x="1143" y="856" type="line"/>
      <point x="1143" y="1080"/>
      <point x="1045" y="1209"/>
      <point x="841" y="1209" type="curve" smooth="yes"/>
      <point x="694" y="1209"/>
      <point x="618" y="1137"/>
      <point x="589" y="1027" type="curve"/>
      <point x="581" y="1027" type="line"/>
      <point x="552" y="1137"/>
      <point x="480" y="1209"/>
      <point x="337" y="1209" type="curve" smooth="yes"/>
      <point x="136" y="1209"/>
      <point x="40" y="1082"/>
      <point x="40" y="859" type="curve" smooth="yes"/>
      <point x="40" y="843" type="line" smooth="yes"/>
      <point x="40" y="797"/>
      <point x="46" y="749"/>
      <point x="61" y="703" type="curve"/>
      <point x="338" y="703" type="line"/>
      <point x="331" y="749"/>
      <point x="327" y="784"/>
      <point x="327" y="826" type="curve" smooth="yes"/>
      <point x="327" y="843" type="line" smooth="yes"/>
      <point x="327" y="914"/>
      <point x="349" y="937"/>
      <point x="388" y="937" type="curve" smooth="yes"/>
      <point x="427" y="937"/>
      <point x="447" y="915"/>
      <point x="451" y="846" type="curve" smooth="yes"/>
      <point x="458" y="725" type="line"/>
      <point x="714" y="725" type="line"/>
      <point x="721" y="846" type="line" smooth="yes"/>
      <point x="725" y="915"/>
      <point x="745" y="937"/>
      <point x="786" y="937" type="curve" smooth="yes"/>
      <point x="826" y="937"/>
      <point x="848" y="916"/>
      <point x="848" y="852" type="curve"/>
      <point x="848" y="846" type="line"/>
      <point x="848" y="795"/>
      <point x="817" y="751"/>
      <point x="729" y="697" type="curve" smooth="yes"/>
      <point x="548" y="587"/>
      <point x="506" y="485"/>
      <point x="506" y="364" type="curve" smooth="yes"/>
      <point x="506" y="350" type="line" smooth="yes"/>
      <point x="506" y="105"/>
      <point x="681" y="-24"/>
    </contour>
    <contour>
      <point x="1962" y="138" type="curve" smooth="yes"/>
      <point x="2195" y="138"/>
      <point x="2282" y="300"/>
      <point x="2282" y="506" type="curve" smooth="yes"/>
      <point x="2282" y="646" type="line"/>
      <point x="2282" y="1012"/>
      <point x="2080" y="1189"/>
      <point x="1737" y="1189" type="curve"/>
      <point x="1159" y="1189" type="line"/>
      <point x="1183" y="968" type="line"/>
      <point x="1550" y="944" type="line"/>
      <point x="1726" y="944" type="line" smooth="yes"/>
      <point x="1918" y="944"/>
      <point x="2010" y="868"/>
      <point x="2010" y="705" type="curve"/>
      <point x="2010" y="701" type="line"/>
      <point x="2000" y="701" type="line"/>
      <point x="2006" y="596" type="line"/>
      <point x="2006" y="497" type="line" smooth="yes"/>
      <point x="2006" y="436"/>
      <point x="1995" y="403"/>
      <point x="1954" y="403" type="curve" smooth="yes"/>
      <point x="1914" y="403"/>
      <point x="1903" y="436"/>
      <point x="1903" y="497" type="curve" smooth="yes"/>
      <point x="1903" y="523" type="line" smooth="yes"/>
      <point x="1903" y="581"/>
      <point x="1916" y="611"/>
      <point x="1954" y="611" type="curve" smooth="yes"/>
      <point x="1986" y="611"/>
      <point x="2000" y="594"/>
      <point x="2010" y="574" type="curve"/>
      <point x="2004" y="699" type="line"/>
      <point x="1988" y="788"/>
      <point x="1932" y="835"/>
      <point x="1833" y="835" type="curve" smooth="yes"/>
      <point x="1712" y="835"/>
      <point x="1632" y="740"/>
      <point x="1632" y="546" type="curve"/>
      <point x="1632" y="502" type="line" smooth="yes"/>
      <point x="1632" y="300"/>
      <point x="1739" y="138"/>
    </contour>
  </outline>
</glyph>
<glyph name="VocalicLsmall1.te" format="2">
  <unicode hex="0C62"/>
  <anchor x="-50" y="-17" name="_bottom"/>
  <outline>
    <contour>
      <point x="110" y="-754" type="curve" smooth="yes"/>
      <point x="320" y="-754"/>
      <point x="436" y="-649"/>
      <point x="436" y="-453" type="curve" smooth="yes"/>
      <point x="436" y="-348" type="line" smooth="yes"/>
      <point x="436" y="-165"/>
      <point x="357" y="-74"/>
      <point x="210" y="-74" type="curve" smooth="yes"/>
      <point x="203" y="-74" type="line"/>
      <point x="178" y="-239" type="line"/>
      <point x="179" y="-239" type="line"/>
      <point x="227" y="-239"/>
      <point x="252" y="-271"/>
      <point x="252" y="-348" type="curve" smooth="yes"/>
      <point x="252" y="-445" type="line" smooth="yes"/>
      <point x="252" y="-548"/>
      <point x="206" y="-596"/>
      <point x="110" y="-596" type="curve" smooth="yes"/>
      <point x="38" y="-596"/>
      <point x="6" y="-576"/>
      <point x="6" y="-539" type="curve"/>
      <point x="6" y="-537" type="line"/>
      <point x="6" y="-512"/>
      <point x="20" y="-496"/>
      <point x="83" y="-457" type="curve" smooth="yes"/>
      <point x="188" y="-392"/>
      <point x="193" y="-329"/>
      <point x="193" y="-279" type="curve" smooth="yes"/>
      <point x="193" y="-274" type="line" smooth="yes"/>
      <point x="193" y="-142"/>
      <point x="128" y="-72"/>
      <point x="-3" y="-72" type="curve" smooth="yes"/>
      <point x="-103" y="-72"/>
      <point x="-156" y="-116"/>
      <point x="-167" y="-200" type="curve"/>
      <point x="-171" y="-200" type="line"/>
      <point x="-181" y="-116"/>
      <point x="-233" y="-72"/>
      <point x="-332" y="-72" type="curve" smooth="yes"/>
      <point x="-460" y="-72"/>
      <point x="-525" y="-140"/>
      <point x="-525" y="-271" type="curve" smooth="yes"/>
      <point x="-525" y="-283" type="line" smooth="yes"/>
      <point x="-525" y="-308"/>
      <point x="-522" y="-333"/>
      <point x="-515" y="-361" type="curve"/>
      <point x="-334" y="-361" type="line"/>
      <point x="-339" y="-341"/>
      <point x="-341" y="-321"/>
      <point x="-341" y="-304" type="curve" smooth="yes"/>
      <point x="-341" y="-293" type="line" smooth="yes"/>
      <point x="-341" y="-255"/>
      <point x="-330" y="-237"/>
      <point x="-301" y="-237" type="curve" smooth="yes"/>
      <point x="-268" y="-237"/>
      <point x="-261" y="-264"/>
      <point x="-258" y="-295" type="curve" smooth="yes"/>
      <point x="-254" y="-337" type="line"/>
      <point x="-83" y="-337" type="line"/>
      <point x="-80" y="-295" type="line" smooth="yes"/>
      <point x="-77" y="-255"/>
      <point x="-65" y="-237"/>
      <point x="-32" y="-237" type="curve" smooth="yes"/>
      <point x="-1" y="-237"/>
      <point x="11" y="-254"/>
      <point x="11" y="-283" type="curve"/>
      <point x="11" y="-285" type="line"/>
      <point x="11" y="-313"/>
      <point x="0" y="-334"/>
      <point x="-60" y="-369" type="curve" smooth="yes"/>
      <point x="-145" y="-419"/>
      <point x="-178" y="-470"/>
      <point x="-178" y="-545" type="curve"/>
      <point x="-178" y="-547" type="line"/>
      <point x="-178" y="-682"/>
      <point x="-77" y="-754"/>
    </contour>
  </outline>
</glyph>
<glyph name="VocalicLlsmall1.te" format="2">
  <unicode hex="0C63"/>
  <anchor x="160" y="-17" name="_bottom"/>
  <outline>
    <contour>
      <point x="109" y="-754" type="curve" smooth="yes"/>
      <point x="319" y="-754"/>
      <point x="435" y="-649"/>
      <point x="435" y="-453" type="curve" smooth="yes"/>
      <point x="435" y="-378" type="line" smooth="yes"/>
      <point x="435" y="-229"/>
      <point x="363" y="-154"/>
      <point x="229" y="-154" type="curve"/>
      <point x="202" y="-74" type="line"/>
      <point x="177" y="-239" type="line"/>
      <point x="178" y="-239" type="line"/>
      <point x="226" y="-239"/>
      <point x="251" y="-271"/>
      <point x="251" y="-348" type="curve" smooth="yes"/>
      <point x="251" y="-445" type="line" smooth="yes"/>
      <point x="251" y="-548"/>
      <point x="205" y="-596"/>
      <point x="109" y="-596" type="curve" smooth="yes"/>
      <point x="37" y="-596"/>
      <point x="5" y="-576"/>
      <point x="5" y="-539" type="curve"/>
      <point x="5" y="-537" type="line"/>
      <point x="5" y="-512"/>
      <point x="19" y="-496"/>
      <point x="82" y="-457" type="curve" smooth="yes"/>
      <point x="187" y="-392"/>
      <point x="192" y="-329"/>
      <point x="192" y="-279" type="curve" smooth="yes"/>
      <point x="192" y="-274" type="line" smooth="yes"/>
      <point x="192" y="-142"/>
      <point x="127" y="-72"/>
      <point x="-4" y="-72" type="curve" smooth="yes"/>
      <point x="-104" y="-72"/>
      <point x="-157" y="-116"/>
      <point x="-168" y="-200" type="curve"/>
      <point x="-172" y="-200" type="line"/>
      <point x="-182" y="-116"/>
      <point x="-234" y="-72"/>
      <point x="-333" y="-72" type="curve" smooth="yes"/>
      <point x="-461" y="-72"/>
      <point x="-526" y="-140"/>
      <point x="-526" y="-271" type="curve" smooth="yes"/>
      <point x="-526" y="-283" type="line" smooth="yes"/>
      <point x="-526" y="-308"/>
      <point x="-523" y="-333"/>
      <point x="-516" y="-361" type="curve"/>
      <point x="-335" y="-361" type="line"/>
      <point x="-340" y="-341"/>
      <point x="-342" y="-321"/>
      <point x="-342" y="-304" type="curve" smooth="yes"/>
      <point x="-342" y="-293" type="line" smooth="yes"/>
      <point x="-342" y="-255"/>
      <point x="-331" y="-237"/>
      <point x="-302" y="-237" type="curve" smooth="yes"/>
      <point x="-268" y="-237"/>
      <point x="-262" y="-264"/>
      <point x="-259" y="-295" type="curve" smooth="yes"/>
      <point x="-255" y="-337" type="line"/>
      <point x="-84" y="-337" type="line"/>
      <point x="-81" y="-295" type="line" smooth="yes"/>
      <point x="-78" y="-255"/>
      <point x="-65" y="-237"/>
      <point x="-33" y="-237" type="curve" smooth="yes"/>
      <point x="-2" y="-237"/>
      <point x="10" y="-254"/>
      <point x="10" y="-283" type="curve"/>
      <point x="10" y="-285" type="line"/>
      <point x="10" y="-313"/>
      <point x="-1" y="-334"/>
      <point x="-61" y="-369" type="curve" smooth="yes"/>
      <point x="-146" y="-419"/>
      <point x="-179" y="-470"/>
      <point x="-179" y="-545" type="curve"/>
      <point x="-179" y="-547" type="line"/>
      <point x="-179" y="-682"/>
      <point x="-78" y="-754"/>
    </contour>
    <contour>
      <point x="684" y="-663" type="curve" smooth="yes"/>
      <point x="811" y="-663"/>
      <point x="876" y="-593"/>
      <point x="876" y="-457" type="curve" smooth="yes"/>
      <point x="876" y="-338" type="line" smooth="yes"/>
      <point x="876" y="-167"/>
      <point x="782" y="-74"/>
      <point x="600" y="-74" type="curve" smooth="yes"/>
      <point x="202" y="-74" type="line"/>
      <point x="201" y="-210" type="line"/>
      <point x="488" y="-228" type="line"/>
      <point x="594" y="-228" type="line" smooth="yes"/>
      <point x="677" y="-228"/>
      <point x="714" y="-264"/>
      <point x="714" y="-343" type="curve" smooth="yes"/>
      <point x="714" y="-346" type="line"/>
      <point x="702" y="-346" type="line"/>
      <point x="714" y="-426" type="line"/>
      <point x="714" y="-466" type="line" smooth="yes"/>
      <point x="714" y="-496"/>
      <point x="705" y="-513"/>
      <point x="682" y="-513" type="curve" smooth="yes"/>
      <point x="659" y="-513"/>
      <point x="651" y="-496"/>
      <point x="651" y="-466" type="curve" smooth="yes"/>
      <point x="651" y="-459" type="line" smooth="yes"/>
      <point x="651" y="-425"/>
      <point x="660" y="-410"/>
      <point x="683" y="-410" type="curve" smooth="yes"/>
      <point x="705" y="-410"/>
      <point x="714" y="-425"/>
      <point x="717" y="-450" type="curve"/>
      <point x="714" y="-357" type="line"/>
      <point x="700" y="-304"/>
      <point x="665" y="-275"/>
      <point x="609" y="-275" type="curve" smooth="yes"/>
      <point x="528" y="-275"/>
      <point x="488" y="-336"/>
      <point x="488" y="-440" type="curve" smooth="yes"/>
      <point x="488" y="-472" type="line" smooth="yes"/>
      <point x="488" y="-597"/>
      <point x="555" y="-663"/>
    </contour>
  </outline>
</glyph>
<glyph name="one.te" format="2">
  <advance width="944"/>
  <unicode hex="0C67"/>
  <outline>
    <contour>
      <point x="522" y="0" type="curve"/>
      <point x="818" y="0" type="line"/>
      <point x="875" y="114"/>
      <point x="884" y="247"/>
      <point x="884" y="366" type="curve" smooth="yes"/>
      <point x="884" y="738" type="line" smooth="yes"/>
      <point x="884" y="1052"/>
      <point x="747" y="1209"/>
      <point x="472" y="1209" type="curve" smooth="yes"/>
      <point x="197" y="1209"/>
      <point x="60" y="1052"/>
      <point x="60" y="738" type="curve" smooth="yes"/>
      <point x="60" y="366" type="line" smooth="yes"/>
      <point x="60" y="247"/>
      <point x="69" y="114"/>
      <point x="126" y="0" type="curve"/>
      <point x="422" y="0" type="line"/>
      <point x="363" y="123"/>
      <point x="354" y="247"/>
      <point x="354" y="366" type="curve" smooth="yes"/>
      <point x="354" y="740" type="line" smooth="yes"/>
      <point x="354" y="870"/>
      <point x="389" y="926"/>
      <point x="472" y="926" type="curve" smooth="yes"/>
      <point x="555" y="926"/>
      <point x="590" y="870"/>
      <point x="590" y="740" type="curve" smooth="yes"/>
      <point x="590" y="366" type="line" smooth="yes"/>
      <point x="590" y="247"/>
      <point x="581" y="123"/>
    </contour>
  </outline>
</glyph>
<glyph name="two.te" format="2">
  <advance width="1126"/>
  <unicode hex="0C68"/>
  <outline>
    <contour>
      <point x="55" y="0" type="line"/>
      <point x="449" y="0" type="line" smooth="yes"/>
      <point x="862" y="0"/>
      <point x="1066" y="193"/>
      <point x="1066" y="578" type="curve" smooth="yes"/>
      <point x="1066" y="698" type="line" smooth="yes"/>
      <point x="1066" y="1037"/>
      <point x="889" y="1209"/>
      <point x="541" y="1209" type="curve" smooth="yes"/>
      <point x="241" y="1209"/>
      <point x="74" y="1049"/>
      <point x="74" y="799" type="curve" smooth="yes"/>
      <point x="74" y="770" type="line" smooth="yes"/>
      <point x="74" y="589"/>
      <point x="158" y="453"/>
      <point x="396" y="453" type="curve" smooth="yes"/>
      <point x="627" y="453"/>
      <point x="699" y="581"/>
      <point x="699" y="738" type="curve" smooth="yes"/>
      <point x="699" y="750" type="line" smooth="yes"/>
      <point x="699" y="850"/>
      <point x="673" y="932"/>
      <point x="590" y="964" type="curve"/>
      <point x="601" y="1028" type="line"/>
      <point x="372" y="959" type="line"/>
      <point x="412" y="918"/>
      <point x="440" y="886"/>
      <point x="440" y="814" type="curve" smooth="yes"/>
      <point x="440" y="776" type="line" smooth="yes"/>
      <point x="440" y="722"/>
      <point x="429" y="697"/>
      <point x="396" y="697" type="curve" smooth="yes"/>
      <point x="363" y="697"/>
      <point x="352" y="722"/>
      <point x="352" y="776" type="curve" smooth="yes"/>
      <point x="352" y="814" type="line" smooth="yes"/>
      <point x="352" y="925"/>
      <point x="420" y="973"/>
      <point x="546" y="973" type="curve" smooth="yes"/>
      <point x="712" y="973"/>
      <point x="777" y="870"/>
      <point x="777" y="705" type="curve" smooth="yes"/>
      <point x="777" y="594" type="line" smooth="yes"/>
      <point x="777" y="379"/>
      <point x="661" y="269"/>
      <point x="412" y="269" type="curve" smooth="yes"/>
      <point x="5" y="269" type="line"/>
    </contour>
  </outline>
</glyph>
<glyph name="three.te" format="2">
  <advance width="745"/>
  <unicode hex="0C69"/>
  <outline>
    <contour>
      <point x="308" y="-24" type="curve" smooth="yes"/>
      <point x="552" y="-24"/>
      <point x="685" y="101"/>
      <point x="685" y="322" type="curve" smooth="yes"/>
      <point x="685" y="334" type="line" smooth="yes"/>
      <point x="685" y="515"/>
      <point x="598" y="586"/>
      <point x="442" y="602" type="curve"/>
      <point x="442" y="610" type="line"/>
      <point x="593" y="630"/>
      <point x="676" y="702"/>
      <point x="676" y="867" type="curve" smooth="yes"/>
      <point x="676" y="878" type="line" smooth="yes"/>
      <point x="676" y="1088"/>
      <point x="545" y="1205"/>
      <point x="310" y="1205" type="curve" smooth="yes"/>
      <point x="218" y="1205"/>
      <point x="137" y="1195"/>
      <point x="66" y="1173" type="curve"/>
      <point x="38" y="911" type="line"/>
      <point x="89" y="929"/>
      <point x="161" y="940"/>
      <point x="233" y="940" type="curve" smooth="yes"/>
      <point x="349" y="940"/>
      <point x="382" y="898"/>
      <point x="382" y="836" type="curve" smooth="yes"/>
      <point x="382" y="828" type="line" smooth="yes"/>
      <point x="382" y="766"/>
      <point x="345" y="730"/>
      <point x="258" y="727" type="curve" smooth="yes"/>
      <point x="133" y="722" type="line"/>
      <point x="133" y="490" type="line"/>
      <point x="258" y="485" type="line" smooth="yes"/>
      <point x="350" y="481"/>
      <point x="391" y="440"/>
      <point x="391" y="372" type="curve" smooth="yes"/>
      <point x="391" y="362" type="line" smooth="yes"/>
      <point x="391" y="294"/>
      <point x="360" y="241"/>
      <point x="231" y="241" type="curve" smooth="yes"/>
      <point x="154" y="241"/>
      <point x="78" y="252"/>
      <point x="25" y="270" type="curve"/>
      <point x="53" y="10" type="line"/>
      <point x="126" y="-14"/>
      <point x="209" y="-24"/>
    </contour>
  </outline>
</glyph>
<glyph name="four.te" format="2">
  <advance width="1068"/>
  <unicode hex="0C6A"/>
  <outline>
    <contour>
      <point x="443" y="376" type="curve"/>
      <point x="534" y="394" type="line"/>
      <point x="622" y="375" type="line"/>
      <point x="877" y="389"/>
      <point x="1018" y="506"/>
      <point x="1018" y="767" type="curve" smooth="yes"/>
      <point x="1018" y="814" type="line" smooth="yes"/>
      <point x="1018" y="1044"/>
      <point x="908" y="1189"/>
      <point x="676" y="1189" type="curve" smooth="yes"/>
      <point x="667" y="1189" type="line"/>
      <point x="612" y="916" type="line"/>
      <point x="617" y="916" type="line" smooth="yes"/>
      <point x="685" y="916"/>
      <point x="724" y="877"/>
      <point x="724" y="789" type="curve" smooth="yes"/>
      <point x="724" y="761" type="line" smooth="yes"/>
      <point x="724" y="657"/>
      <point x="675" y="591"/>
      <point x="534" y="591" type="curve" smooth="yes"/>
      <point x="393" y="591"/>
      <point x="344" y="657"/>
      <point x="344" y="761" type="curve" smooth="yes"/>
      <point x="344" y="789" type="line" smooth="yes"/>
      <point x="344" y="877"/>
      <point x="386" y="916"/>
      <point x="451" y="916" type="curve" smooth="yes"/>
      <point x="456" y="916" type="line"/>
      <point x="401" y="1189" type="line"/>
      <point x="392" y="1189" type="line" smooth="yes"/>
      <point x="160" y="1189"/>
      <point x="50" y="1044"/>
      <point x="50" y="814" type="curve" smooth="yes"/>
      <point x="50" y="767" type="line" smooth="yes"/>
      <point x="50" y="507"/>
      <point x="190" y="390"/>
    </contour>
    <contour>
      <point x="534" y="-24" type="curve" smooth="yes"/>
      <point x="761" y="-24"/>
      <point x="861" y="81"/>
      <point x="861" y="247" type="curve" smooth="yes"/>
      <point x="861" y="253" type="line" smooth="yes"/>
      <point x="861" y="416"/>
      <point x="753" y="503"/>
      <point x="534" y="503" type="curve" smooth="yes"/>
      <point x="315" y="503"/>
      <point x="207" y="416"/>
      <point x="207" y="253" type="curve" smooth="yes"/>
      <point x="207" y="247" type="line" smooth="yes"/>
      <point x="207" y="81"/>
      <point x="307" y="-24"/>
    </contour>
    <contour>
      <point x="534" y="221" type="curve" smooth="yes"/>
      <point x="497" y="221"/>
      <point x="480" y="246"/>
      <point x="480" y="291" type="curve" smooth="yes"/>
      <point x="480" y="310" type="line" smooth="yes"/>
      <point x="480" y="355"/>
      <point x="497" y="377"/>
      <point x="534" y="377" type="curve" smooth="yes"/>
      <point x="571" y="377"/>
      <point x="588" y="355"/>
      <point x="588" y="310" type="curve" smooth="yes"/>
      <point x="588" y="291" type="line" smooth="yes"/>
      <point x="588" y="246"/>
      <point x="571" y="221"/>
    </contour>
  </outline>
</glyph>
<glyph name="five.te" format="2">
  <advance width="1319"/>
  <unicode hex="0C6B"/>
  <outline>
    <contour>
      <point x="63" y="-24" type="line"/>
      <point x="346" y="-24" type="line"/>
      <point x="348" y="39" type="line" smooth="yes"/>
      <point x="351" y="142"/>
      <point x="389" y="182"/>
      <point x="469" y="217" type="curve" smooth="yes"/>
      <point x="797" y="361" type="line" smooth="yes"/>
      <point x="837" y="379"/>
      <point x="864" y="386"/>
      <point x="892" y="386" type="curve" smooth="yes"/>
      <point x="893" y="386" type="line" smooth="yes"/>
      <point x="934" y="386"/>
      <point x="955" y="361"/>
      <point x="955" y="309" type="curve" smooth="yes"/>
      <point x="955" y="184" type="line" smooth="yes"/>
      <point x="955" y="105"/>
      <point x="966" y="44"/>
      <point x="990" y="-24" type="curve"/>
      <point x="1284" y="-24" type="line"/>
      <point x="1248" y="63"/>
      <point x="1235" y="120"/>
      <point x="1235" y="184" type="curve" smooth="yes"/>
      <point x="1235" y="331" type="line" smooth="yes"/>
      <point x="1235" y="528"/>
      <point x="1116" y="640"/>
      <point x="933" y="640" type="curve" smooth="yes"/>
      <point x="913" y="640" type="line" smooth="yes"/>
      <point x="831" y="640"/>
      <point x="730" y="604"/>
      <point x="627" y="563" type="curve" smooth="yes"/>
      <point x="318" y="440" type="line" smooth="yes"/>
      <point x="151" y="374"/>
      <point x="66" y="244"/>
      <point x="64" y="57" type="curve" smooth="yes"/>
    </contour>
    <contour>
      <point x="208" y="326" type="curve"/>
      <point x="469" y="401" type="line"/>
      <point x="510" y="471"/>
      <point x="534" y="561"/>
      <point x="534" y="629" type="curve" smooth="yes"/>
      <point x="534" y="843" type="line" smooth="yes"/>
      <point x="534" y="1082"/>
      <point x="438" y="1209"/>
      <point x="237" y="1209" type="curve" smooth="yes"/>
      <point x="174" y="1209"/>
      <point x="105" y="1194"/>
      <point x="55" y="1170" type="curve"/>
      <point x="29" y="920" type="line"/>
      <point x="59" y="942"/>
      <point x="108" y="960"/>
      <point x="157" y="960" type="curve" smooth="yes"/>
      <point x="223" y="960"/>
      <point x="252" y="925"/>
      <point x="252" y="843" type="curve" smooth="yes"/>
      <point x="252" y="546" type="line" smooth="yes"/>
      <point x="252" y="454"/>
      <point x="245" y="410"/>
    </contour>
    <contour>
      <point x="712" y="552" type="curve"/>
      <point x="907" y="637" type="line"/>
      <point x="889" y="665"/>
      <point x="880" y="700"/>
      <point x="880" y="759" type="curve" smooth="yes"/>
      <point x="880" y="880" type="line" smooth="yes"/>
      <point x="880" y="937"/>
      <point x="890" y="960"/>
      <point x="924" y="960" type="curve" smooth="yes"/>
      <point x="958" y="960"/>
      <point x="968" y="937"/>
      <point x="968" y="880" type="curve" smooth="yes"/>
      <point x="968" y="759" type="line" smooth="yes"/>
      <point x="968" y="700"/>
      <point x="959" y="665"/>
      <point x="940" y="637" type="curve"/>
      <point x="1135" y="552" type="line"/>
      <point x="1211" y="599"/>
      <point x="1244" y="674"/>
      <point x="1244" y="784" type="curve" smooth="yes"/>
      <point x="1244" y="880" type="line" smooth="yes"/>
      <point x="1244" y="1082"/>
      <point x="1148" y="1209"/>
      <point x="926" y="1209" type="curve" smooth="yes"/>
      <point x="704" y="1209"/>
      <point x="604" y="1082"/>
      <point x="604" y="880" type="curve" smooth="yes"/>
      <point x="604" y="784" type="line" smooth="yes"/>
      <point x="604" y="674"/>
      <point x="637" y="599"/>
    </contour>
  </outline>
</glyph>
<glyph name="six.te" format="2">
  <advance width="1044"/>
  <unicode hex="0C6C"/>
  <outline>
    <contour>
      <point x="454" y="0" type="curve"/>
      <point x="1014" y="0" type="line"/>
      <point x="1014" y="265" type="line"/>
      <point x="474" y="265" type="line" smooth="yes"/>
      <point x="387" y="265"/>
      <point x="344" y="297"/>
      <point x="344" y="369" type="curve" smooth="yes"/>
      <point x="344" y="374" type="line" smooth="yes"/>
      <point x="344" y="442"/>
      <point x="387" y="480"/>
      <point x="474" y="480" type="curve" smooth="yes"/>
      <point x="788" y="480" type="line"/>
      <point x="788" y="712" type="line"/>
      <point x="474" y="712" type="line" smooth="yes"/>
      <point x="387" y="712"/>
      <point x="351" y="755"/>
      <point x="351" y="815" type="curve" smooth="yes"/>
      <point x="351" y="819" type="line" smooth="yes"/>
      <point x="351" y="890"/>
      <point x="387" y="924"/>
      <point x="470" y="924" type="curve" smooth="yes"/>
      <point x="622" y="924" type="line"/>
      <point x="561" y="1189" type="line"/>
      <point x="454" y="1189" type="line" smooth="yes"/>
      <point x="173" y="1189"/>
      <point x="57" y="1059"/>
      <point x="57" y="865" type="curve" smooth="yes"/>
      <point x="57" y="854" type="line" smooth="yes"/>
      <point x="57" y="707"/>
      <point x="123" y="620"/>
      <point x="250" y="600" type="curve"/>
      <point x="250" y="592" type="line"/>
      <point x="123" y="572"/>
      <point x="50" y="488"/>
      <point x="50" y="328" type="curve" smooth="yes"/>
      <point x="50" y="316" type="line" smooth="yes"/>
      <point x="50" y="132"/>
      <point x="170" y="0"/>
    </contour>
  </outline>
</glyph>
<glyph name="seven.te" format="2">
  <advance width="825"/>
  <unicode hex="0C6D"/>
  <outline>
    <contour>
      <point x="728" y="40" type="curve"/>
      <point x="765" y="350" type="line"/>
      <point x="690" y="287"/>
      <point x="597" y="254"/>
      <point x="506" y="254" type="curve" smooth="yes"/>
      <point x="396" y="254"/>
      <point x="351" y="284"/>
      <point x="351" y="340" type="curve" smooth="yes"/>
      <point x="351" y="343" type="line" smooth="yes"/>
      <point x="351" y="398"/>
      <point x="383" y="433"/>
      <point x="533" y="539" type="curve" smooth="yes"/>
      <point x="711" y="665"/>
      <point x="757" y="754"/>
      <point x="757" y="889" type="curve" smooth="yes"/>
      <point x="757" y="892" type="line" smooth="yes"/>
      <point x="757" y="1091"/>
      <point x="629" y="1203"/>
      <point x="429" y="1203" type="curve" smooth="yes"/>
      <point x="320" y="1203"/>
      <point x="235" y="1178"/>
      <point x="168" y="1143" type="curve"/>
      <point x="132" y="878" type="line"/>
      <point x="197" y="916"/>
      <point x="275" y="949"/>
      <point x="359" y="949" type="curve" smooth="yes"/>
      <point x="435" y="949"/>
      <point x="463" y="918"/>
      <point x="463" y="870" type="curve"/>
      <point x="463" y="868" type="line"/>
      <point x="463" y="814"/>
      <point x="443" y="791"/>
      <point x="292" y="681" type="curve" smooth="yes"/>
      <point x="129" y="562"/>
      <point x="60" y="476"/>
      <point x="60" y="319" type="curve" smooth="yes"/>
      <point x="60" y="308" type="line" smooth="yes"/>
      <point x="60" y="105"/>
      <point x="187" y="-24"/>
      <point x="465" y="-24" type="curve" smooth="yes"/>
      <point x="569" y="-24"/>
      <point x="661" y="2"/>
    </contour>
  </outline>
</glyph>
<glyph name="eight.te" format="2">
  <advance width="954"/>
  <unicode hex="0C6E"/>
  <outline>
    <contour>
      <point x="472" y="-25" type="curve" smooth="yes"/>
      <point x="746" y="-25"/>
      <point x="884" y="132"/>
      <point x="884" y="446" type="curve" smooth="yes"/>
      <point x="884" y="718" type="line" smooth="yes"/>
      <point x="884" y="837"/>
      <point x="848" y="927"/>
      <point x="728" y="957" type="curve"/>
      <point x="728" y="964" type="line"/>
      <point x="937" y="964" type="line"/>
      <point x="894" y="1198" type="line"/>
      <point x="476" y="1189" type="line"/>
      <point x="476" y="964" type="line"/>
      <point x="520" y="955" type="line"/>
      <point x="566" y="931"/>
      <point x="590" y="887"/>
      <point x="590" y="800" type="curve" smooth="yes"/>
      <point x="590" y="444" type="line" smooth="yes"/>
      <point x="590" y="314"/>
      <point x="555" y="258"/>
      <point x="472" y="258" type="curve" smooth="yes"/>
      <point x="389" y="258"/>
      <point x="354" y="314"/>
      <point x="354" y="444" type="curve" smooth="yes"/>
      <point x="354" y="822" type="line" smooth="yes"/>
      <point x="354" y="942"/>
      <point x="363" y="1065"/>
      <point x="422" y="1189" type="curve"/>
      <point x="126" y="1189" type="line"/>
      <point x="69" y="1075"/>
      <point x="60" y="942"/>
      <point x="60" y="822" type="curve" smooth="yes"/>
      <point x="60" y="446" type="line" smooth="yes"/>
      <point x="60" y="132"/>
      <point x="198" y="-25"/>
    </contour>
  </outline>
</glyph>
<glyph name="nine.te" format="2">
  <advance width="1041"/>
  <unicode hex="0C6F"/>
  <outline>
    <contour>
      <point x="454" y="1" type="curve"/>
      <point x="627" y="1" type="line"/>
      <point x="627" y="266" type="line"/>
      <point x="474" y="266" type="line" smooth="yes"/>
      <point x="387" y="266"/>
      <point x="344" y="298"/>
      <point x="344" y="370" type="curve" smooth="yes"/>
      <point x="344" y="375" type="line" smooth="yes"/>
      <point x="344" y="443"/>
      <point x="387" y="481"/>
      <point x="474" y="481" type="curve" smooth="yes"/>
      <point x="793" y="481" type="line"/>
      <point x="793" y="713" type="line"/>
      <point x="474" y="713" type="line" smooth="yes"/>
      <point x="387" y="713"/>
      <point x="351" y="756"/>
      <point x="351" y="816" type="curve" smooth="yes"/>
      <point x="351" y="820" type="line" smooth="yes"/>
      <point x="351" y="891"/>
      <point x="387" y="925"/>
      <point x="470" y="925" type="curve" smooth="yes"/>
      <point x="1021" y="925" type="line"/>
      <point x="960" y="1190" type="line"/>
      <point x="454" y="1190" type="line"/>
      <point x="173" y="1190"/>
      <point x="57" y="1060"/>
      <point x="57" y="866" type="curve" smooth="yes"/>
      <point x="57" y="855" type="line" smooth="yes"/>
      <point x="57" y="708"/>
      <point x="123" y="621"/>
      <point x="250" y="601" type="curve"/>
      <point x="250" y="593" type="line"/>
      <point x="123" y="573"/>
      <point x="50" y="489"/>
      <point x="50" y="329" type="curve" smooth="yes"/>
      <point x="50" y="317" type="line" smooth="yes"/>
      <point x="50" y="133"/>
      <point x="170" y="1"/>
    </contour>
  </outline>
</glyph>
<glyph name="quoteleft" format="2">
  <advance width="420"/>
  <unicode hex="2018"/>
  <outline>
    <contour>
      <point x="57" y="820" type="curve"/>
      <point x="339" y="820" type="line"/>
      <point x="335" y="873"/>
      <point x="333" y="905"/>
      <point x="333" y="951" type="curve" smooth="yes"/>
      <point x="333" y="1081"/>
      <point x="359" y="1192"/>
      <point x="398" y="1287" type="curve"/>
      <point x="193" y="1337" type="line"/>
      <point x="94" y="1219"/>
      <point x="48" y="1083"/>
      <point x="48" y="927" type="curve" smooth="yes"/>
      <point x="48" y="881"/>
      <point x="52" y="848"/>
    </contour>
  </outline>
</glyph>
<glyph name="trademark" format="2">
  <advance width="1028"/>
  <unicode hex="2122"/>
  <outline>
    <contour>
      <point x="107" y="639" type="line"/>
      <point x="288" y="639" type="line"/>
      <point x="288" y="1255" type="line"/>
      <point x="107" y="1255" type="line"/>
    </contour>
    <contour>
      <point x="13" y="1122" type="line"/>
      <point x="382" y="1122" type="line"/>
      <point x="382" y="1278" type="line"/>
      <point x="13" y="1278" type="line"/>
    </contour>
    <contour>
      <point x="428" y="639" type="line"/>
      <point x="596" y="639" type="line"/>
      <point x="595" y="814" type="line"/>
      <point x="591" y="1077" type="line"/>
      <point x="597" y="1077" type="line"/>
      <point x="640" y="710" type="line"/>
      <point x="784" y="710" type="line"/>
      <point x="826" y="1077" type="line"/>
      <point x="832" y="1077" type="line"/>
      <point x="828" y="814" type="line"/>
      <point x="827" y="639" type="line"/>
      <point x="995" y="639" type="line"/>
      <point x="991" y="1278" type="line"/>
      <point x="754" y="1278" type="line"/>
      <point x="715" y="913" type="line"/>
      <point x="709" y="913" type="line"/>
      <point x="670" y="1278" type="line"/>
      <point x="432" y="1278" type="line"/>
    </contour>
  </outline>
</glyph>
<glyph name="BaHalant.te" format="2">
  <advance width="1193"/>
  <anchor x="590" y="-39" name="bottom"/>
  <outline>
    <contour>
      <point x="335" y="-24" type="curve" smooth="yes"/>
      <point x="493" y="-24"/>
      <point x="578" y="55"/>
      <point x="589" y="208" type="curve"/>
      <point x="596" y="208" type="line"/>
      <point x="607" y="55"/>
      <point x="688" y="-24"/>
      <point x="848" y="-24" type="curve" smooth="yes"/>
      <point x="1036" y="-24"/>
      <point x="1133" y="98"/>
      <point x="1133" y="372" type="curve" smooth="yes"/>
      <point x="1133" y="626" type="line"/>
      <point x="839" y="626" type="line"/>
      <point x="839" y="375" type="line" smooth="yes"/>
      <point x="839" y="291"/>
      <point x="822" y="263"/>
      <point x="786" y="263" type="curve" smooth="yes"/>
      <point x="747" y="263"/>
      <point x="735" y="291"/>
      <point x="729" y="368" type="curve" smooth="yes"/>
      <point x="720" y="484" type="line"/>
      <point x="465" y="484" type="line"/>
      <point x="456" y="368" type="line" smooth="yes"/>
      <point x="450" y="291"/>
      <point x="438" y="263"/>
      <point x="397" y="263" type="curve" smooth="yes"/>
      <point x="359" y="263"/>
      <point x="344" y="291"/>
      <point x="344" y="340" type="curve"/>
      <point x="344" y="342" type="line"/>
      <point x="344" y="427"/>
      <point x="374" y="464"/>
      <point x="475" y="550" type="curve" smooth="yes"/>
      <point x="601" y="657"/>
      <point x="653" y="748"/>
      <point x="653" y="889" type="curve" smooth="yes"/>
      <point x="653" y="894" type="line" smooth="yes"/>
      <point x="653" y="1102"/>
      <point x="554" y="1209"/>
      <point x="350" y="1209" type="curve" smooth="yes"/>
      <point x="151" y="1209"/>
      <point x="53" y="1106"/>
      <point x="53" y="905" type="curve" smooth="yes"/>
      <point x="53" y="889" type="line" smooth="yes"/>
      <point x="53" y="822"/>
      <point x="64" y="764"/>
      <point x="81" y="716" type="curve"/>
      <point x="328" y="716" type="line"/>
      <point x="313" y="769"/>
      <point x="309" y="810"/>
      <point x="309" y="887" type="curve" smooth="yes"/>
      <point x="309" y="900" type="line" smooth="yes"/>
      <point x="309" y="949"/>
      <point x="320" y="970"/>
      <point x="350" y="970" type="curve" smooth="yes"/>
      <point x="379" y="970"/>
      <point x="390" y="949"/>
      <point x="390" y="900" type="curve" smooth="yes"/>
      <point x="390" y="887" type="line" smooth="yes"/>
      <point x="390" y="799"/>
      <point x="370" y="776"/>
      <point x="269" y="690" type="curve" smooth="yes"/>
      <point x="121" y="564"/>
      <point x="50" y="481"/>
      <point x="50" y="313" type="curve" smooth="yes"/>
      <point x="50" y="305" type="line" smooth="yes"/>
      <point x="50" y="96"/>
      <point x="145" y="-24"/>
    </contour>
    <contour>
      <point x="727" y="1005" type="curve" smooth="yes"/>
      <point x="808" y="936"/>
      <point x="839" y="890"/>
      <point x="839" y="754" type="curve" smooth="yes"/>
      <point x="839" y="539" type="line"/>
      <point x="1133" y="539" type="line"/>
      <point x="1133" y="765" type="line" smooth="yes"/>
      <point x="1133" y="1001"/>
      <point x="1066" y="1080"/>
      <point x="980" y="1139" type="curve" smooth="yes"/>
      <point x="923" y="1178"/>
      <point x="907" y="1197"/>
      <point x="907" y="1227" type="curve" smooth="yes"/>
      <point x="907" y="1257"/>
      <point x="929" y="1275"/>
      <point x="976" y="1275" type="curve" smooth="yes"/>
      <point x="1156" y="1275" type="line"/>
      <point x="1156" y="1511" type="line"/>
      <point x="964" y="1511" type="line" smooth="yes"/>
      <point x="909" y="1511"/>
      <point x="888" y="1525"/>
      <point x="888" y="1556" type="curve" smooth="yes"/>
      <point x="888" y="1587"/>
      <point x="909" y="1601"/>
      <point x="964" y="1601" type="curve" smooth="yes"/>
      <point x="1323" y="1601" type="line"/>
      <point x="1286" y="1841" type="line"/>
      <point x="949" y="1841" type="line" smooth="yes"/>
      <point x="720" y="1841"/>
      <point x="599" y="1755"/>
      <point x="599" y="1592" type="curve" smooth="yes"/>
      <point x="599" y="1477"/>
      <point x="663" y="1409"/>
      <point x="787" y="1392" type="curve"/>
      <point x="787" y="1385" type="line"/>
      <point x="668" y="1363"/>
      <point x="620" y="1296"/>
      <point x="620" y="1208" type="curve" smooth="yes"/>
      <point x="620" y="1126"/>
      <point x="653" y="1069"/>
    </contour>
  </outline>
</glyph>
<glyph name="BamatraAa.te" format="2">
  <advance width="1936"/>
  <anchor x="590" y="-39" name="bottom"/>
  <outline>
    <contour>
      <point x="335" y="-24" type="curve" smooth="yes"/>
      <point x="493" y="-24"/>
      <point x="578" y="55"/>
      <point x="589" y="208" type="curve"/>
      <point x="596" y="208" type="line"/>
      <point x="607" y="55"/>
      <point x="688" y="-24"/>
      <point x="848" y="-24" type="curve" smooth="yes"/>
      <point x="1036" y="-24"/>
      <point x="1133" y="98"/>
      <point x="1133" y="372" type="curve" smooth="yes"/>
      <point x="1133" y="626" type="line"/>
      <point x="839" y="626" type="line"/>
      <point x="839" y="375" type="line" smooth="yes"/>
      <point x="839" y="291"/>
      <point x="822" y="263"/>
      <point x="786" y="263" type="curve" smooth="yes"/>
      <point x="747" y="263"/>
      <point x="735" y="291"/>
      <point x="729" y="368" type="curve" smooth="yes"/>
      <point x="720" y="484" type="line"/>
      <point x="465" y="484" type="line"/>
      <point x="456" y="368" type="line" smooth="yes"/>
      <point x="450" y="291"/>
      <point x="438" y="263"/>
      <point x="397" y="263" type="curve" smooth="yes"/>
      <point x="359" y="263"/>
      <point x="344" y="291"/>
      <point x="344" y="340" type="curve"/>
      <point x="344" y="342" type="line"/>
      <point x="344" y="427"/>
      <point x="374" y="464"/>
      <point x="475" y="550" type="curve" smooth="yes"/>
      <point x="601" y="657"/>
      <point x="653" y="748"/>
      <point x="653" y="889" type="curve" smooth="yes"/>
      <point x="653" y="894" type="line" smooth="yes"/>
      <point x="653" y="1102"/>
      <point x="554" y="1209"/>
      <point x="350" y="1209" type="curve" smooth="yes"/>
      <point x="151" y="1209"/>
      <point x="53" y="1106"/>
      <point x="53" y="905" type="curve" smooth="yes"/>
      <point x="53" y="889" type="line" smooth="yes"/>
      <point x="53" y="822"/>
      <point x="64" y="764"/>
      <point x="81" y="716" type="curve"/>
      <point x="328" y="716" type="line"/>
      <point x="313" y="769"/>
      <point x="309" y="810"/>
      <point x="309" y="887" type="curve" smooth="yes"/>
      <point x="309" y="900" type="line" smooth="yes"/>
      <point x="309" y="949"/>
      <point x="320" y="970"/>
      <point x="350" y="970" type="curve" smooth="yes"/>
      <point x="379" y="970"/>
      <point x="390" y="949"/>
      <point x="390" y="900" type="curve" smooth="yes"/>
      <point x="390" y="887" type="line" smooth="yes"/>
      <point x="390" y="799"/>
      <point x="370" y="776"/>
      <point x="269" y="690" type="curve" smooth="yes"/>
      <point x="121" y="564"/>
      <point x="50" y="481"/>
      <point x="50" y="313" type="curve" smooth="yes"/>
      <point x="50" y="305" type="line" smooth="yes"/>
      <point x="50" y="96"/>
      <point x="145" y="-24"/>
    </contour>
    <contour>
      <point x="839" y="539" type="line"/>
      <point x="1133" y="539" type="line"/>
      <point x="1133" y="679" type="line" smooth="yes"/>
      <point x="1133" y="918"/>
      <point x="1022" y="1034"/>
      <point x="763" y="1078" type="curve"/>
      <point x="746" y="1189" type="line"/>
      <point x="720" y="924" type="line"/>
      <point x="724" y="924" type="line"/>
      <point x="806" y="924"/>
      <point x="839" y="874"/>
      <point x="839" y="754" type="curve" smooth="yes"/>
    </contour>
    <contour>
      <point x="1554" y="138" type="curve" smooth="yes"/>
      <point x="1771" y="138"/>
      <point x="1876" y="259"/>
      <point x="1876" y="506" type="curve" smooth="yes"/>
      <point x="1876" y="657" type="line" smooth="yes"/>
      <point x="1876" y="1006"/>
      <point x="1696" y="1189"/>
      <point x="1350" y="1189" type="curve" smooth="yes"/>
      <point x="746" y="1189" type="line"/>
      <point x="776" y="968" type="line"/>
      <point x="1153" y="944" type="line"/>
      <point x="1339" y="944" type="line" smooth="yes"/>
      <point x="1513" y="944"/>
      <point x="1600" y="870"/>
      <point x="1600" y="723" type="curve" smooth="yes"/>
      <point x="1600" y="718" type="line"/>
      <point x="1571" y="718" type="line"/>
      <point x="1600" y="567" type="line"/>
      <point x="1600" y="469" type="line" smooth="yes"/>
      <point x="1600" y="416"/>
      <point x="1587" y="394"/>
      <point x="1554" y="394" type="curve" smooth="yes"/>
      <point x="1521" y="394"/>
      <point x="1508" y="416"/>
      <point x="1508" y="469" type="curve" smooth="yes"/>
      <point x="1508" y="528" type="line" smooth="yes"/>
      <point x="1508" y="576"/>
      <point x="1519" y="600"/>
      <point x="1552" y="600" type="curve" smooth="yes"/>
      <point x="1582" y="600"/>
      <point x="1600" y="580"/>
      <point x="1604" y="548" type="curve"/>
      <point x="1593" y="718" type="line"/>
      <point x="1580" y="791"/>
      <point x="1526" y="835"/>
      <point x="1434" y="835" type="curve" smooth="yes"/>
      <point x="1304" y="835"/>
      <point x="1236" y="743"/>
      <point x="1236" y="552" type="curve" smooth="yes"/>
      <point x="1236" y="473" type="line" smooth="yes"/>
      <point x="1236" y="247"/>
      <point x="1337" y="138"/>
    </contour>
  </outline>
</glyph>
<glyph name="BamatraAu.te" format="2">
  <advance width="1931"/>
  <anchor x="590" y="-39" name="bottom"/>
  <outline>
    <contour>
      <point x="1435" y="1203" type="curve" smooth="yes"/>
      <point x="1304" y="1203"/>
      <point x="1236" y="1111"/>
      <point x="1236" y="920" type="curve" smooth="yes"/>
      <point x="1236" y="851" type="line" smooth="yes"/>
      <point x="1236" y="625"/>
      <point x="1337" y="516"/>
      <point x="1554" y="516" type="curve" smooth="yes"/>
      <point x="1771" y="516"/>
      <point x="1876" y="637"/>
      <point x="1876" y="884" type="curve" smooth="yes"/>
      <point x="1876" y="1025" type="line" smooth="yes"/>
      <point x="1876" y="1372"/>
      <point x="1696" y="1552"/>
      <point x="1350" y="1552" type="curve" smooth="yes"/>
      <point x="478" y="1552" type="line"/>
      <point x="445" y="1312" type="line"/>
      <point x="1003" y="1312" type="line"/>
      <point x="1051" y="1319" type="line"/>
      <point x="1228" y="1312" type="line"/>
      <point x="1339" y="1312" type="line" smooth="yes"/>
      <point x="1514" y="1312"/>
      <point x="1600" y="1238"/>
      <point x="1600" y="1091" type="curve" smooth="yes"/>
      <point x="1600" y="1086" type="line"/>
      <point x="1581" y="1086" type="line"/>
      <point x="1600" y="935" type="line"/>
      <point x="1600" y="847" type="line" smooth="yes"/>
      <point x="1600" y="794"/>
      <point x="1587" y="772"/>
      <point x="1554" y="772" type="curve" smooth="yes"/>
      <point x="1521" y="772"/>
      <point x="1508" y="794"/>
      <point x="1508" y="847" type="curve" smooth="yes"/>
      <point x="1508" y="896" type="line" smooth="yes"/>
      <point x="1508" y="944"/>
      <point x="1519" y="968"/>
      <point x="1552" y="968" type="curve" smooth="yes"/>
      <point x="1582" y="968"/>
      <point x="1600" y="948"/>
      <point x="1604" y="916" type="curve"/>
      <point x="1593" y="1086" type="line"/>
      <point x="1580" y="1159"/>
      <point x="1527" y="1203"/>
    </contour>
    <contour>
      <point x="335" y="-24" type="curve" smooth="yes"/>
      <point x="493" y="-24"/>
      <point x="578" y="55"/>
      <point x="589" y="208" type="curve"/>
      <point x="596" y="208" type="line"/>
      <point x="607" y="55"/>
      <point x="688" y="-24"/>
      <point x="848" y="-24" type="curve" smooth="yes"/>
      <point x="1036" y="-24"/>
      <point x="1133" y="98"/>
      <point x="1133" y="372" type="curve" smooth="yes"/>
      <point x="1133" y="626" type="line"/>
      <point x="839" y="626" type="line"/>
      <point x="839" y="375" type="line" smooth="yes"/>
      <point x="839" y="291"/>
      <point x="822" y="263"/>
      <point x="786" y="263" type="curve" smooth="yes"/>
      <point x="747" y="263"/>
      <point x="735" y="291"/>
      <point x="729" y="368" type="curve" smooth="yes"/>
      <point x="720" y="484" type="line"/>
      <point x="465" y="484" type="line"/>
      <point x="456" y="368" type="line" smooth="yes"/>
      <point x="450" y="291"/>
      <point x="438" y="263"/>
      <point x="397" y="263" type="curve" smooth="yes"/>
      <point x="359" y="263"/>
      <point x="344" y="291"/>
      <point x="344" y="340" type="curve"/>
      <point x="344" y="342" type="line"/>
      <point x="344" y="427"/>
      <point x="374" y="464"/>
      <point x="475" y="550" type="curve" smooth="yes"/>
      <point x="601" y="657"/>
      <point x="653" y="748"/>
      <point x="653" y="889" type="curve" smooth="yes"/>
      <point x="653" y="894" type="line" smooth="yes"/>
      <point x="653" y="1102"/>
      <point x="554" y="1209"/>
      <point x="350" y="1209" type="curve" smooth="yes"/>
      <point x="151" y="1209"/>
      <point x="53" y="1106"/>
      <point x="53" y="905" type="curve" smooth="yes"/>
      <point x="53" y="889" type="line" smooth="yes"/>
      <point x="53" y="822"/>
      <point x="64" y="764"/>
      <point x="81" y="716" type="curve"/>
      <point x="328" y="716" type="line"/>
      <point x="313" y="769"/>
      <point x="309" y="810"/>
      <point x="309" y="887" type="curve" smooth="yes"/>
      <point x="309" y="900" type="line" smooth="yes"/>
      <point x="309" y="949"/>
      <point x="320" y="970"/>
      <point x="350" y="970" type="curve" smooth="yes"/>
      <point x="379" y="970"/>
      <point x="390" y="949"/>
      <point x="390" y="900" type="curve" smooth="yes"/>
      <point x="390" y="887" type="line" smooth="yes"/>
      <point x="390" y="799"/>
      <point x="370" y="776"/>
      <point x="269" y="690" type="curve" smooth="yes"/>
      <point x="121" y="564"/>
      <point x="50" y="481"/>
      <point x="50" y="313" type="curve" smooth="yes"/>
      <point x="50" y="305" type="line" smooth="yes"/>
      <point x="50" y="96"/>
      <point x="145" y="-24"/>
    </contour>
    <contour>
      <point x="839" y="539" type="line"/>
      <point x="1133" y="539" type="line"/>
      <point x="1133" y="765" type="line" smooth="yes"/>
      <point x="1133" y="1010"/>
      <point x="1025" y="1128"/>
      <point x="795" y="1128" type="curve"/>
      <point x="747" y="1189" type="line"/>
      <point x="721" y="924" type="line"/>
      <point x="725" y="924" type="line" smooth="yes"/>
      <point x="806" y="924"/>
      <point x="839" y="874"/>
      <point x="839" y="754" type="curve" smooth="yes"/>
    </contour>
    <contour>
      <point x="784" y="1019" type="line"/>
      <point x="838" y="1019" type="line" smooth="yes"/>
      <point x="1035" y="1019"/>
      <point x="1138" y="1088"/>
      <point x="1138" y="1223" type="curve" smooth="yes"/>
      <point x="1138" y="1350"/>
      <point x="1029" y="1415"/>
      <point x="813" y="1415" type="curve"/>
      <point x="715" y="1415" type="line"/>
      <point x="660" y="1312" type="line"/>
      <point x="801" y="1312" type="line" smooth="yes"/>
      <point x="853" y="1312"/>
      <point x="876" y="1293"/>
      <point x="876" y="1251" type="curve" smooth="yes"/>
      <point x="876" y="1208"/>
      <point x="853" y="1189"/>
      <point x="801" y="1189" type="curve" smooth="yes"/>
      <point x="747" y="1189" type="line"/>
    </contour>
  </outline>
</glyph>
<glyph name="BamatraE.te" format="2">
  <advance width="1193"/>
  <anchor x="590" y="-39" name="bottom"/>
  <anchor x="612" y="-39" name="bottom2"/>
  <outline>
    <contour>
      <point x="335" y="-24" type="curve" smooth="yes"/>
      <point x="493" y="-24"/>
      <point x="578" y="55"/>
      <point x="589" y="208" type="curve"/>
      <point x="596" y="208" type="line"/>
      <point x="607" y="55"/>
      <point x="688" y="-24"/>
      <point x="848" y="-24" type="curve" smooth="yes"/>
      <point x="1036" y="-24"/>
      <point x="1133" y="98"/>
      <point x="1133" y="372" type="curve" smooth="yes"/>
      <point x="1133" y="626" type="line"/>
      <point x="839" y="626" type="line"/>
      <point x="839" y="375" type="line" smooth="yes"/>
      <point x="839" y="291"/>
      <point x="822" y="263"/>
      <point x="786" y="263" type="curve" smooth="yes"/>
      <point x="747" y="263"/>
      <point x="735" y="291"/>
      <point x="729" y="368" type="curve" smooth="yes"/>
      <point x="720" y="484" type="line"/>
      <point x="465" y="484" type="line"/>
      <point x="456" y="368" type="line" smooth="yes"/>
      <point x="450" y="291"/>
      <point x="438" y="263"/>
      <point x="397" y="263" type="curve" smooth="yes"/>
      <point x="359" y="263"/>
      <point x="344" y="291"/>
      <point x="344" y="340" type="curve"/>
      <point x="344" y="342" type="line"/>
      <point x="344" y="427"/>
      <point x="374" y="464"/>
      <point x="475" y="550" type="curve" smooth="yes"/>
      <point x="601" y="657"/>
      <point x="653" y="748"/>
      <point x="653" y="889" type="curve" smooth="yes"/>
      <point x="653" y="894" type="line" smooth="yes"/>
      <point x="653" y="1102"/>
      <point x="554" y="1209"/>
      <point x="350" y="1209" type="curve" smooth="yes"/>
      <point x="151" y="1209"/>
      <point x="53" y="1106"/>
      <point x="53" y="905" type="curve" smooth="yes"/>
      <point x="53" y="889" type="line" smooth="yes"/>
      <point x="53" y="822"/>
      <point x="64" y="764"/>
      <point x="81" y="716" type="curve"/>
      <point x="328" y="716" type="line"/>
      <point x="313" y="769"/>
      <point x="309" y="810"/>
      <point x="309" y="887" type="curve" smooth="yes"/>
      <point x="309" y="900" type="line" smooth="yes"/>
      <point x="309" y="949"/>
      <point x="320" y="970"/>
      <point x="350" y="970" type="curve" smooth="yes"/>
      <point x="379" y="970"/>
      <point x="390" y="949"/>
      <point x="390" y="900" type="curve" smooth="yes"/>
      <point x="390" y="887" type="line" smooth="yes"/>
      <point x="390" y="799"/>
      <point x="370" y="776"/>
      <point x="269" y="690" type="curve" smooth="yes"/>
      <point x="121" y="564"/>
      <point x="50" y="481"/>
      <point x="50" y="313" type="curve" smooth="yes"/>
      <point x="50" y="305" type="line" smooth="yes"/>
      <point x="50" y="96"/>
      <point x="145" y="-24"/>
    </contour>
    <contour>
      <point x="839" y="539" type="line"/>
      <point x="1133" y="539" type="line"/>
      <point x="1133" y="765" type="line" smooth="yes"/>
      <point x="1133" y="1017"/>
      <point x="1013" y="1139"/>
      <point x="760" y="1139" type="curve"/>
      <point x="748" y="1199" type="line"/>
      <point x="721" y="924" type="line"/>
      <point x="725" y="924" type="line"/>
      <point x="806" y="924"/>
      <point x="839" y="874"/>
      <point x="839" y="754" type="curve" smooth="yes"/>
    </contour>
    <contour>
      <point x="748" y="1044" type="line"/>
      <point x="818" y="1044" type="line" smooth="yes"/>
      <point x="1024" y="1044"/>
      <point x="1133" y="1127"/>
      <point x="1133" y="1288" type="curve" smooth="yes"/>
      <point x="1133" y="1465"/>
      <point x="1025" y="1555"/>
      <point x="813" y="1555" type="curve" smooth="yes"/>
      <point x="168" y="1555" type="line"/>
      <point x="135" y="1312" type="line"/>
      <point x="791" y="1312" type="line" smooth="yes"/>
      <point x="839" y="1312"/>
      <point x="861" y="1295"/>
      <point x="861" y="1256" type="curve" smooth="yes"/>
      <point x="861" y="1217"/>
      <point x="839" y="1199"/>
      <point x="791" y="1199" type="curve" smooth="yes"/>
      <point x="748" y="1199" type="line"/>
    </contour>
  </outline>
</glyph>
